CommonSans-ExtraBold.ufo
<glyph name="parenleft" format="2">
	<unicode hex="0028"/>
	<advance width="241"/>
	<outline>
		<contour>
			<point x="40" y="230" type="curve" smooth="yes"/>
			<point x="40" y="398"/>
			<point x="87" y="533"/>
			<point x="161" y="680" type="curve"/>
			<point x="201" y="680" type="line"/>
			<point x="148" y="535"/>
			<point x="120" y="385"/>
			<point x="120" y="230" type="curve" smooth="yes"/>
			<point x="120" y="89"/>
			<point x="151" y="-45"/>
			<point x="201" y="-180" type="curve"/>
			<point x="184" y="-180"/>
			<point x="167" y="-180"/>
			<point x="150" y="-180" type="curve"/>
			<point x="127" y="-125" type="line" smooth="yes"/>
			<point x="82" y="-14"/>
			<point x="40" y="109"/>
		</contour>
	</outline>
</glyph>
<glyph name="period" format="2">
	<unicode hex="002E"/>
	<advance width="175"/>
	<outline>
		<contour>
			<point x="123.75" y="0" type="line"/>
			<point x="51.25" y="0" type="line"/>
			<point x="51.25" y="80" type="line"/>
			<point x="123.75" y="80" type="line"/>
		</contour>
	</outline>
</glyph>
<glyph name="five" format="2">
	<unicode hex="0035"/>
	<advance width="528"/>
	<outline>
		<contour>
			<point x="53" y="148" type="curve"/>
			<point x="133" y="148" type="line"/>
			<point x="148" y="100"/>
			<point x="182" y="70"/>
			<point x="262" y="70" type="curve" smooth="yes"/>
			<point x="356" y="70"/>
			<point x="400" y="164"/>
			<point x="400" y="250" type="curve" smooth="yes"/>
			<point x="400" y="375"/>
			<point x="340" y="420"/>
			<point x="293" y="420" type="curve" smooth="yes"/>
			<point x="231" y="420"/>
			<point x="157" y="393"/>
			<point x="145" y="300" type="curve"/>
			<point x="56" y="296" type="line"/>
			<point x="56" y="700" type="line"/>
			<point x="422" y="700" type="line"/>
			<point x="422" y="630" type="line"/>
			<point x="143" y="630" type="line"/>
			<point x="143" y="403" type="line"/>
			<point x="144" y="403"/>
			<point x="145" y="403"/>
			<point x="146" y="403" type="curve"/>
			<point x="172" y="456"/>
			<point x="225" y="493"/>
			<point x="295" y="493" type="curve" smooth="yes"/>
			<point x="413" y="493"/>
			<point x="489" y="392"/>
			<point x="489" y="243" type="curve" smooth="yes"/>
			<point x="489" y="101"/>
			<point x="395" y="-10"/>
			<point x="266" y="-10" type="curve" smooth="yes"/>
			<point x="142" y="-10"/>
			<point x="80" y="51"/>
		</contour>
	</outline>
</glyph>
<glyph name="seven" format="2">
	<unicode hex="0037"/>
	<advance width="560"/>
	<outline>
		<contour>
			<point x="420" y="620" type="curve"/>
			<point x="50" y="620" type="line"/>
			<point x="50" y="700" type="line"/>
			<point x="510" y="700" type="line"/>
			<point x="510" y="620" type="line"/>
			<point x="470" y="570" type="line"/>
			<point x="364" y="433"/>
			<point x="270" y="277"/>
			<point x="270" y="0" type="curve"/>
			<point x="180" y="0" type="line"/>
			<point x="180" y="263"/>
			<point x="253" y="418"/>
		</contour>
	</outline>
</glyph>
<glyph name="A" format="2">
	<unicode hex="0041"/>
	<advance width="629"/>
	<outline>
		<contour>
			<point x="369" y="291.875" type="line"/>
			<point x="314.375" y="467.125" type="line"/>
			<point x="259.75" y="291.875" type="line"/>
		</contour>
		<contour>
			<point x="458.5" y="0" type="line"/>
			<point x="417.875" y="131.875" type="line"/>
			<point x="210.875" y="131.875" type="line"/>
			<point x="170.25" y="0" type="line"/>
			<point x="10" y="0" type="line"/>
			<point x="219.375" y="680" type="line"/>
			<point x="407.625" y="680" type="line"/>
			<point x="618.75" y="0" type="line"/>
		</contour>
	</outline>
	<anchor name="top" x="303" y="740"/>
</glyph>
<glyph name="B" format="2">
	<unicode hex="0042"/>
	<advance width="617"/>
	<outline>
		<contour>
			<point x="281.125" y="296.125" type="curve" smooth="yes"/>
			<point x="216.5" y="296.125" type="line"/>
			<point x="216.5" y="142.5" type="line"/>
			<point x="276.875" y="142.5" type="line" smooth="yes"/>
			<point x="336.375" y="142.5"/>
			<point x="376.875" y="169.25"/>
			<point x="376.875" y="227.25" type="curve" smooth="yes"/>
			<point x="376.875" y="273.875"/>
			<point x="344.75" y="296.125"/>
		</contour>
		<contour>
			<point x="278.5" y="537.5" type="curve" smooth="yes"/>
			<point x="216.5" y="537.5" type="line"/>
			<point x="216.5" y="438.625" type="line"/>
			<point x="281.125" y="438.625" type="line" smooth="yes"/>
			<point x="308.75" y="438.625"/>
			<point x="328.75" y="457.75"/>
			<point name=".hr01" x="328.75" y="486.875" type="curve" smooth="yes"/>
			<point x="328.75" y="514"/>
			<point x="316.375" y="537.5"/>
		</contour>
		<contour>
			<point x="276.875" y="0" type="curve" smooth="yes"/>
			<point x="56.25" y="0" type="line"/>
			<point x="56.25" y="680" type="line"/>
			<point x="278.5" y="680" type="line" smooth="yes"/>
			<point x="418.125" y="680"/>
			<point x="489" y="613.25"/>
			<point x="489" y="511.375" type="curve" smooth="yes"/>
			<point x="489" y="459.75"/>
			<point x="458.75" y="400.25"/>
			<point x="395.75" y="373.875" type="curve"/>
			<point x="473.75" y="359.875"/>
			<point x="537.125" y="300.375"/>
			<point x="537.125" y="216.75" type="curve" smooth="yes"/>
			<point name=".hr02" x="537.125" y="94.75"/>
			<point x="469.625" y="0"/>
		</contour>
	</outline>
	<anchor name="top" x="271.75" y="740"/>
</glyph>
<glyph name="C" format="2">
	<unicode hex="0043"/>
	<advance width="653"/>
	<outline>
		<contour>
			<point x="349.25" y="547.5" type="curve" smooth="yes"/>
			<point x="255.875" y="547.5"/>
			<point x="196.5" y="466.125"/>
			<point x="196.5" y="340" type="curve" smooth="yes"/>
			<point x="196.5" y="213.875"/>
			<point x="255.875" y="132.5"/>
			<point x="349.25" y="132.5" type="curve" smooth="yes"/>
			<point x="408.5" y="132.5"/>
			<point x="460" y="167.75"/>
			<point x="471.875" y="219" type="curve"/>
			<point x="614.375" y="219" type="line"/>
			<point x="592.75" y="79.625"/>
			<point x="488.375" y="-10"/>
			<point x="349.25" y="-10" type="curve" smooth="yes"/>
			<point x="148.75" y="-10"/>
			<point x="36.25" y="115.625"/>
			<point x="36.25" y="340" type="curve" smooth="yes"/>
			<point x="36.25" y="564.375"/>
			<point x="148.75" y="690"/>
			<point x="349.25" y="690" type="curve" smooth="yes"/>
			<point x="494.25" y="690"/>
			<point x="593.875" y="595.5"/>
			<point x="616.25" y="445.25" type="curve"/>
			<point x="473.75" y="445.25" type="line"/>
			<point x="460.25" y="512.875"/>
			<point x="413.125" y="547.5"/>
		</contour>
	</outline>
	<anchor name="top" x="344.25" y="740"/>
</glyph>
<glyph name="D" format="2">
	<unicode hex="0044"/>
	<advance width="639"/>
	<outline>
		<contour>
			<point x="216.5" y="537.5" type="line"/>
			<point x="216.5" y="142.5" type="line"/>
			<point x="305.5" y="142.5" type="line" smooth="yes"/>
			<point x="385" y="142.5"/>
			<point x="442.375" y="223.5"/>
			<point x="442.375" y="340" type="curve" smooth="yes"/>
			<point x="442.375" y="488"/>
			<point x="387" y="537.5"/>
			<point x="305.5" y="537.5" type="curve" smooth="yes"/>
		</contour>
		<contour>
			<point x="56.25" y="680" type="line"/>
			<point x="305.5" y="680" type="line" smooth="yes"/>
			<point x="495.5" y="680"/>
			<point x="602.5" y="560.25"/>
			<point x="602.5" y="340" type="curve" smooth="yes"/>
			<point x="602.5" y="117.125"/>
			<point x="496.375" y="0"/>
			<point x="305.5" y="0" type="curve" smooth="yes"/>
			<point x="56.25" y="0" type="line"/>
		</contour>
	</outline>
	<anchor name="top" x="296.75" y="740"/>
</glyph>
<glyph name="E" format="2">
	<unicode hex="0045"/>
	<advance width="510"/>
	<outline>
		<contour>
			<point x="420" y="278.75" type="line"/>
			<point x="216.5" y="278.75" type="line"/>
			<point x="216.5" y="133.75" type="line"/>
			<point x="460" y="133.75" type="line"/>
			<point x="460" y="0" type="line"/>
			<point x="56.25" y="0" type="line"/>
			<point x="56.25" y="680" type="line"/>
			<point x="460" y="680" type="line"/>
			<point x="460" y="546.25" type="line"/>
			<point x="216.5" y="546.25" type="line"/>
			<point x="216.5" y="412.5" type="line"/>
			<point x="420" y="412.5" type="line"/>
		</contour>
	</outline>
	<anchor name="top" x="263" y="740"/>
</glyph>
<glyph name="F" format="2">
	<unicode hex="0046"/>
	<advance width="510"/>
	<outline>
		<contour>
			<point x="420" y="278.75" type="line"/>
			<point x="216.5" y="278.75" type="line"/>
			<point x="216.5" y="0" type="line"/>
			<point x="56.25" y="0" type="line"/>
			<point x="56.25" y="680" type="line"/>
			<point x="460" y="680" type="line"/>
			<point x="460" y="546.25" type="line"/>
			<point x="216.5" y="546.25" type="line"/>
			<point x="216.5" y="412.5" type="line"/>
			<point x="420" y="412.5" type="line"/>
		</contour>
	</outline>
	<anchor name="top" x="263" y="740"/>
</glyph>
<glyph name="G" format="2">
	<unicode hex="0047"/>
	<advance width="655"/>
	<outline>
		<contour>
			<point x="349.25" y="547.5" type="curve" smooth="yes"/>
			<point x="255.875" y="547.5"/>
			<point x="196.5" y="466.125"/>
			<point x="196.5" y="340" type="curve" smooth="yes"/>
			<point x="196.5" y="213.875"/>
			<point x="255.875" y="132.5"/>
			<point x="349.25" y="132.5" type="curve" smooth="yes"/>
			<point x="404" y="132.5"/>
			<point x="450.875" y="159.625"/>
			<point x="474.25" y="204.375" type="curve"/>
			<point x="474.25" y="236.25" type="line"/>
			<point x="352.125" y="236.25" type="line"/>
			<point x="352.125" y="343.75" type="line"/>
			<point x="608.25" y="343.75" type="line"/>
			<point x="608.25" y="0" type="line"/>
			<point x="474.25" y="0" type="line"/>
			<point x="474.25" y="34.25" type="line"/>
			<point x="446.625" y="9"/>
			<point x="393.125" y="-10"/>
			<point x="349.25" y="-10" type="curve" smooth="yes"/>
			<point x="148.75" y="-10"/>
			<point x="36.25" y="115.625"/>
			<point x="36.25" y="340" type="curve" smooth="yes"/>
			<point x="36.25" y="564.375"/>
			<point x="148.75" y="690"/>
			<point x="349.25" y="690" type="curve" smooth="yes"/>
			<point x="494.25" y="690"/>
			<point x="593.875" y="595.5"/>
			<point x="616.25" y="445.25" type="curve"/>
			<point x="473.75" y="445.25" type="line"/>
			<point x="460.25" y="512.875"/>
			<point x="413.125" y="547.5"/>
		</contour>
	</outline>
	<anchor name="top" x="343" y="740"/>
</glyph>
<glyph name="H" format="2">
	<unicode hex="0048"/>
	<advance width="653"/>
	<outline>
		<contour>
			<point x="596.5" y="680" type="line"/>
			<point x="596.5" y="0" type="line"/>
			<point x="436.25" y="0" type="line"/>
			<point x="436.25" y="267" type="line"/>
			<point x="216.5" y="267" type="line"/>
			<point x="216.5" y="0" type="line"/>
			<point x="56.25" y="0" type="line"/>
			<point x="56.25" y="680" type="line"/>
			<point x="216.5" y="680" type="line"/>
			<point x="216.5" y="409.5" type="line"/>
			<point x="436.25" y="409.5" type="line"/>
			<point x="436.25" y="680" type="line"/>
		</contour>
	</outline>
	<anchor name="top" x="328.875" y="740"/>
</glyph>
<glyph name="I" format="2">
	<unicode hex="0049"/>
	<advance width="273"/>
	<outline>
		<contour>
			<point x="216.5" y="0" type="line"/>
			<point x="56.25" y="0" type="line"/>
			<point x="56.25" y="680" type="line"/>
			<point x="216.5" y="680" type="line"/>
		</contour>
	</outline>
	<anchor name="top" x="135.375" y="740"/>
</glyph>
<glyph name="J" format="2">
	<unicode hex="004A"/>
	<advance width="365"/>
	<outline>
		<contour>
			<point x="117.75" y="0" type="curve" smooth="yes"/>
			<point x="50" y="0" type="line"/>
			<point x="50" y="142.5" type="line"/>
			<point x="76" y="142.5" type="line" smooth="yes"/>
			<point x="116" y="142.5"/>
			<point x="148" y="164.75"/>
			<point x="148" y="228.75" type="curve" smooth="yes"/>
			<point x="148" y="680" type="line"/>
			<point x="308.25" y="680" type="line"/>
			<point x="308.25" y="234" type="line" smooth="yes"/>
			<point x="308.25" y="103.75"/>
			<point x="275" y="0"/>
		</contour>
	</outline>
	<anchor name="top" x="221.875" y="740"/>
</glyph>
<glyph name="K" format="2">
	<unicode hex="004B"/>
	<advance width="683"/>
	<outline>
		<contour>
			<point x="216.5" y="243.125" type="line"/>
			<point x="216.5" y="0" type="line"/>
			<point x="56.25" y="0" type="line"/>
			<point x="56.25" y="680" type="line"/>
			<point x="216.5" y="680" type="line"/>
			<point x="216.5" y="374.625" type="line"/>
			<point x="281.875" y="391.625" type="line"/>
			<point x="455" y="680" type="line"/>
			<point x="633.25" y="680" type="line"/>
			<point x="433.25" y="350" type="line"/>
			<point x="673.25" y="0" type="line"/>
			<point x="477.5" y="0" type="line"/>
			<point x="298.25" y="268.375" type="line"/>
		</contour>
	</outline>
	<anchor name="top" x="303.375" y="740"/>
</glyph>
<glyph name="L" format="2">
	<unicode hex="004C"/>
	<advance width="516"/>
	<outline>
		<contour>
			<point x="216.5" y="680" type="line"/>
			<point x="216.5" y="142.5" type="line"/>
			<point x="493.875" y="142.5" type="line"/>
			<point x="493.875" y="0" type="line"/>
			<point x="56.25" y="0" type="line"/>
			<point x="56.25" y="680" type="line"/>
		</contour>
	</outline>
	<anchor name="top" x="137.125" y="740"/>
</glyph>
<glyph name="M" format="2">
	<unicode hex="004D"/>
	<advance width="872"/>
	<outline>
		<contour>
			<point x="815.5" y="680" type="line"/>
			<point x="815.5" y="0" type="line"/>
			<point x="655.25" y="0" type="line"/>
			<point x="655.25" y="320.75" type="line"/>
			<point x="529.125" y="0" type="line"/>
			<point x="340.875" y="0" type="line"/>
			<point x="216.5" y="318.125" type="line"/>
			<point x="216.5" y="0" type="line"/>
			<point x="56.25" y="0" type="line"/>
			<point x="56.25" y="680" type="line"/>
			<point x="234.25" y="680" type="line"/>
			<point x="391" y="303.125" type="line" smooth="yes"/>
			<point x="404.875" y="269.625"/>
			<point x="421.375" y="221.875"/>
			<point x="435.875" y="174.5" type="curve"/>
			<point x="450.375" y="221.875"/>
			<point x="466.875" y="269.625"/>
			<point x="480.75" y="303.125" type="curve" smooth="yes"/>
			<point x="637.5" y="680" type="line"/>
		</contour>
	</outline>
	<anchor name="top" x="446.125" y="740"/>
</glyph>
<glyph name="N" format="2">
	<unicode hex="004E"/>
	<advance width="702"/>
	<outline>
		<contour>
			<point x="216.5" y="352.5" type="curve" smooth="yes"/>
			<point x="216.5" y="0" type="line"/>
			<point x="56.25" y="0" type="line"/>
			<point x="56.25" y="680" type="line"/>
			<point x="234.25" y="680" type="line"/>
			<point x="488.375" y="260.125" type="line"/>
			<point x="485.5" y="285.875"/>
			<point x="485.5" y="309.625"/>
			<point x="485.5" y="327.5" type="curve" smooth="yes"/>
			<point x="485.5" y="680" type="line"/>
			<point x="645.75" y="680" type="line"/>
			<point x="645.75" y="0" type="line"/>
			<point x="467.75" y="0" type="line"/>
			<point x="213.625" y="419.875" type="line"/>
			<point x="216.5" y="394.125"/>
			<point x="216.5" y="370.375"/>
		</contour>
	</outline>
	<anchor name="top" x="346.625" y="740"/>
</glyph>
<glyph name="O" format="2">
	<unicode hex="004F"/>
	<advance width="699"/>
	<outline>
		<contour>
			<point x="349.25" y="547.5" type="curve" smooth="yes"/>
			<point x="255.875" y="547.5"/>
			<point x="196.5" y="466.125"/>
			<point x="196.5" y="340" type="curve" smooth="yes"/>
			<point x="196.5" y="213.875"/>
			<point x="255.875" y="132.5"/>
			<point x="349.25" y="132.5" type="curve" smooth="yes"/>
			<point x="442.625" y="132.5"/>
			<point x="502" y="213.875"/>
			<point x="502" y="340" type="curve" smooth="yes"/>
			<point x="502" y="466.125"/>
			<point x="442.625" y="547.5"/>
		</contour>
		<contour>
			<point x="349.25" y="-10" type="curve" smooth="yes"/>
			<point x="148.75" y="-10"/>
			<point x="36.25" y="115.625"/>
			<point x="36.25" y="340" type="curve" smooth="yes"/>
			<point x="36.25" y="564.375"/>
			<point x="148.75" y="690"/>
			<point x="349.25" y="690" type="curve" smooth="yes"/>
			<point x="549.75" y="690"/>
			<point x="662.25" y="564.375"/>
			<point x="662.25" y="340" type="curve" smooth="yes"/>
			<point x="662.25" y="115.625"/>
			<point x="549.75" y="-10"/>
		</contour>
	</outline>
	<anchor name="top" x="343.875" y="740"/>
</glyph>
<glyph name="P" format="2">
	<unicode hex="0050"/>
	<advance width="580"/>
	<outline>
		<contour>
			<point x="291.875" y="537.5" type="curve" smooth="yes"/>
			<point x="216.5" y="537.5" type="line"/>
			<point x="216.5" y="370" type="line"/>
			<point x="291.875" y="370" type="line" smooth="yes"/>
			<point x="344.375" y="370"/>
			<point x="386" y="397"/>
			<point x="386" y="460.75" type="curve" smooth="yes"/>
			<point x="386" y="512.25"/>
			<point x="342.875" y="537.5"/>
		</contour>
		<contour>
			<point x="288.125" y="227.5" type="curve" smooth="yes"/>
			<point x="216.5" y="227.5" type="line"/>
			<point x="216.5" y="0" type="line"/>
			<point x="56.25" y="0" type="line"/>
			<point x="56.25" y="680" type="line"/>
			<point x="288.125" y="680" type="line" smooth="yes"/>
			<point x="428.125" y="680"/>
			<point x="528.75" y="619.5"/>
			<point x="528.75" y="460.75" type="curve" smooth="yes"/>
			<point x="528.75" y="308.875"/>
			<point x="436.75" y="227.5"/>
		</contour>
	</outline>
	<anchor name="top" x="263" y="740"/>
</glyph>
<glyph name="Q" format="2">
	<unicode hex="0051"/>
	<advance width="699"/>
	<outline>
		<component base="O"/>
		<contour>
			<point x="656" y="2" type="line"/>
			<point x="570.375" y="-69.75" type="line"/>
			<point x="331.625" y="183.875" type="line"/>
			<point x="417.25" y="255.625" type="line"/>
		</contour>
	</outline>
	<anchor name="top" x="344.25" y="740"/>
</glyph>
<glyph name="S" format="2">
	<unicode hex="0053"/>
	<advance width="589"/>
	<outline>
		<contour>
			<point x="36.25" y="219.25" type="curve"/>
			<point x="205.25" y="219.25" type="line"/>
			<point x="205.25" y="170.375"/>
			<point x="236.375" y="132.5"/>
			<point x="294.375" y="132.5" type="curve" smooth="yes"/>
			<point x="354.25" y="132.5"/>
			<point x="383.25" y="158.25"/>
			<point x="383.25" y="191.875" type="curve" smooth="yes"/>
			<point x="383.25" y="225.25"/>
			<point x="365.625" y="249.375"/>
			<point x="335.125" y="263" type="curve"/>
			<point x="148.5" y="359.625" type="line" smooth="yes"/>
			<point x="91.875" y="388.5"/>
			<point name=".hr01" x="54.375" y="433"/>
			<point x="54.375" y="496.625" type="curve" smooth="yes"/>
			<point x="54.375" y="613.875"/>
			<point x="144.375" y="690"/>
			<point x="299.875" y="690" type="curve" smooth="yes"/>
			<point x="444" y="690"/>
			<point x="550.25" y="592.75"/>
			<point x="550.25" y="483.5" type="curve"/>
			<point x="381.25" y="483.5" type="line"/>
			<point x="381.25" y="517.875"/>
			<point x="353.625" y="547.5"/>
			<point x="290.125" y="547.5" type="curve" smooth="yes"/>
			<point x="245.125" y="547.5"/>
			<point x="223.375" y="533.625"/>
			<point x="223.375" y="497.5" type="curve" smooth="yes"/>
			<point x="223.375" y="476.625"/>
			<point x="235.125" y="461.875"/>
			<point x="268.625" y="446.25" type="curve"/>
			<point x="445.625" y="356.5" type="line" smooth="yes"/>
			<point x="515.375" y="321.875"/>
			<point x="552.25" y="271.625"/>
			<point x="552.25" y="188.875" type="curve" smooth="yes"/>
			<point x="552.25" y="67.75"/>
			<point x="460" y="-10"/>
			<point x="288.625" y="-10" type="curve" smooth="yes"/>
			<point x="139.875" y="-10"/>
			<point name=".hr02" x="36.25" y="88"/>
		</contour>
	</outline>
	<anchor name="top" x="276.125" y="740"/>
</glyph>
<glyph name="T" format="2">
	<unicode hex="0054"/>
	<advance width="480"/>
	<outline>
		<contour>
			<point x="320.125" y="537.5" type="line"/>
			<point x="320.125" y="0" type="line"/>
			<point x="159.875" y="0" type="line"/>
			<point x="159.875" y="537.5" type="line"/>
			<point x="10" y="537.5" type="line"/>
			<point x="10" y="680" type="line"/>
			<point x="470" y="680" type="line"/>
			<point x="470" y="537.5" type="line"/>
		</contour>
	</outline>
	<anchor name="top" x="232.875" y="740"/>
</glyph>
<glyph name="U" format="2">
	<unicode hex="0055"/>
	<advance width="630"/>
	<outline>
		<contour>
			<point x="50" y="265" type="curve" smooth="yes"/>
			<point x="50" y="680" type="line"/>
			<point x="210" y="680" type="line"/>
			<point x="210" y="302.5" type="line" smooth="yes"/>
			<point x="210" y="194.625"/>
			<point x="237.5" y="141.25"/>
			<point x="315" y="141.25" type="curve" smooth="yes"/>
			<point x="392.5" y="141.25"/>
			<point x="420" y="194.625"/>
			<point x="420" y="302.5" type="curve" smooth="yes"/>
			<point x="420" y="680" type="line"/>
			<point x="580" y="680" type="line"/>
			<point x="580" y="265" type="line" smooth="yes"/>
			<point x="580" y="84"/>
			<point x="482.5" y="-10"/>
			<point x="315" y="-10" type="curve" smooth="yes"/>
			<point x="147.5" y="-10"/>
			<point x="50" y="84"/>
		</contour>
	</outline>
	<anchor name="top" x="317.625" y="740"/>
</glyph>
<glyph name="V" format="2">
	<unicode hex="0056"/>
	<advance width="629"/>
	<outline>
		<contour>
			<point x="341.75" y="303.125" type="curve" smooth="yes"/>
			<point x="458.5" y="680" type="line"/>
			<point x="618.75" y="680" type="line"/>
			<point x="407.625" y="0" type="line"/>
			<point x="219.375" y="0" type="line"/>
			<point x="10" y="680" type="line"/>
			<point x="170.25" y="680" type="line"/>
			<point x="287" y="303.125" type="line" smooth="yes"/>
			<point x="296.5" y="271.25"/>
			<point x="306" y="229.5"/>
			<point x="314.375" y="186.375" type="curve"/>
			<point x="322.75" y="229.5"/>
			<point x="332.25" y="271.25"/>
		</contour>
	</outline>
	<anchor name="top" x="320.375" y="740"/>
</glyph>
<glyph name="W" format="2">
	<unicode hex="0057"/>
	<advance width="1077"/>
	<outline>
		<contour>
			<point x="790.25" y="303.125" type="curve" smooth="yes"/>
			<point x="907" y="680" type="line"/>
			<point x="1067.25" y="680" type="line"/>
			<point x="856.125" y="0" type="line"/>
			<point x="667.875" y="0" type="line"/>
			<point x="538.625" y="419.375" type="line"/>
			<point x="407.625" y="0" type="line"/>
			<point x="219.375" y="0" type="line"/>
			<point x="10" y="680" type="line"/>
			<point x="170.25" y="680" type="line"/>
			<point x="287" y="303.125" type="line" smooth="yes"/>
			<point x="296.5" y="271.25"/>
			<point x="306" y="229.5"/>
			<point x="314.375" y="186.375" type="curve"/>
			<point x="322.75" y="229.5"/>
			<point x="332.25" y="271.25"/>
			<point x="341.75" y="303.125" type="curve" smooth="yes"/>
			<point x="458.5" y="680" type="line"/>
			<point x="618.75" y="680" type="line"/>
			<point x="735.5" y="303.125" type="line" smooth="yes"/>
			<point x="745" y="271.25"/>
			<point x="754.5" y="229.5"/>
			<point x="762.875" y="186.375" type="curve"/>
			<point x="771.25" y="229.5"/>
			<point x="780.75" y="271.25"/>
		</contour>
	</outline>
	<anchor name="top" x="541.125" y="740"/>
</glyph>
<glyph name="X" format="2">
	<unicode hex="0058"/>
	<advance width="662"/>
	<outline>
		<contour>
			<point x="626.5" y="680" type="line"/>
			<point x="425.75" y="336" type="line"/>
			<point x="623" y="0" type="line"/>
			<point x="429.75" y="0" type="line"/>
			<point x="329.5" y="172.125" type="line"/>
			<point x="228.375" y="0" type="line"/>
			<point x="37.75" y="0" type="line"/>
			<point x="234.25" y="335.125" type="line"/>
			<point x="32.5" y="680" type="line"/>
			<point x="224" y="680" type="line"/>
			<point x="330.375" y="498.125" type="line"/>
			<point x="437.625" y="680" type="line"/>
		</contour>
	</outline>
	<anchor name="top" x="333.125" y="740"/>
</glyph>
<glyph name="Y" format="2">
	<unicode hex="0059"/>
	<advance width="594"/>
	<outline>
		<contour>
			<point x="216.875" y="222.5" type="line"/>
			<point x="4.875" y="680" type="line"/>
			<point x="169.5" y="680" type="line"/>
			<point x="296" y="406.75" type="line"/>
			<point x="298" y="406.75" type="line"/>
			<point x="429" y="680" type="line"/>
			<point x="589.25" y="680" type="line"/>
			<point x="377.125" y="222.5" type="line"/>
			<point x="377.125" y="0" type="line"/>
			<point x="216.875" y="0" type="line"/>
		</contour>
	</outline>
	<anchor name="top" x="297.375" y="740"/>
</glyph>
<glyph name="Z" format="2">
	<unicode hex="005A"/>
	<advance width="602"/>
	<outline>
		<contour>
			<point x="571.25" y="142.5" type="line"/>
			<point x="571.25" y="0" type="line"/>
			<point x="44.875" y="0" type="line"/>
			<point x="44.875" y="71.75" type="line"/>
			<point x="331.75" y="537.5" type="line"/>
			<point x="63.75" y="537.5" type="line"/>
			<point x="63.75" y="680" type="line"/>
			<point x="567" y="680" type="line"/>
			<point x="567" y="608.25" type="line"/>
			<point x="280.25" y="142.5" type="line"/>
		</contour>
	</outline>
	<anchor name="top" x="301.375" y="740"/>
</glyph>
<glyph name="bracketleft" format="2">
	<unicode hex="005B"/>
	<advance width="448"/>
	<outline>
		<contour>
			<point x="70" y="867.5" type="line"/>
			<point x="377.5" y="867.5" type="line"/>
			<point x="377.5" y="725" type="line"/>
			<point x="230" y="725" type="line"/>
			<point x="230" y="-26" type="line"/>
			<point x="377.5" y="-26" type="line"/>
			<point x="377.5" y="-168.5" type="line"/>
			<point x="70" y="-168.5" type="line"/>
		</contour>
	</outline>
</glyph>
<glyph name="backslash" format="2">
	<unicode hex="005C"/>
	<advance width="585"/>
	<outline>
		<contour>
			<point x="372" y="0" type="line"/>
			<point x="25" y="700" type="line"/>
			<point x="209" y="700" type="line"/>
			<point x="559.5" y="0" type="line"/>
		</contour>
	</outline>
</glyph>
<glyph name="bracketright" format="2">
	<unicode hex="005D"/>
	<advance width="448"/>
	<outline>
		<contour>
			<point x="70" y="-168.5" type="line"/>
			<point x="70" y="-26" type="line"/>
			<point x="217.5" y="-26" type="line"/>
			<point x="217.5" y="725" type="line"/>
			<point x="70" y="725" type="line"/>
			<point x="70" y="867.5" type="line"/>
			<point x="377.5" y="867.5" type="line"/>
			<point x="377.5" y="-168.5" type="line"/>
		</contour>
	</outline>
</glyph>
<glyph name="asciicircum" format="2">
	<unicode hex="005E"/>
	<advance width="623"/>
	<outline>
		<contour>
			<point x="41.125" y="520" type="line"/>
			<point x="207.375" y="800" type="line"/>
			<point x="415.125" y="800" type="line"/>
			<point x="581.375" y="520" type="line"/>
			<point x="406.625" y="520" type="line"/>
			<point x="292.125" y="699.5" type="line"/>
			<point x="339.125" y="699.5" type="line"/>
			<point x="224.625" y="520" type="line"/>
		</contour>
	</outline>
</glyph>
<glyph name="grave" format="2">
	<unicode hex="0060"/>
	<advance width="312"/>
	<outline>
		<contour>
			<point x="128.25" y="520" type="line"/>
			<point x="32.5" y="717.5" type="line"/>
			<point x="223.5" y="717.5" type="line"/>
			<point x="273.5" y="520" type="line"/>
		</contour>
	</outline>
</glyph>
<glyph name="a" format="2">
	<unicode hex="0061"/>
	<advance width="551"/>
	<outline>
		<contour>
			<point x="53.75" y="123" type="curve" smooth="yes"/>
			<point x="53.75" y="209.375"/>
			<point x="129.5" y="264.125"/>
			<point x="264.875" y="278.875" type="curve" smooth="yes"/>
			<point x="351.75" y="289.125" type="line"/>
			<point x="351.75" y="226.75" type="line"/>
			<point x="293.75" y="212.75" type="line" smooth="yes"/>
			<point name=".hr01" x="238" y="199.25"/>
			<point name=".hr02" x="222.5" y="179.125"/>
			<point x="222.5" y="142" type="curve" smooth="yes"/>
			<point x="222.5" y="117.875"/>
			<point x="241.25" y="97.5"/>
			<point x="268.875" y="97.5" type="curve" smooth="yes"/>
			<point x="291.5" y="97.5"/>
			<point x="321.25" y="111.5"/>
			<point x="342" y="134" type="curve" smooth="yes"/>
			<point x="361.625" y="156.25" type="line"/>
			<point x="361.625" y="53.5" type="line"/>
			<point x="338.125" y="53.5" type="line"/>
			<point x="298.375" y="12.75"/>
			<point x="254.875" y="-13.5"/>
			<point x="190.75" y="-13.5" type="curve" smooth="yes"/>
			<point x="109.75" y="-13.5"/>
			<point x="53.75" y="44"/>
		</contour>
		<contour>
			<point x="360.25" y="0" type="line"/>
			<point x="342" y="54" type="line"/>
			<point x="342" y="315" type="line" smooth="yes"/>
			<point x="342" y="351.25"/>
			<point x="322.75" y="375.625"/>
			<point x="287" y="375.625" type="curve" smooth="yes"/>
			<point x="260.75" y="375.625"/>
			<point x="243" y="354.75"/>
			<point x="238.75" y="330" type="curve"/>
			<point name=".hr03" x="75.25" y="330" type="line"/>
			<point x="82.375" y="412.25"/>
			<point x="155.625" y="473.5"/>
			<point x="293" y="473.5" type="curve" smooth="yes"/>
			<point x="439.125" y="473.5"/>
			<point x="502" y="399.625"/>
			<point x="502" y="306.5" type="curve" smooth="yes"/>
			<point x="502" y="0" type="line"/>
		</contour>
	</outline>
	<anchor name="top" x="293.5" y="520"/>
</glyph>
<glyph name="b" format="2">
	<unicode hex="0062"/>
	<advance width="600"/>
	<outline>
		<contour>
			<point x="208.125" y="234.5" type="curve" smooth="yes"/>
			<point x="208.125" y="208.5" type="line" smooth="yes"/>
			<point x="208.125" y="126.75"/>
			<point x="245" y="97.5"/>
			<point x="286.875" y="97.5" type="curve" smooth="yes"/>
			<point x="337.5" y="97.5"/>
			<point x="367" y="136"/>
			<point x="367" y="231.5" type="curve" smooth="yes"/>
			<point x="367" y="333.625"/>
			<point x="335.25" y="362.5"/>
			<point x="282.5" y="362.5" type="curve" smooth="yes"/>
			<point x="230.625" y="362.5"/>
			<point x="208.125" y="314.375"/>
		</contour>
		<contour>
			<point x="198.25" y="79.875" type="line"/>
			<point x="195.625" y="381.875" type="line"/>
			<point x="208.125" y="399.875" type="line" smooth="yes"/>
			<point x="238.5" y="446.125"/>
			<point x="276.125" y="473.5"/>
			<point x="344.625" y="473.5" type="curve" smooth="yes"/>
			<point x="455.625" y="473.5"/>
			<point x="535.75" y="398.875"/>
			<point x="535.75" y="231.5" type="curve" smooth="yes"/>
			<point x="535.75" y="87.25"/>
			<point x="448.125" y="-13.5"/>
			<point x="341.125" y="-13.5" type="curve" smooth="yes"/>
			<point x="276.625" y="-13.5"/>
			<point x="244.625" y="13.5"/>
			<point x="208.125" y="79.875" type="curve"/>
		</contour>
		<contour>
			<point x="48.125" y="0" type="line"/>
			<point x="48.125" y="700" type="line"/>
			<point x="208.125" y="700" type="line"/>
			<point x="208.125" y="79.875" type="line"/>
			<point x="206.125" y="79.875" type="line"/>
			<point x="188.875" y="0" type="line"/>
		</contour>
	</outline>
</glyph>
<glyph name="h" format="2">
	<unicode hex="0068"/>
	<advance width="579"/>
	<outline>
		<contour>
			<point x="194" y="274.625" type="line"/>
			<point x="194" y="379.5" type="line"/>
			<point x="215" y="379.5" type="line"/>
			<point x="257.625" y="443.125"/>
			<point x="308.75" y="473.5"/>
			<point x="370.625" y="473.5" type="curve" smooth="yes"/>
			<point x="476.75" y="473.5"/>
			<point x="524.375" y="420.125"/>
			<point x="524.375" y="301" type="curve" smooth="yes"/>
			<point x="524.375" y="0" type="line"/>
			<point x="364.375" y="0" type="line"/>
			<point x="364.375" y="251.125" type="line" smooth="yes"/>
			<point x="364.375" y="320.125"/>
			<point x="339.25" y="349"/>
			<point x="297.75" y="349" type="curve" smooth="yes"/>
			<point x="256.875" y="349"/>
			<point x="225.5" y="320"/>
			<point x="215" y="274.625" type="curve"/>
		</contour>
		<contour>
			<point x="55" y="0" type="line"/>
			<point x="55" y="700" type="line"/>
			<point x="215" y="700" type="line"/>
			<point x="215" y="0" type="line"/>
		</contour>
	</outline>
</glyph>
<glyph name="i" format="2">
	<unicode hex="0069"/>
	<advance width="290"/>
	<outline>
		<contour>
			<point x="225" y="0" type="line"/>
			<point x="65" y="0" type="line"/>
			<point x="65" y="460" type="line"/>
			<point x="225" y="460" type="line"/>
		</contour>
		<contour>
			<point x="225" y="520" type="line"/>
			<point x="65" y="520" type="line"/>
			<point x="65" y="678.75" type="line"/>
			<point x="225" y="678.75" type="line"/>
		</contour>
	</outline>
</glyph>
<glyph name="k" format="2">
	<unicode hex="006B"/>
	<advance width="636"/>
	<outline>
		<contour>
			<point x="205" y="151.375" type="line"/>
			<point x="205" y="313.25" type="line"/>
			<point x="233.875" y="321.375" type="line"/>
			<point x="329.25" y="460" type="line"/>
			<point x="529.375" y="460" type="line"/>
			<point x="383.375" y="262.625" type="line"/>
			<point x="536.25" y="0" type="line"/>
			<point x="340.625" y="0" type="line"/>
			<point x="249.125" y="163.875" type="line"/>
		</contour>
		<contour>
			<point x="45" y="0" type="line"/>
			<point x="45" y="700" type="line"/>
			<point x="205" y="700" type="line"/>
			<point x="205" y="0" type="line"/>
		</contour>
	</outline>
</glyph>
<glyph name="l" format="2">
	<unicode hex="006C"/>
	<advance width="270"/>
	<outline>
		<contour>
			<point x="215" y="0" type="line"/>
			<point x="55" y="0" type="line"/>
			<point x="55" y="700" type="line"/>
			<point x="215" y="700" type="line"/>
		</contour>
	</outline>
</glyph>
<glyph name="m" format="2">
	<unicode hex="006D"/>
	<advance width="786"/>
	<outline>
		<contour>
			<point x="135" y="310" type="curve"/>
			<point x="135" y="0" type="line"/>
			<point x="55" y="0" type="line"/>
			<point x="55" y="460" type="line"/>
			<point x="115" y="460" type="line"/>
			<point x="131" y="379" type="line"/>
			<point x="165" y="425"/>
			<point x="211" y="470"/>
			<point x="283" y="470" type="curve" smooth="yes"/>
			<point x="377" y="470"/>
			<point x="412" y="424"/>
			<point x="425" y="374" type="curve"/>
			<point x="459" y="422"/>
			<point x="506" y="470"/>
			<point x="581" y="470" type="curve" smooth="yes"/>
			<point x="725" y="470"/>
			<point x="731" y="362"/>
			<point x="731" y="295" type="curve" smooth="yes"/>
			<point x="731" y="0" type="line"/>
			<point x="651" y="0" type="line"/>
			<point x="651" y="295" type="line" smooth="yes"/>
			<point x="651" y="339"/>
			<point x="642" y="405"/>
			<point x="559" y="405" type="curve" smooth="yes"/>
			<point x="517" y="405"/>
			<point x="457" y="372"/>
			<point x="433" y="309" type="curve"/>
			<point x="433" y="304"/>
			<point x="433" y="300"/>
			<point x="433" y="295" type="curve" smooth="yes"/>
			<point x="433" y="0" type="line"/>
			<point x="353" y="0" type="line"/>
			<point x="353" y="295" type="line" smooth="yes"/>
			<point x="353" y="339"/>
			<point x="344" y="405"/>
			<point x="261" y="405" type="curve" smooth="yes"/>
			<point x="219" y="405"/>
			<point x="159" y="372"/>
		</contour>
	</outline>
</glyph>
<glyph name="n" format="2">
	<unicode hex="006E"/>
	<advance width="579"/>
	<outline>
		<contour>
			<point x="194" y="274.625" type="line"/>
			<point x="194" y="379.5" type="line"/>
			<point x="215" y="379.5" type="line"/>
			<point x="257.625" y="443.125"/>
			<point x="308.75" y="473.5"/>
			<point x="370.625" y="473.5" type="curve" smooth="yes"/>
			<point x="476.75" y="473.5"/>
			<point x="524.375" y="420.125"/>
			<point x="524.375" y="301" type="curve" smooth="yes"/>
			<point x="524.375" y="0" type="line"/>
			<point x="364.375" y="0" type="line"/>
			<point x="364.375" y="251.125" type="line" smooth="yes"/>
			<point x="364.375" y="320.125"/>
			<point x="339.25" y="349"/>
			<point x="297.75" y="349" type="curve" smooth="yes"/>
			<point x="256.875" y="349"/>
			<point x="225.5" y="320"/>
			<point x="215" y="274.625" type="curve"/>
		</contour>
		<contour>
			<point x="55" y="0" type="line"/>
			<point x="55" y="460" type="line"/>
			<point x="197" y="460" type="line"/>
			<point x="211.375" y="379.5" type="line"/>
			<point x="215" y="379.5" type="line"/>
			<point x="215" y="0" type="line"/>
		</contour>
	</outline>
</glyph>
<glyph name="o" format="2">
	<unicode hex="006F"/>
	<advance width="576"/>
	<outline>
		<contour>
			<point x="199.375" y="230" type="curve" smooth="yes"/>
			<point x="199.375" y="125.125"/>
			<point x="239.25" y="80"/>
			<point x="288.125" y="80" type="curve" smooth="yes"/>
			<point x="337.75" y="80"/>
			<point x="376.875" y="120"/>
			<point x="376.875" y="230" type="curve" smooth="yes"/>
			<point x="376.875" y="334.875"/>
			<point x="337" y="380"/>
			<point x="288.125" y="380" type="curve" smooth="yes"/>
			<point x="238.5" y="380"/>
			<point x="199.375" y="340"/>
		</contour>
		<contour>
			<point x="30.625" y="230" type="curve" smooth="yes"/>
			<point x="30.625" y="371.375"/>
			<point x="115.25" y="473.5"/>
			<point x="288.125" y="473.5" type="curve" smooth="yes"/>
			<point x="462.75" y="473.5"/>
			<point x="545.625" y="372.125"/>
			<point x="545.625" y="230" type="curve" smooth="yes"/>
			<point x="545.625" y="88.625"/>
			<point x="461" y="-13.5"/>
			<point x="288.125" y="-13.5" type="curve" smooth="yes"/>
			<point x="113.5" y="-13.5"/>
			<point x="30.625" y="87.875"/>
		</contour>
	</outline>
	<anchor name="top" x="287.625" y="521.25"/>
</glyph>
<glyph name="p" format="2">
	<unicode hex="0070"/>
	<advance width="493"/>
	<outline>
		<contour>
			<point x="126.875" y="231.75" type="curve" smooth="yes"/>
			<point x="126.875" y="226" type="line" smooth="yes"/>
			<point x="126.875" y="123"/>
			<point x="177.875" y="55"/>
			<point x="246.875" y="55" type="curve" smooth="yes"/>
			<point x="339.875" y="55"/>
			<point x="377.875" y="123"/>
			<point x="377.875" y="231" type="curve" smooth="yes"/>
			<point x="377.875" y="306"/>
			<point x="358.875" y="405"/>
			<point x="246.875" y="405" type="curve" smooth="yes"/>
			<point x="163.875" y="405"/>
			<point x="126.875" y="315.75"/>
		</contour>
		<contour>
			<point x="46.875" y="-200" type="line"/>
			<point x="46.875" y="460" type="line"/>
			<point x="106.875" y="460" type="line"/>
			<point x="126.5" y="380.25" type="line"/>
			<point x="157.75" y="436"/>
			<point x="197.75" y="470"/>
			<point x="271.875" y="470" type="curve" smooth="yes"/>
			<point x="396.875" y="470"/>
			<point x="457.875" y="350"/>
			<point x="457.875" y="231" type="curve" smooth="yes"/>
			<point x="457.875" y="111"/>
			<point x="393.875" y="-10"/>
			<point x="267.875" y="-10" type="curve" smooth="yes"/>
			<point x="196.125" y="-10"/>
			<point x="156.875" y="20.625"/>
			<point x="126.875" y="72.875" type="curve"/>
			<point x="126.875" y="-200" type="line"/>
		</contour>
	</outline>
</glyph>
<glyph name="braceright" format="2">
	<unicode hex="007D"/>
	<advance width="324"/>
	<outline>
		<contour>
			<point x="40" y="-80" type="curve"/>
			<point x="40" y="-26" type="line"/>
			<point x="124" y="-26"/>
			<point x="134" y="12"/>
			<point x="134" y="101" type="curve" smooth="yes"/>
			<point x="134" y="234" type="line" smooth="yes"/>
			<point x="134" y="287"/>
			<point x="162" y="330"/>
			<point x="198" y="348" type="curve"/>
			<point x="155" y="374"/>
			<point x="134" y="409"/>
			<point x="134" y="460" type="curve" smooth="yes"/>
			<point x="134" y="628" type="line" smooth="yes"/>
			<point x="134" y="701"/>
			<point x="112" y="722"/>
			<point x="40" y="722" type="curve"/>
			<point x="40" y="780" type="line"/>
			<point x="83" y="780"/>
			<point x="146" y="774"/>
			<point x="179" y="749" type="curve" smooth="yes"/>
			<point x="210" y="725"/>
			<point x="214" y="682"/>
			<point x="214" y="615" type="curve" smooth="yes"/>
			<point x="214" y="468" type="line" smooth="yes"/>
			<point x="214" y="408"/>
			<point x="235" y="389"/>
			<point x="284" y="374" type="curve"/>
			<point x="284" y="326" type="line"/>
			<point x="232" y="312"/>
			<point x="214" y="287"/>
			<point x="214" y="230" type="curve" smooth="yes"/>
			<point x="214" y="97" type="line" smooth="yes"/>
			<point x="214" y="-55"/>
			<point x="180" y="-80"/>
		</contour>
	</outline>
</glyph>
<glyph name="asciitilde" format="2">
	<unicode hex="007E"/>
	<advance width="510"/>
	<outline>
		<contour>
			<point x="100" y="183" type="curve"/>
			<point x="50" y="183" type="line"/>
			<point x="74" y="270"/>
			<point name=".hr01" x="133" y="303"/>
			<point x="180" y="303" type="curve" smooth="yes"/>
			<point x="188" y="303"/>
			<point x="196" y="302"/>
			<point x="204" y="301" type="curve"/>
			<point x="252" y="293"/>
			<point name=".hr02" x="299" y="263"/>
			<point x="340" y="263" type="curve" smooth="yes"/>
			<point x="369" y="263"/>
			<point x="400" y="271"/>
			<point name=".hr03" x="410" y="303" type="curve"/>
			<point x="460" y="303" type="line"/>
			<point x="436" y="207"/>
			<point name=".hr04" x="387" y="183"/>
			<point x="340" y="183" type="curve" smooth="yes"/>
			<point x="286" y="183"/>
			<point name=".hr05" x="233" y="223"/>
			<point x="180" y="223" type="curve" smooth="yes"/>
			<point x="153" y="223"/>
			<point x="110" y="211"/>
		</contour>
	</outline>
</glyph>
<glyph name="sterling" format="2">
	<unicode hex="00A3"/>
	<advance width="495"/>
	<outline>
		<contour>
			<point x="44" y="-12" type="curve"/>
			<point x="13" y="63" type="line"/>
			<point x="75" y="94"/>
			<point x="113" y="166"/>
			<point x="113" y="233" type="curve" smooth="yes"/>
			<point x="113" y="260"/>
			<point x="109" y="273"/>
			<point x="106" y="287" type="curve"/>
			<point x="21" y="287" type="line"/>
			<point x="21" y="352" type="line"/>
			<point x="88" y="352" type="line"/>
			<point x="72" y="404"/>
			<point name=".hr01" x="66" y="433"/>
			<point x="66" y="466" type="curve" smooth="yes"/>
			<point x="66" y="591"/>
			<point x="166" y="648"/>
			<point x="263" y="648" type="curve" smooth="yes"/>
			<point x="355" y="648"/>
			<point x="429" y="599"/>
			<point x="452" y="500" type="curve" smooth="yes"/>
			<point x="456" y="483" type="line"/>
			<point x="377" y="472" type="line"/>
			<point x="366" y="547"/>
			<point x="319" y="584"/>
			<point x="262" y="584" type="curve" smooth="yes"/>
			<point x="191" y="584"/>
			<point x="150" y="530"/>
			<point x="150" y="477" type="curve" smooth="yes"/>
			<point x="150" y="433"/>
			<point x="163" y="386"/>
			<point x="174" y="352" type="curve"/>
			<point x="311" y="352" type="line"/>
			<point x="311" y="287" type="line"/>
			<point x="192" y="287" type="line"/>
			<point x="195" y="277"/>
			<point name=".hr02" x="197" y="262"/>
			<point x="197" y="249" type="curve" smooth="yes"/>
			<point x="197" y="186"/>
			<point x="162" y="129"/>
			<point x="118" y="85" type="curve"/>
			<point x="120" y="83" type="line"/>
			<point x="132" y="87"/>
			<point x="153" y="93"/>
			<point x="181" y="93" type="curve" smooth="yes"/>
			<point x="197" y="93"/>
			<point x="225" y="91"/>
			<point x="263" y="82" type="curve"/>
			<point x="294" y="73"/>
			<point name=".hr03" x="330" y="64"/>
			<point x="363" y="64" type="curve" smooth="yes"/>
			<point x="393" y="64"/>
			<point x="429" y="79"/>
			<point x="447" y="88" type="curve"/>
			<point x="473" y="16" type="line"/>
			<point x="435" y="1"/>
			<point x="405" y="-11"/>
			<point x="367" y="-11" type="curve" smooth="yes"/>
			<point x="346" y="-11"/>
			<point x="326" y="-8"/>
			<point x="306" y="-2" type="curve" smooth="yes"/>
			<point x="263" y="11" type="line"/>
			<point x="241" y="17"/>
			<point x="223" y="24"/>
			<point x="199" y="27" type="curve" smooth="yes"/>
			<point name=".hr04" x="191" y="28"/>
			<point x="183" y="28"/>
			<point x="175" y="28" type="curve" smooth="yes"/>
			<point x="133" y="28"/>
			<point x="80" y="12"/>
		</contour>
	</outline>
</glyph>
<glyph name="currency" format="2">
	<unicode hex="00A4"/>
	<advance width="495"/>
	<outline>
		<contour>
			<point x="134" y="316" type="curve" smooth="yes"/>
			<point x="134" y="256"/>
			<point x="187" y="203"/>
			<point x="247" y="203" type="curve" smooth="yes"/>
			<point x="307" y="203"/>
			<point x="360" y="256"/>
			<point x="360" y="316" type="curve" smooth="yes"/>
			<point x="360" y="376"/>
			<point x="307" y="429"/>
			<point x="247" y="429" type="curve" smooth="yes"/>
			<point x="187" y="429"/>
			<point x="134" y="376"/>
		</contour>
		<contour>
			<point x="144" y="163" type="curve"/>
			<point x="84" y="102" type="line"/>
			<point x="34" y="154" type="line"/>
			<point x="94" y="213" type="line"/>
			<point x="68" y="255"/>
			<point x="63" y="285"/>
			<point x="63" y="315" type="curve" smooth="yes"/>
			<point x="63" y="345"/>
			<point x="68" y="376"/>
			<point x="94" y="417" type="curve"/>
			<point x="34" y="477" type="line"/>
			<point x="84" y="529" type="line"/>
			<point x="144" y="468" type="line"/>
			<point x="177" y="490"/>
			<point x="217" y="500"/>
			<point x="247" y="500" type="curve" smooth="yes"/>
			<point x="277" y="500"/>
			<point x="318" y="490"/>
			<point x="351" y="468" type="curve"/>
			<point x="411" y="529" type="line"/>
			<point x="461" y="477" type="line"/>
			<point x="400" y="417" type="line"/>
			<point x="427" y="376"/>
			<point x="432" y="345"/>
			<point x="432" y="315" type="curve" smooth="yes"/>
			<point x="432" y="285"/>
			<point x="427" y="255"/>
			<point x="400" y="213" type="curve"/>
			<point x="461" y="154" type="line"/>
			<point x="411" y="102" type="line"/>
			<point x="351" y="163" type="line"/>
			<point x="318" y="141"/>
			<point x="277" y="132"/>
			<point x="247" y="132" type="curve" smooth="yes"/>
			<point x="217" y="132"/>
			<point x="177" y="141"/>
		</contour>
	</outline>
</glyph>
<glyph name="dieresis" format="2">
	<unicode hex="00A8"/>
	<advance width="333"/>
	<outline>
		<contour>
			<point x="123.75" y="520" type="line"/>
			<point x="51.25" y="520" type="line"/>
			<point x="51.25" y="600" type="line"/>
			<point x="123.75" y="600" type="line"/>
		</contour>
		<contour>
			<point x="282" y="520" type="line"/>
			<point x="209.5" y="520" type="line"/>
			<point x="209.5" y="600" type="line"/>
			<point x="282" y="600" type="line"/>
		</contour>
	</outline>
</glyph>
<glyph name="registered" format="2">
	<unicode hex="00AE"/>
	<advance width="572"/>
	<outline>
		<contour>
			<point x="108" y="228" type="curve" smooth="yes"/>
			<point x="108" y="129"/>
			<point x="188" y="48"/>
			<point x="286" y="48" type="curve" smooth="yes"/>
			<point x="384" y="48"/>
			<point x="464" y="128"/>
			<point x="464" y="226" type="curve" smooth="yes"/>
			<point x="464" y="325"/>
			<point x="384" y="406"/>
			<point x="286" y="406" type="curve" smooth="yes"/>
			<point x="188" y="406"/>
			<point x="108" y="326"/>
		</contour>
		<contour>
			<point x="302" y="307" type="curve" smooth="yes"/>
			<point x="249" y="307" type="line"/>
			<point x="249" y="253" type="line"/>
			<point x="302" y="253" type="line" smooth="yes"/>
			<point x="334" y="253"/>
			<point x="339" y="259"/>
			<point x="339" y="279" type="curve" smooth="yes"/>
			<point x="339" y="299"/>
			<point x="330" y="307"/>
		</contour>
		<contour>
			<point x="50" y="228" type="curve" smooth="yes"/>
			<point x="50" y="358"/>
			<point x="156" y="464"/>
			<point x="286" y="464" type="curve" smooth="yes"/>
			<point x="416" y="464"/>
			<point x="522" y="357"/>
			<point x="522" y="226" type="curve" smooth="yes"/>
			<point x="522" y="96"/>
			<point x="416" y="-10"/>
			<point x="286" y="-10" type="curve" smooth="yes"/>
			<point x="156" y="-10"/>
			<point x="50" y="97"/>
		</contour>
		<contour>
			<point x="249" y="203" type="line"/>
			<point x="249" y="95" type="line"/>
			<point x="199" y="95" type="line"/>
			<point x="199" y="357" type="line"/>
			<point x="302" y="357" type="line"/>
			<point x="351" y="356"/>
			<point x="389" y="331"/>
			<point x="389" y="277" type="curve" smooth="yes"/>
			<point x="389" y="245"/>
			<point x="376" y="209"/>
			<point x="325" y="204" type="curve"/>
			<point x="390" y="95" type="line"/>
			<point x="332" y="95" type="line"/>
			<point x="270" y="203" type="line"/>
		</contour>
	</outline>
</glyph>
<glyph name="acute" format="2">
	<unicode hex="00B4"/>
	<advance width="337"/>
	<outline>
		<contour>
			<point x="206.75" y="493.75" type="line"/>
			<point x="47.5" y="493.75" type="line"/>
			<point x="115" y="700" type="line"/>
			<point x="290.25" y="700" type="line"/>
		</contour>
	</outline>
</glyph>
<glyph name="questiondown" format="2">
	<unicode hex="00BF"/>
	<advance width="502"/>
	<outline>
		<contour>
			<point x="312" y="380" type="line"/>
			<point x="232" y="380" type="line"/>
			<point x="232" y="460" type="line"/>
			<point x="312" y="460" type="line"/>
		</contour>
		<contour>
			<point x="40" y="-49" type="curve" smooth="yes"/>
			<point x="40" y="131"/>
			<point x="232" y="145"/>
			<point x="232" y="290" type="curve" smooth="yes"/>
			<point x="232" y="330" type="line"/>
			<point x="312" y="330" type="line"/>
			<point x="312" y="290" type="line" smooth="yes"/>
			<point x="312" y="116"/>
			<point x="120" y="61"/>
			<point x="120" y="-38" type="curve" smooth="yes"/>
			<point x="120" y="-105"/>
			<point x="133" y="-170"/>
			<point x="252" y="-170" type="curve" smooth="yes"/>
			<point x="336" y="-170"/>
			<point x="378" y="-101"/>
			<point x="382" y="-20" type="curve"/>
			<point x="462" y="-20" type="line"/>
			<point x="461" y="-160"/>
			<point x="373" y="-250"/>
			<point x="252" y="-250" type="curve" smooth="yes"/>
			<point x="106" y="-250"/>
			<point x="40" y="-170"/>
		</contour>
	</outline>
</glyph>
<glyph name="Aring" format="2">
	<unicode hex="00C5"/>
	<advance width="629"/>
	<outline>
		<contour>
			<point x="369" y="291.875" type="line"/>
			<point x="314.375" y="467.125" type="line"/>
			<point x="259.75" y="291.875" type="line"/>
		</contour>
		<contour>
			<point x="283.375" y="859" type="curve" smooth="yes"/>
			<point x="283.375" y="842"/>
			<point x="297.375" y="828"/>
			<point x="314.375" y="828" type="curve" smooth="yes"/>
			<point x="331.375" y="828"/>
			<point x="345.375" y="842"/>
			<point x="345.375" y="859" type="curve" smooth="yes"/>
			<point x="345.375" y="876"/>
			<point x="331.375" y="890"/>
			<point x="314.375" y="890" type="curve" smooth="yes"/>
			<point x="297.375" y="890"/>
			<point x="283.375" y="876"/>
		</contour>
		<contour>
			<point x="458.5" y="0" type="line"/>
			<point x="417.875" y="131.875" type="line"/>
			<point x="210.875" y="131.875" type="line"/>
			<point x="170.25" y="0" type="line"/>
			<point x="10" y="0" type="line"/>
			<point x="219.375" y="680" type="line"/>
			<point x="407.625" y="680" type="line"/>
			<point x="618.75" y="0" type="line"/>
		</contour>
		<contour>
			<point x="236.375" y="859" type="curve" smooth="yes"/>
			<point x="236.375" y="902"/>
			<point x="271.375" y="937"/>
			<point x="314.375" y="937" type="curve" smooth="yes"/>
			<point x="357.375" y="937"/>
			<point x="392.375" y="902"/>
			<point x="392.375" y="859" type="curve" smooth="yes"/>
			<point x="392.375" y="816"/>
			<point x="357.375" y="781"/>
			<point x="314.375" y="781" type="curve" smooth="yes"/>
			<point x="271.375" y="781"/>
			<point x="236.375" y="816"/>
		</contour>
	</outline>
</glyph>
<glyph name="Ccedilla" format="2">
	<unicode hex="00C7"/>
	<advance width="653"/>
	<outline>
		<contour>
			<point x="241.75" y="-193" type="curve"/>
			<point x="241.75" y="-164" type="line"/>
			<point x="254.75" y="-167"/>
			<point x="275.75" y="-170"/>
			<point x="295.75" y="-170" type="curve" smooth="yes"/>
			<point x="336.75" y="-170"/>
			<point x="354.75" y="-148"/>
			<point x="354.75" y="-118" type="curve" smooth="yes"/>
			<point x="354.75" y="-82"/>
			<point x="305.75" y="-70"/>
			<point x="275.75" y="-67" type="curve"/>
			<point x="303.625" y="-8.125" type="line"/>
			<point x="131.5" y="10.375"/>
			<point x="36.25" y="132.875"/>
			<point x="36.25" y="340" type="curve" smooth="yes"/>
			<point x="36.25" y="564.375"/>
			<point x="148.75" y="690"/>
			<point x="349.25" y="690" type="curve" smooth="yes"/>
			<point x="494.25" y="690"/>
			<point x="593.875" y="595.5"/>
			<point x="616.25" y="445.25" type="curve"/>
			<point x="473.75" y="445.25" type="line"/>
			<point x="460.25" y="512.875"/>
			<point x="413.125" y="547.5"/>
			<point x="349.25" y="547.5" type="curve" smooth="yes"/>
			<point x="255.875" y="547.5"/>
			<point x="196.5" y="466.125"/>
			<point x="196.5" y="340" type="curve" smooth="yes"/>
			<point x="196.5" y="213.875"/>
			<point x="255.875" y="132.5"/>
			<point x="349.25" y="132.5" type="curve" smooth="yes"/>
			<point x="408.5" y="132.5"/>
			<point x="460" y="167.75"/>
			<point x="471.875" y="219" type="curve"/>
			<point x="614.375" y="219" type="line"/>
			<point x="593.875" y="84.25"/>
			<point x="495.5" y="-4"/>
			<point x="362.875" y="-9.75" type="curve"/>
			<point x="344.75" y="-46" type="line"/>
			<point x="367.75" y="-54"/>
			<point x="411.75" y="-70"/>
			<point x="411.75" y="-123" type="curve" smooth="yes"/>
			<point x="411.75" y="-177"/>
			<point x="366.75" y="-209"/>
			<point x="311.75" y="-209" type="curve" smooth="yes"/>
			<point x="278.75" y="-209"/>
			<point x="255.75" y="-200"/>
		</contour>
	</outline>
</glyph>
<glyph name="Ntilde" format="2">
	<unicode hex="00D1"/>
	<advance width="702"/>
	<outline>
		<contour>
			<point x="216.5" y="352.5" type="curve" smooth="yes"/>
			<point x="216.5" y="0" type="line"/>
			<point x="56.25" y="0" type="line"/>
			<point x="56.25" y="680" type="line"/>
			<point x="234.25" y="680" type="line"/>
			<point x="488.375" y="260.125" type="line"/>
			<point x="485.5" y="285.875"/>
			<point x="485.5" y="309.625"/>
			<point x="485.5" y="327.5" type="curve" smooth="yes"/>
			<point x="485.5" y="680" type="line"/>
			<point x="645.75" y="680" type="line"/>
			<point x="645.75" y="0" type="line"/>
			<point x="467.75" y="0" type="line"/>
			<point x="213.625" y="419.875" type="line"/>
			<point x="216.5" y="394.125"/>
			<point x="216.5" y="370.375"/>
		</contour>
		<contour>
			<point x="292.5" y="760" type="curve"/>
			<point x="242.5" y="760" type="line"/>
			<point x="256.5" y="847"/>
			<point x="292.5" y="880"/>
			<point name=".hr01" x="332.5" y="880" type="curve" smooth="yes"/>
			<point x="357.5" y="880"/>
			<point x="379.5" y="870"/>
			<point x="401.5" y="859" type="curve"/>
			<point x="417.5" y="850"/>
			<point x="438.5" y="840"/>
			<point name=".hr02" x="458.5" y="840" type="curve" smooth="yes"/>
			<point x="478.5" y="840"/>
			<point x="493.5" y="852"/>
			<point x="498.5" y="880" type="curve"/>
			<point name=".hr03" x="548.5" y="880" type="line"/>
			<point x="534.5" y="793"/>
			<point x="498.5" y="760"/>
			<point name=".hr04" x="458.5" y="760" type="curve" smooth="yes"/>
			<point x="433.5" y="760"/>
			<point x="412.5" y="769"/>
			<point x="391.5" y="780" type="curve" smooth="yes"/>
			<point x="374.5" y="789"/>
			<point x="352.5" y="800"/>
			<point name=".hr05" x="332.5" y="800" type="curve" smooth="yes"/>
			<point x="312.5" y="800"/>
			<point x="297.5" y="788"/>
		</contour>
	</outline>
</glyph>
<glyph name="ucircumflex" format="2">
	<unicode hex="00FB"/>
	<advance width="478"/>
	<outline>
		<contour>
			<point x="354" y="154" type="curve"/>
			<point x="354" y="460" type="line"/>
			<point x="433" y="460" type="line"/>
			<point x="433" y="0" type="line"/>
			<point x="374" y="0" type="line"/>
			<point x="357" y="83" type="line"/>
			<point x="323" y="36"/>
			<point x="275" y="-10"/>
			<point x="200" y="-10" type="curve" smooth="yes"/>
			<point x="51" y="-10"/>
			<point x="45" y="98"/>
			<point x="45" y="165" type="curve" smooth="yes"/>
			<point x="45" y="460" type="line"/>
			<point x="125" y="460" type="line"/>
			<point x="125" y="165" type="line" smooth="yes"/>
			<point x="125" y="121"/>
			<point x="134" y="55"/>
			<point x="222" y="55" type="curve" smooth="yes"/>
			<point x="266" y="55"/>
			<point x="330" y="90"/>
		</contour>
		<contour>
			<point x="239" y="615.75" type="line"/>
			<point x="157.5" y="520" type="line"/>
			<point x="72.75" y="520" type="line"/>
			<point x="175.25" y="697.5" type="line"/>
			<point x="302.75" y="697.5" type="line"/>
			<point x="405.25" y="520" type="line"/>
			<point x="320.5" y="520" type="line"/>
		</contour>
	</outline>
</glyph>
<glyph name="Cacute" format="2">
	<unicode hex="0106"/>
	<advance width="653"/>
	<outline>
		<contour>
			<point x="349.25" y="547.5" type="curve" smooth="yes"/>
			<point x="255.875" y="547.5"/>
			<point x="196.5" y="466.125"/>
			<point x="196.5" y="340" type="curve" smooth="yes"/>
			<point x="196.5" y="213.875"/>
			<point x="255.875" y="132.5"/>
			<point x="349.25" y="132.5" type="curve" smooth="yes"/>
			<point x="408.5" y="132.5"/>
			<point x="460" y="167.75"/>
			<point x="471.875" y="219" type="curve"/>
			<point x="614.375" y="219" type="line"/>
			<point x="592.75" y="79.625"/>
			<point x="488.375" y="-10"/>
			<point x="349.25" y="-10" type="curve" smooth="yes"/>
			<point x="148.75" y="-10"/>
			<point x="36.25" y="115.625"/>
			<point x="36.25" y="340" type="curve" smooth="yes"/>
			<point x="36.25" y="564.375"/>
			<point x="148.75" y="690"/>
			<point x="349.25" y="690" type="curve" smooth="yes"/>
			<point x="494.25" y="690"/>
			<point x="593.875" y="595.5"/>
			<point x="616.25" y="445.25" type="curve"/>
			<point x="473.75" y="445.25" type="line"/>
			<point x="460.25" y="512.875"/>
			<point x="413.125" y="547.5"/>
		</contour>
		<contour>
			<point x="503.875" y="916.25" type="line"/>
			<point x="421.375" y="710" type="line"/>
			<point x="262.125" y="710" type="line"/>
			<point x="329.625" y="916.25" type="line"/>
		</contour>
	</outline>
</glyph>
<glyph name="Ccircumflex" format="2">
	<unicode hex="0108"/>
	<advance width="653"/>
	<outline>
		<contour>
			<point x="349.25" y="547.5" type="curve" smooth="yes"/>
			<point x="255.875" y="547.5"/>
			<point x="196.5" y="466.125"/>
			<point x="196.5" y="340" type="curve" smooth="yes"/>
			<point x="196.5" y="213.875"/>
			<point x="255.875" y="132.5"/>
			<point x="349.25" y="132.5" type="curve" smooth="yes"/>
			<point x="408.5" y="132.5"/>
			<point x="460" y="167.75"/>
			<point x="471.875" y="219" type="curve"/>
			<point x="614.375" y="219" type="line"/>
			<point x="592.75" y="79.625"/>
			<point x="488.375" y="-10"/>
			<point x="349.25" y="-10" type="curve" smooth="yes"/>
			<point x="148.75" y="-10"/>
			<point x="36.25" y="115.625"/>
			<point x="36.25" y="340" type="curve" smooth="yes"/>
			<point x="36.25" y="564.375"/>
			<point x="148.75" y="690"/>
			<point x="349.25" y="690" type="curve" smooth="yes"/>
			<point x="494.25" y="690"/>
			<point x="593.875" y="595.5"/>
			<point x="616.25" y="445.25" type="curve"/>
			<point x="473.75" y="445.25" type="line"/>
			<point x="460.25" y="512.875"/>
			<point x="413.125" y="547.5"/>
		</contour>
		<contour>
			<point x="341.25" y="835.75" type="line"/>
			<point x="259.75" y="740" type="line"/>
			<point x="175" y="740" type="line"/>
			<point x="277.5" y="917.5" type="line"/>
			<point x="405" y="917.5" type="line"/>
			<point x="507.5" y="740" type="line"/>
			<point x="422.75" y="740" type="line"/>
		</contour>
	</outline>
</glyph>
<glyph name="ccircumflex" format="2">
	<unicode hex="0109"/>
	<advance width="510"/>
	<outline>
		<contour>
			<point x="50" y="230" type="curve" smooth="yes"/>
			<point x="50" y="348"/>
			<point x="95" y="470"/>
			<point x="259" y="470" type="curve" smooth="yes"/>
			<point x="378" y="470"/>
			<point x="437" y="405"/>
			<point x="459" y="320" type="curve"/>
			<point x="370" y="320" type="line"/>
			<point x="367" y="335"/>
			<point x="338" y="402"/>
			<point x="259" y="402" type="curve" smooth="yes"/>
			<point x="168" y="402"/>
			<point x="134" y="335"/>
			<point x="134" y="230" type="curve" smooth="yes"/>
			<point x="134" y="147"/>
			<point x="160" y="58"/>
			<point x="259" y="58" type="curve" smooth="yes"/>
			<point x="336" y="58"/>
			<point x="365" y="118"/>
			<point x="372" y="150" type="curve"/>
			<point x="460" y="150" type="line"/>
			<point x="440" y="79"/>
			<point x="387" y="-10"/>
			<point x="259" y="-10" type="curve" smooth="yes"/>
			<point x="94" y="-10"/>
			<point x="50" y="122"/>
		</contour>
		<contour>
			<point x="255" y="615.75" type="line"/>
			<point x="173.5" y="520" type="line"/>
			<point x="88.75" y="520" type="line"/>
			<point x="191.25" y="697.5" type="line"/>
			<point x="318.75" y="697.5" type="line"/>
			<point x="421.25" y="520" type="line"/>
			<point x="336.5" y="520" type="line"/>
		</contour>
	</outline>
</glyph>
<glyph name="Cdotaccent" format="2">
	<unicode hex="010A"/>
	<advance width="653"/>
	<outline>
		<contour>
			<point x="349.25" y="547.5" type="curve" smooth="yes"/>
			<point x="255.875" y="547.5"/>
			<point x="196.5" y="466.125"/>
			<point x="196.5" y="340" type="curve" smooth="yes"/>
			<point x="196.5" y="213.875"/>
			<point x="255.875" y="132.5"/>
			<point x="349.25" y="132.5" type="curve" smooth="yes"/>
			<point x="408.5" y="132.5"/>
			<point x="460" y="167.75"/>
			<point x="471.875" y="219" type="curve"/>
			<point x="614.375" y="219" type="line"/>
			<point x="592.75" y="79.625"/>
			<point x="488.375" y="-10"/>
			<point x="349.25" y="-10" type="curve" smooth="yes"/>
			<point x="148.75" y="-10"/>
			<point x="36.25" y="115.625"/>
			<point x="36.25" y="340" type="curve" smooth="yes"/>
			<point x="36.25" y="564.375"/>
			<point x="148.75" y="690"/>
			<point x="349.25" y="690" type="curve" smooth="yes"/>
			<point x="494.25" y="690"/>
			<point x="593.875" y="595.5"/>
			<point x="616.25" y="445.25" type="curve"/>
			<point x="473.75" y="445.25" type="line"/>
			<point x="460.25" y="512.875"/>
			<point x="413.125" y="547.5"/>
		</contour>
		<contour>
			<point x="421.25" y="872.5" type="line"/>
			<point x="421.25" y="740" type="line"/>
			<point x="261.25" y="740" type="line"/>
			<point x="261.25" y="872.5" type="line"/>
		</contour>
	</outline>
</glyph>
<glyph name="cdotaccent" format="2">
	<unicode hex="010B"/>
	<advance width="510"/>
	<outline>
		<contour>
			<point x="378.75" y="560" type="line"/>
			<point x="218.75" y="560" type="line"/>
			<point x="218.75" y="692.5" type="line"/>
			<point x="378.75" y="692.5" type="line"/>
		</contour>
		<contour>
			<point x="50" y="230" type="curve" smooth="yes"/>
			<point x="50" y="348"/>
			<point x="95" y="470"/>
			<point x="259" y="470" type="curve" smooth="yes"/>
			<point x="378" y="470"/>
			<point x="437" y="405"/>
			<point x="459" y="320" type="curve"/>
			<point x="370" y="320" type="line"/>
			<point x="367" y="335"/>
			<point x="338" y="402"/>
			<point x="259" y="402" type="curve" smooth="yes"/>
			<point x="168" y="402"/>
			<point x="134" y="335"/>
			<point x="134" y="230" type="curve" smooth="yes"/>
			<point x="134" y="147"/>
			<point x="160" y="58"/>
			<point x="259" y="58" type="curve" smooth="yes"/>
			<point x="336" y="58"/>
			<point x="365" y="118"/>
			<point x="372" y="150" type="curve"/>
			<point x="460" y="150" type="line"/>
			<point x="440" y="79"/>
			<point x="387" y="-10"/>
			<point x="259" y="-10" type="curve" smooth="yes"/>
			<point x="94" y="-10"/>
			<point x="50" y="122"/>
		</contour>
	</outline>
</glyph>
<glyph name="Ccaron" format="2">
	<unicode hex="010C"/>
	<advance width="653"/>
	<outline>
		<contour>
			<point x="349.25" y="547.5" type="curve" smooth="yes"/>
			<point x="255.875" y="547.5"/>
			<point x="196.5" y="466.125"/>
			<point x="196.5" y="340" type="curve" smooth="yes"/>
			<point x="196.5" y="213.875"/>
			<point x="255.875" y="132.5"/>
			<point x="349.25" y="132.5" type="curve" smooth="yes"/>
			<point x="408.5" y="132.5"/>
			<point x="460" y="167.75"/>
			<point x="471.875" y="219" type="curve"/>
			<point x="614.375" y="219" type="line"/>
			<point x="592.75" y="79.625"/>
			<point x="488.375" y="-10"/>
			<point x="349.25" y="-10" type="curve" smooth="yes"/>
			<point x="148.75" y="-10"/>
			<point x="36.25" y="115.625"/>
			<point x="36.25" y="340" type="curve" smooth="yes"/>
			<point x="36.25" y="564.375"/>
			<point x="148.75" y="690"/>
			<point x="349.25" y="690" type="curve" smooth="yes"/>
			<point x="494.25" y="690"/>
			<point x="593.875" y="595.5"/>
			<point x="616.25" y="445.25" type="curve"/>
			<point x="473.75" y="445.25" type="line"/>
			<point x="460.25" y="512.875"/>
			<point x="413.125" y="547.5"/>
		</contour>
		<contour>
			<point x="381.25" y="740" type="line"/>
			<point x="301.25" y="740" type="line"/>
			<point x="201.25" y="900" type="line"/>
			<point x="265.25" y="900" type="line"/>
			<point x="341.25" y="815" type="line"/>
			<point x="417.25" y="900" type="line"/>
			<point x="481.25" y="900" type="line"/>
		</contour>
	</outline>
</glyph>
<glyph name="ccaron" format="2">
	<unicode hex="010D"/>
	<advance width="510"/>
	<outline>
		<contour>
			<point x="50" y="230" type="curve" smooth="yes"/>
			<point x="50" y="348"/>
			<point x="95" y="470"/>
			<point x="259" y="470" type="curve" smooth="yes"/>
			<point x="378" y="470"/>
			<point x="437" y="405"/>
			<point x="459" y="320" type="curve"/>
			<point x="370" y="320" type="line"/>
			<point x="367" y="335"/>
			<point x="338" y="402"/>
			<point x="259" y="402" type="curve" smooth="yes"/>
			<point x="168" y="402"/>
			<point x="134" y="335"/>
			<point x="134" y="230" type="curve" smooth="yes"/>
			<point x="134" y="147"/>
			<point x="160" y="58"/>
			<point x="259" y="58" type="curve" smooth="yes"/>
			<point x="336" y="58"/>
			<point x="365" y="118"/>
			<point x="372" y="150" type="curve"/>
			<point x="460" y="150" type="line"/>
			<point x="440" y="79"/>
			<point x="387" y="-10"/>
			<point x="259" y="-10" type="curve" smooth="yes"/>
			<point x="94" y="-10"/>
			<point x="50" y="122"/>
		</contour>
		<contour>
			<point x="295" y="520" type="line"/>
			<point x="215" y="520" type="line"/>
			<point x="115" y="680" type="line"/>
			<point x="179" y="680" type="line"/>
			<point x="255" y="595" type="line"/>
			<point x="331" y="680" type="line"/>
			<point x="395" y="680" type="line"/>
		</contour>
	</outline>
</glyph>
<glyph name="Dcaron" format="2">
	<unicode hex="010E"/>
	<advance width="639"/>
	<outline>
		<contour>
			<point x="216.5" y="537.5" type="line"/>
			<point x="216.5" y="142.5" type="line"/>
			<point x="305.5" y="142.5" type="line" smooth="yes"/>
			<point x="385" y="142.5"/>
			<point x="442.375" y="223.5"/>
			<point x="442.375" y="340" type="curve" smooth="yes"/>
			<point x="442.375" y="488"/>
			<point x="387" y="537.5"/>
			<point x="305.5" y="537.5" type="curve" smooth="yes"/>
		</contour>
		<contour>
			<point x="56.25" y="680" type="line"/>
			<point x="305.5" y="680" type="line" smooth="yes"/>
			<point x="495.5" y="680"/>
			<point x="602.5" y="560.25"/>
			<point x="602.5" y="340" type="curve" smooth="yes"/>
			<point x="602.5" y="117.125"/>
			<point x="496.375" y="0"/>
			<point x="305.5" y="0" type="curve" smooth="yes"/>
			<point x="56.25" y="0" type="line"/>
		</contour>
		<contour>
			<point x="359.375" y="760" type="line"/>
			<point x="279.375" y="760" type="line"/>
			<point x="179.375" y="920" type="line"/>
			<point x="243.375" y="920" type="line"/>
			<point x="319.375" y="835" type="line"/>
			<point x="395.375" y="920" type="line"/>
			<point x="459.375" y="920" type="line"/>
		</contour>
	</outline>
</glyph>
<glyph name="Emacron" format="2">
	<unicode hex="0112"/>
	<advance width="510"/>
	<outline>
		<contour>
			<point x="420" y="278.75" type="line"/>
			<point x="216.5" y="278.75" type="line"/>
			<point x="216.5" y="133.75" type="line"/>
			<point x="460" y="133.75" type="line"/>
			<point x="460" y="0" type="line"/>
			<point x="56.25" y="0" type="line"/>
			<point x="56.25" y="680" type="line"/>
			<point x="460" y="680" type="line"/>
			<point x="460" y="546.25" type="line"/>
			<point x="216.5" y="546.25" type="line"/>
			<point x="216.5" y="412.5" type="line"/>
			<point x="420" y="412.5" type="line"/>
		</contour>
		<contour>
			<point name=".hr01" x="390" y="860" type="line"/>
			<point x="390" y="790" type="line"/>
			<point x="120" y="790" type="line"/>
			<point x="120" y="860" type="line"/>
		</contour>
	</outline>
</glyph>
<glyph name="Ebreve" format="2">
	<unicode hex="0114"/>
	<advance width="510"/>
	<outline>
		<contour>
			<point x="420" y="278.75" type="line"/>
			<point x="216.5" y="278.75" type="line"/>
			<point x="216.5" y="133.75" type="line"/>
			<point x="460" y="133.75" type="line"/>
			<point x="460" y="0" type="line"/>
			<point x="56.25" y="0" type="line"/>
			<point x="56.25" y="680" type="line"/>
			<point x="460" y="680" type="line"/>
			<point x="460" y="546.25" type="line"/>
			<point x="216.5" y="546.25" type="line"/>
			<point x="216.5" y="412.5" type="line"/>
			<point x="420" y="412.5" type="line"/>
		</contour>
		<contour>
			<point name=".hr01" x="100" y="880" type="curve"/>
			<point x="180" y="880" type="line"/>
			<point x="180" y="820"/>
			<point x="220" y="800"/>
			<point x="255" y="800" type="curve" smooth="yes"/>
			<point x="290" y="800"/>
			<point x="330" y="820"/>
			<point x="330" y="880" type="curve"/>
			<point x="410" y="880" type="line"/>
			<point x="410" y="780"/>
			<point x="335" y="740"/>
			<point x="255" y="740" type="curve" smooth="yes"/>
			<point x="175" y="740"/>
			<point x="100" y="780"/>
		</contour>
	</outline>
</glyph>
<glyph name="Edotaccent" format="2">
	<unicode hex="0116"/>
	<advance width="510"/>
	<outline>
		<contour>
			<point x="420" y="278.75" type="line"/>
			<point x="216.5" y="278.75" type="line"/>
			<point x="216.5" y="133.75" type="line"/>
			<point x="460" y="133.75" type="line"/>
			<point x="460" y="0" type="line"/>
			<point x="56.25" y="0" type="line"/>
			<point x="56.25" y="680" type="line"/>
			<point x="460" y="680" type="line"/>
			<point x="460" y="546.25" type="line"/>
			<point x="216.5" y="546.25" type="line"/>
			<point x="216.5" y="412.5" type="line"/>
			<point x="420" y="412.5" type="line"/>
		</contour>
		<contour>
			<point name=".hr01" x="335" y="872.5" type="line"/>
			<point x="335" y="740" type="line"/>
			<point x="175" y="740" type="line"/>
			<point x="175" y="872.5" type="line"/>
		</contour>
	</outline>
</glyph>
<glyph name="edotaccent" format="2">
	<unicode hex="0117"/>
	<advance width="518"/>
	<outline>
		<contour>
			<point x="139" y="278" type="curve"/>
			<point x="379" y="278" type="line"/>
			<point x="379" y="278"/>
			<point x="371" y="402"/>
			<point x="259" y="402" type="curve" smooth="yes"/>
			<point x="147" y="402"/>
			<point x="139" y="278"/>
		</contour>
		<contour>
			<point x="50" y="240" type="curve" smooth="yes"/>
			<point x="50" y="360"/>
			<point x="119" y="470"/>
			<point x="259" y="470" type="curve" smooth="yes"/>
			<point x="399" y="470"/>
			<point x="468" y="360"/>
			<point x="468" y="240" type="curve" smooth="yes"/>
			<point x="468" y="210" type="line"/>
			<point x="134" y="210" type="line"/>
			<point x="134" y="140"/>
			<point x="179" y="58"/>
			<point x="259" y="58" type="curve" smooth="yes"/>
			<point x="329" y="58"/>
			<point x="365" y="98"/>
			<point x="375" y="142" type="curve"/>
			<point x="458" y="142" type="line"/>
			<point x="443" y="73"/>
			<point x="409" y="-10"/>
			<point x="259" y="-10" type="curve" smooth="yes"/>
			<point x="109" y="-10"/>
			<point x="50" y="120"/>
		</contour>
		<contour>
			<point x="383.75" y="692.5" type="line"/>
			<point x="383.75" y="560" type="line"/>
			<point name=".hr01" x="223.75" y="560" type="line"/>
			<point x="223.75" y="692.5" type="line"/>
		</contour>
	</outline>
</glyph>
<glyph name="Ecaron" format="2">
	<unicode hex="011A"/>
	<advance width="510"/>
	<outline>
		<contour>
			<point x="420" y="278.75" type="line"/>
			<point x="216.5" y="278.75" type="line"/>
			<point x="216.5" y="133.75" type="line"/>
			<point x="460" y="133.75" type="line"/>
			<point x="460" y="0" type="line"/>
			<point x="56.25" y="0" type="line"/>
			<point x="56.25" y="680" type="line"/>
			<point x="460" y="680" type="line"/>
			<point x="460" y="546.25" type="line"/>
			<point x="216.5" y="546.25" type="line"/>
			<point x="216.5" y="412.5" type="line"/>
			<point x="420" y="412.5" type="line"/>
		</contour>
		<contour>
			<point x="295" y="740" type="line"/>
			<point x="215" y="740" type="line"/>
			<point x="115" y="900" type="line"/>
			<point x="179" y="900" type="line"/>
			<point x="255" y="815" type="line"/>
			<point x="331" y="900" type="line"/>
			<point x="395" y="900" type="line"/>
		</contour>
	</outline>
</glyph>
<glyph name="Gcircumflex" format="2">
	<unicode hex="011C"/>
	<advance width="655"/>
	<outline>
		<contour>
			<point x="349.25" y="547.5" type="curve" smooth="yes"/>
			<point x="255.875" y="547.5"/>
			<point x="196.5" y="466.125"/>
			<point x="196.5" y="340" type="curve" smooth="yes"/>
			<point x="196.5" y="213.875"/>
			<point x="255.875" y="132.5"/>
			<point x="349.25" y="132.5" type="curve" smooth="yes"/>
			<point x="404" y="132.5"/>
			<point x="450.875" y="159.625"/>
			<point x="474.25" y="204.375" type="curve"/>
			<point x="474.25" y="236.25" type="line"/>
			<point x="352.125" y="236.25" type="line"/>
			<point x="352.125" y="343.75" type="line"/>
			<point x="608.25" y="343.75" type="line"/>
			<point x="608.25" y="0" type="line"/>
			<point x="474.25" y="0" type="line"/>
			<point x="474.25" y="34.25" type="line"/>
			<point x="446.625" y="9"/>
			<point x="393.125" y="-10"/>
			<point x="349.25" y="-10" type="curve" smooth="yes"/>
			<point x="148.75" y="-10"/>
			<point x="36.25" y="115.625"/>
			<point x="36.25" y="340" type="curve" smooth="yes"/>
			<point x="36.25" y="564.375"/>
			<point x="148.75" y="690"/>
			<point x="349.25" y="690" type="curve" smooth="yes"/>
			<point x="494.25" y="690"/>
			<point x="593.875" y="595.5"/>
			<point x="616.25" y="445.25" type="curve"/>
			<point x="473.75" y="445.25" type="line"/>
			<point x="460.25" y="512.875"/>
			<point x="413.125" y="547.5"/>
		</contour>
		<contour>
			<point x="324.75" y="835.75" type="line"/>
			<point x="243.25" y="740" type="line"/>
			<point x="158.5" y="740" type="line"/>
			<point x="261" y="917.5" type="line"/>
			<point x="388.5" y="917.5" type="line"/>
			<point x="491" y="740" type="line"/>
			<point x="406.25" y="740" type="line"/>
		</contour>
	</outline>
</glyph>
<glyph name="Gbreve" format="2">
	<unicode hex="011E"/>
	<advance width="655"/>
	<outline>
		<contour>
			<point x="349.25" y="547.5" type="curve" smooth="yes"/>
			<point x="255.875" y="547.5"/>
			<point x="196.5" y="466.125"/>
			<point x="196.5" y="340" type="curve" smooth="yes"/>
			<point x="196.5" y="213.875"/>
			<point x="255.875" y="132.5"/>
			<point x="349.25" y="132.5" type="curve" smooth="yes"/>
			<point x="404" y="132.5"/>
			<point x="450.875" y="159.625"/>
			<point x="474.25" y="204.375" type="curve"/>
			<point x="474.25" y="236.25" type="line"/>
			<point x="352.125" y="236.25" type="line"/>
			<point x="352.125" y="343.75" type="line"/>
			<point x="608.25" y="343.75" type="line"/>
			<point x="608.25" y="0" type="line"/>
			<point x="474.25" y="0" type="line"/>
			<point x="474.25" y="34.25" type="line"/>
			<point x="446.625" y="9"/>
			<point x="393.125" y="-10"/>
			<point x="349.25" y="-10" type="curve" smooth="yes"/>
			<point x="148.75" y="-10"/>
			<point x="36.25" y="115.625"/>
			<point x="36.25" y="340" type="curve" smooth="yes"/>
			<point x="36.25" y="564.375"/>
			<point x="148.75" y="690"/>
			<point x="349.25" y="690" type="curve" smooth="yes"/>
			<point x="494.25" y="690"/>
			<point x="593.875" y="595.5"/>
			<point x="616.25" y="445.25" type="curve"/>
			<point x="473.75" y="445.25" type="line"/>
			<point x="460.25" y="512.875"/>
			<point x="413.125" y="547.5"/>
		</contour>
		<contour>
			<point x="169.75" y="880" type="curve"/>
			<point name=".hr01" x="249.75" y="880" type="line"/>
			<point x="249.75" y="820"/>
			<point x="289.75" y="800"/>
			<point x="324.75" y="800" type="curve" smooth="yes"/>
			<point x="359.75" y="800"/>
			<point x="399.75" y="820"/>
			<point x="399.75" y="880" type="curve"/>
			<point x="479.75" y="880" type="line"/>
			<point x="479.75" y="780"/>
			<point x="404.75" y="740"/>
			<point x="324.75" y="740" type="curve" smooth="yes"/>
			<point x="244.75" y="740"/>
			<point x="169.75" y="780"/>
		</contour>
	</outline>
</glyph>
<glyph name="Gdotaccent" format="2">
	<unicode hex="0120"/>
	<advance width="655"/>
	<outline>
		<contour>
			<point x="349.25" y="547.5" type="curve" smooth="yes"/>
			<point x="255.875" y="547.5"/>
			<point x="196.5" y="466.125"/>
			<point x="196.5" y="340" type="curve" smooth="yes"/>
			<point x="196.5" y="213.875"/>
			<point x="255.875" y="132.5"/>
			<point x="349.25" y="132.5" type="curve" smooth="yes"/>
			<point x="404" y="132.5"/>
			<point x="450.875" y="159.625"/>
			<point x="474.25" y="204.375" type="curve"/>
			<point x="474.25" y="236.25" type="line"/>
			<point x="352.125" y="236.25" type="line"/>
			<point x="352.125" y="343.75" type="line"/>
			<point x="608.25" y="343.75" type="line"/>
			<point x="608.25" y="0" type="line"/>
			<point x="474.25" y="0" type="line"/>
			<point x="474.25" y="34.25" type="line"/>
			<point x="446.625" y="9"/>
			<point x="393.125" y="-10"/>
			<point x="349.25" y="-10" type="curve" smooth="yes"/>
			<point x="148.75" y="-10"/>
			<point x="36.25" y="115.625"/>
			<point x="36.25" y="340" type="curve" smooth="yes"/>
			<point x="36.25" y="564.375"/>
			<point x="148.75" y="690"/>
			<point x="349.25" y="690" type="curve" smooth="yes"/>
			<point x="494.25" y="690"/>
			<point x="593.875" y="595.5"/>
			<point x="616.25" y="445.25" type="curve"/>
			<point x="473.75" y="445.25" type="line"/>
			<point x="460.25" y="512.875"/>
			<point x="413.125" y="547.5"/>
		</contour>
		<contour>
			<point x="404.75" y="872.5" type="line"/>
			<point x="404.75" y="740" type="line"/>
			<point x="244.75" y="740" type="line"/>
			<point x="244.75" y="872.5" type="line"/>
		</contour>
	</outline>
</glyph>
<glyph name="uni0122" format="2">
	<unicode hex="0122"/>
	<advance width="655"/>
	<outline>
		<contour>
			<point x="349.25" y="547.5" type="curve" smooth="yes"/>
			<point x="255.875" y="547.5"/>
			<point x="196.5" y="466.125"/>
			<point x="196.5" y="340" type="curve" smooth="yes"/>
			<point x="196.5" y="213.875"/>
			<point x="255.875" y="132.5"/>
			<point x="349.25" y="132.5" type="curve" smooth="yes"/>
			<point x="404" y="132.5"/>
			<point x="450.875" y="159.625"/>
			<point x="474.25" y="204.375" type="curve"/>
			<point x="474.25" y="236.25" type="line"/>
			<point x="352.125" y="236.25" type="line"/>
			<point x="352.125" y="343.75" type="line"/>
			<point x="608.25" y="343.75" type="line"/>
			<point x="608.25" y="0" type="line"/>
			<point x="474.25" y="0" type="line"/>
			<point x="474.25" y="34.25" type="line"/>
			<point x="446.625" y="9"/>
			<point x="393.125" y="-10"/>
			<point x="349.25" y="-10" type="curve" smooth="yes"/>
			<point x="148.75" y="-10"/>
			<point x="36.25" y="115.625"/>
			<point x="36.25" y="340" type="curve" smooth="yes"/>
			<point x="36.25" y="564.375"/>
			<point x="148.75" y="690"/>
			<point x="349.25" y="690" type="curve" smooth="yes"/>
			<point x="494.25" y="690"/>
			<point x="593.875" y="595.5"/>
			<point x="616.25" y="445.25" type="curve"/>
			<point x="473.75" y="445.25" type="line"/>
			<point x="460.25" y="512.875"/>
			<point x="413.125" y="547.5"/>
		</contour>
		<contour>
			<point x="309.75" y="-140" type="line"/>
			<point x="287.75" y="-140" type="line"/>
			<point x="287.75" y="-60" type="line"/>
			<point x="367.75" y="-60" type="line"/>
			<point x="367.75" y="-140" type="line"/>
			<point x="321.75" y="-270" type="line"/>
			<point x="287.75" y="-270" type="line"/>
		</contour>
	</outline>
</glyph>
<glyph name="Hcircumflex" format="2">
	<unicode hex="0124"/>
	<advance width="653"/>
	<outline>
		<contour>
			<point x="596.5" y="680" type="line"/>
			<point x="596.5" y="0" type="line"/>
			<point x="436.25" y="0" type="line"/>
			<point x="436.25" y="267" type="line"/>
			<point x="216.5" y="267" type="line"/>
			<point x="216.5" y="0" type="line"/>
			<point x="56.25" y="0" type="line"/>
			<point x="56.25" y="680" type="line"/>
			<point x="216.5" y="680" type="line"/>
			<point x="216.5" y="409.5" type="line"/>
			<point x="436.25" y="409.5" type="line"/>
			<point x="436.25" y="680" type="line"/>
		</contour>
		<contour>
			<point x="326.375" y="855.75" type="line"/>
			<point x="244.875" y="760" type="line"/>
			<point x="160.125" y="760" type="line"/>
			<point x="262.625" y="937.5" type="line"/>
			<point x="390.125" y="937.5" type="line"/>
			<point x="492.625" y="760" type="line"/>
			<point x="407.875" y="760" type="line"/>
		</contour>
	</outline>
</glyph>
<glyph name="Itilde" format="2">
	<unicode hex="0128"/>
	<advance width="273"/>
	<outline>
		<contour>
			<point x="216.5" y="0" type="line"/>
			<point x="56.25" y="0" type="line"/>
			<point x="56.25" y="680" type="line"/>
			<point x="216.5" y="680" type="line"/>
		</contour>
		<contour>
			<point x="33.375" y="760" type="curve"/>
			<point x="-16.625" y="760" type="line"/>
			<point x="-2.625" y="847"/>
			<point name=".hr01" x="33.375" y="880"/>
			<point x="73.375" y="880" type="curve" smooth="yes"/>
			<point x="98.375" y="880"/>
			<point x="120.375" y="870"/>
			<point x="142.375" y="859" type="curve"/>
			<point x="158.375" y="850"/>
			<point name=".hr02" x="179.375" y="840"/>
			<point x="199.375" y="840" type="curve" smooth="yes"/>
			<point x="219.375" y="840"/>
			<point x="234.375" y="852"/>
			<point name=".hr03" x="239.375" y="880" type="curve"/>
			<point x="289.375" y="880" type="line"/>
			<point x="275.375" y="793"/>
			<point name=".hr04" x="239.375" y="760"/>
			<point x="199.375" y="760" type="curve" smooth="yes"/>
			<point x="174.375" y="760"/>
			<point x="153.375" y="769"/>
			<point x="132.375" y="780" type="curve" smooth="yes"/>
			<point x="115.375" y="789"/>
			<point name=".hr05" x="93.375" y="800"/>
			<point x="73.375" y="800" type="curve" smooth="yes"/>
			<point x="53.375" y="800"/>
			<point x="38.375" y="788"/>
		</contour>
	</outline>
</glyph>
<glyph name="itilde" format="2">
	<unicode hex="0129"/>
	<advance width="280"/>
	<outline>
		<contour>
			<point x="37" y="540" type="curve"/>
			<point x="-13" y="540" type="line"/>
			<point x="1" y="627"/>
			<point name=".hr01" x="37" y="660"/>
			<point x="77" y="660" type="curve" smooth="yes"/>
			<point x="102" y="660"/>
			<point x="124" y="650"/>
			<point x="146" y="639" type="curve"/>
			<point x="162" y="630"/>
			<point name=".hr02" x="183" y="620"/>
			<point x="203" y="620" type="curve" smooth="yes"/>
			<point x="223" y="620"/>
			<point x="238" y="632"/>
			<point name=".hr03" x="243" y="660" type="curve"/>
			<point x="293" y="660" type="line"/>
			<point x="279" y="573"/>
			<point name=".hr04" x="243" y="540"/>
			<point x="203" y="540" type="curve" smooth="yes"/>
			<point x="178" y="540"/>
			<point x="157" y="549"/>
			<point x="136" y="560" type="curve" smooth="yes"/>
			<point x="119" y="569"/>
			<point name=".hr05" x="97" y="580"/>
			<point x="77" y="580" type="curve" smooth="yes"/>
			<point x="57" y="580"/>
			<point x="42" y="568"/>
		</contour>
		<contour>
			<point name=".hr06" x="260" y="0" type="line"/>
			<point x="100" y="0" type="line"/>
			<point x="100" y="460" type="line"/>
			<point x="260" y="460" type="line"/>
		</contour>
	</outline>
</glyph>
<glyph name="Ibreve" format="2">
	<unicode hex="012C"/>
	<advance width="273"/>
	<outline>
		<contour>
			<point x="216.5" y="0" type="line"/>
			<point x="56.25" y="0" type="line"/>
			<point x="56.25" y="680" type="line"/>
			<point x="216.5" y="680" type="line"/>
		</contour>
		<contour>
			<point name=".hr01" x="-18.625" y="880" type="curve"/>
			<point x="61.375" y="880" type="line"/>
			<point x="61.375" y="820"/>
			<point x="101.375" y="800"/>
			<point x="136.375" y="800" type="curve" smooth="yes"/>
			<point x="171.375" y="800"/>
			<point x="211.375" y="820"/>
			<point x="211.375" y="880" type="curve"/>
			<point x="291.375" y="880" type="line"/>
			<point x="291.375" y="780"/>
			<point name=".hr02" x="216.375" y="740"/>
			<point x="136.375" y="740" type="curve" smooth="yes"/>
			<point x="56.375" y="740"/>
			<point name=".hr03" x="-18.625" y="780"/>
		</contour>
	</outline>
</glyph>
<glyph name="ibreve" format="2">
	<unicode hex="012D"/>
	<advance width="280"/>
	<outline>
		<contour>
			<point x="-15" y="660" type="curve"/>
			<point x="65" y="660" type="line"/>
			<point x="65" y="600"/>
			<point x="105" y="580"/>
			<point x="140" y="580" type="curve" smooth="yes"/>
			<point x="175" y="580"/>
			<point x="215" y="600"/>
			<point x="215" y="660" type="curve"/>
			<point x="295" y="660" type="line"/>
			<point x="295" y="560"/>
			<point x="220" y="520"/>
			<point x="140" y="520" type="curve" smooth="yes"/>
			<point x="60" y="520"/>
			<point x="-15" y="560"/>
		</contour>
		<contour>
			<point x="260" y="0" type="line"/>
			<point name=".hr01" x="100" y="0" type="line"/>
			<point x="100" y="460" type="line"/>
			<point x="260" y="460" type="line"/>
		</contour>
	</outline>
</glyph>
<glyph name="Iogonek" format="2">
	<unicode hex="012E"/>
	<advance width="273"/>
	<outline>
		<contour>
			<point x="35.75" y="-126.375" type="curve" smooth="yes"/>
			<point x="35.75" y="-73.25"/>
			<point x="70.5" y="-28.875"/>
			<point x="106.125" y="0" type="curve"/>
			<point name=".hr01" x="56.25" y="0" type="line"/>
			<point x="56.25" y="680" type="line"/>
			<point x="216.5" y="680" type="line"/>
			<point x="216.5" y="0" type="line"/>
			<point x="213.625" y="0" type="line"/>
			<point x="171.625" y="-34.5"/>
			<point name=".hr02" x="161.625" y="-59.75"/>
			<point x="161.625" y="-81.875" type="curve" smooth="yes"/>
			<point x="161.625" y="-101.125"/>
			<point x="175" y="-111.25"/>
			<point x="191.875" y="-111.25" type="curve" smooth="yes"/>
			<point x="201" y="-111.25"/>
			<point x="211.75" y="-105"/>
			<point x="220.875" y="-97.625" type="curve"/>
			<point x="236.125" y="-182.875" type="line"/>
			<point name=".hr03" x="216.125" y="-197.125"/>
			<point x="176.625" y="-210"/>
			<point x="133.625" y="-210" type="curve" smooth="yes"/>
			<point x="72.875" y="-210"/>
			<point name=".hr04" x="35.75" y="-180.625"/>
		</contour>
	</outline>
</glyph>
<glyph name="Idotaccent" format="2">
	<unicode hex="0130"/>
	<advance width="273"/>
	<outline>
		<contour>
			<point x="216.5" y="0" type="line"/>
			<point x="56.25" y="0" type="line"/>
			<point x="56.25" y="680" type="line"/>
			<point x="216.5" y="680" type="line"/>
		</contour>
		<contour>
			<point x="216.375" y="740" type="line"/>
			<point x="56.375" y="740" type="line"/>
			<point x="56.375" y="872.5" type="line"/>
			<point x="216.375" y="872.5" type="line"/>
		</contour>
	</outline>
</glyph>
<glyph name="dotlessi" format="2">
	<unicode hex="0131"/>
	<advance width="325"/>
	<outline>
		<contour>
			<point x="242.5" y="0" type="line"/>
			<point x="82.5" y="0" type="line"/>
			<point x="82.5" y="460" type="line"/>
			<point x="242.5" y="460" type="line"/>
		</contour>
	</outline>
	<anchor name="top" x="162.5" y="520"/>
</glyph>
<glyph name="Jcircumflex" format="2">
	<unicode hex="0134"/>
	<advance width="286"/>
	<outline>
		<contour>
			<point x="117.75" y="0" type="curve" smooth="yes"/>
			<point x="50" y="0" type="line"/>
			<point x="50" y="142.5" type="line"/>
			<point x="76" y="142.5" type="line" smooth="yes"/>
			<point x="116" y="142.5"/>
			<point x="148" y="164.75"/>
			<point x="148" y="228.75" type="curve" smooth="yes"/>
			<point x="148" y="680" type="line"/>
			<point x="308.25" y="680" type="line"/>
			<point x="308.25" y="234" type="line" smooth="yes"/>
			<point x="308.25" y="103.75"/>
			<point x="275" y="0"/>
		</contour>
		<contour>
			<point x="193" y="845.75" type="line"/>
			<point x="111.5" y="750" type="line"/>
			<point x="26.75" y="750" type="line"/>
			<point x="129.25" y="927.5" type="line"/>
			<point x="256.75" y="927.5" type="line"/>
			<point x="359.25" y="750" type="line"/>
			<point x="274.5" y="750" type="line"/>
		</contour>
	</outline>
</glyph>
<glyph name="jcircumflex" format="2">
	<unicode hex="0135"/>
	<advance width="220"/>
	<outline>
		<contour>
			<point x="-103" y="-90" type="curve"/>
			<point x="-24" y="-90" type="line"/>
			<point x="-8" y="-114"/>
			<point x="7" y="-120"/>
			<point x="30" y="-120" type="curve" smooth="yes"/>
			<point x="55" y="-120"/>
			<point x="70" y="-103"/>
			<point x="70" y="-55" type="curve" smooth="yes"/>
			<point x="70" y="460" type="line"/>
			<point x="150" y="460" type="line"/>
			<point x="150" y="-31" type="line" smooth="yes"/>
			<point x="150" y="-139"/>
			<point x="93" y="-200"/>
			<point x="28" y="-200" type="curve" smooth="yes"/>
			<point x="-36" y="-200"/>
			<point x="-87" y="-149"/>
		</contour>
		<contour>
			<point x="110" y="615.75" type="line"/>
			<point x="28.5" y="520" type="line"/>
			<point x="-56.25" y="520" type="line"/>
			<point x="46.25" y="697.5" type="line"/>
			<point x="173.75" y="697.5" type="line"/>
			<point x="276.25" y="520" type="line"/>
			<point x="191.5" y="520" type="line"/>
		</contour>
	</outline>
</glyph>
<glyph name="uni0136" format="2">
	<unicode hex="0136"/>
	<advance width="683"/>
	<outline>
		<contour>
			<point x="216.5" y="243.125" type="line"/>
			<point x="216.5" y="0" type="line"/>
			<point x="56.25" y="0" type="line"/>
			<point x="56.25" y="680" type="line"/>
			<point x="216.5" y="680" type="line"/>
			<point x="216.5" y="374.625" type="line"/>
			<point x="281.875" y="391.625" type="line"/>
			<point x="455" y="680" type="line"/>
			<point x="633.25" y="680" type="line"/>
			<point x="433.25" y="350" type="line"/>
			<point x="673.25" y="0" type="line"/>
			<point x="477.5" y="0" type="line"/>
			<point x="298.25" y="268.375" type="line"/>
		</contour>
		<contour>
			<point x="323.625" y="-140" type="line"/>
			<point x="301.625" y="-140" type="line"/>
			<point x="301.625" y="-60" type="line"/>
			<point x="381.625" y="-60" type="line"/>
			<point x="381.625" y="-140" type="line"/>
			<point x="335.625" y="-270" type="line"/>
			<point x="301.625" y="-270" type="line"/>
		</contour>
	</outline>
</glyph>
<glyph name="Lacute" format="2">
	<unicode hex="0139"/>
	<advance width="516"/>
	<outline>
		<contour>
			<point x="216.5" y="680" type="line"/>
			<point x="216.5" y="142.5" type="line"/>
			<point x="493.875" y="142.5" type="line"/>
			<point x="493.875" y="0" type="line"/>
			<point x="56.25" y="0" type="line"/>
			<point x="56.25" y="680" type="line"/>
		</contour>
		<contour>
			<point x="263.875" y="916.25" type="line"/>
			<point x="181.375" y="710" type="line"/>
			<point x="22.125" y="710" type="line"/>
			<point x="89.625" y="916.25" type="line"/>
		</contour>
	</outline>
</glyph>
<glyph name="ldot" format="2">
	<unicode hex="0140"/>
	<advance width="370"/>
	<outline>
		<contour>
			<point x="300" y="230" type="line"/>
			<point x="220" y="230" type="line"/>
			<point x="220" y="310" type="line"/>
			<point x="300" y="310" type="line"/>
		</contour>
		<contour>
			<point x="150" y="0" type="line"/>
			<point x="70" y="0" type="line"/>
			<point x="70" y="700" type="line"/>
			<point x="150" y="700" type="line"/>
		</contour>
	</outline>
</glyph>
<glyph name="uni0145" format="2">
	<unicode hex="0145"/>
	<advance width="600"/>
	<outline>
		<contour>
			<point x="122.75" y="352.5" type="curve" smooth="yes"/>
			<point x="122.75" y="0" type="line"/>
			<point x="-37.5" y="0" type="line"/>
			<point x="-37.5" y="680" type="line"/>
			<point x="140.5" y="680" type="line"/>
			<point x="394.625" y="260.125" type="line"/>
			<point x="391.75" y="285.875"/>
			<point x="391.75" y="309.625"/>
			<point x="391.75" y="327.5" type="curve" smooth="yes"/>
			<point x="391.75" y="680" type="line"/>
			<point x="552" y="680" type="line"/>
			<point x="552" y="0" type="line"/>
			<point x="374" y="0" type="line"/>
			<point x="119.875" y="419.875" type="line"/>
			<point x="122.75" y="394.125"/>
			<point x="122.75" y="370.375"/>
		</contour>
		<contour>
			<point x="282" y="-140" type="line"/>
			<point x="260" y="-140" type="line"/>
			<point x="260" y="-60" type="line"/>
			<point x="340" y="-60" type="line"/>
			<point x="340" y="-140" type="line"/>
			<point x="294" y="-270" type="line"/>
			<point x="260" y="-270" type="line"/>
		</contour>
	</outline>
</glyph>
<glyph name="Ncaron" format="2">
	<unicode hex="0147"/>
	<advance width="560"/>
	<outline>
		<contour>
			<point x="240" y="770" type="line"/>
			<point x="120" y="950" type="line"/>
			<point x="184" y="950" type="line"/>
			<point x="280" y="823" type="line"/>
			<point x="376" y="950" type="line"/>
			<point x="440" y="950" type="line"/>
			<point x="320" y="770" type="line"/>
		</contour>
		<contour>
			<point x="140" y="0" type="line"/>
			<point x="50" y="0" type="line"/>
			<point x="50" y="700" type="line"/>
			<point x="190" y="700" type="line"/>
			<point x="420" y="105" type="line"/>
			<point x="420" y="700" type="line"/>
			<point x="510" y="700" type="line"/>
			<point x="510" y="0" type="line"/>
			<point x="370" y="0" type="line"/>
			<point x="140" y="597" type="line"/>
		</contour>
	</outline>
</glyph>
<glyph name="Omacron" format="2">
	<unicode hex="014C"/>
	<advance width="699"/>
	<outline>
		<contour>
			<point x="349.25" y="547.5" type="curve" smooth="yes"/>
			<point x="255.875" y="547.5"/>
			<point x="196.5" y="466.125"/>
			<point x="196.5" y="340" type="curve" smooth="yes"/>
			<point x="196.5" y="213.875"/>
			<point x="255.875" y="132.5"/>
			<point x="349.25" y="132.5" type="curve" smooth="yes"/>
			<point x="442.625" y="132.5"/>
			<point x="502" y="213.875"/>
			<point x="502" y="340" type="curve" smooth="yes"/>
			<point x="502" y="466.125"/>
			<point x="442.625" y="547.5"/>
		</contour>
		<contour>
			<point x="349.25" y="-10" type="curve" smooth="yes"/>
			<point x="148.75" y="-10"/>
			<point x="36.25" y="115.625"/>
			<point x="36.25" y="340" type="curve" smooth="yes"/>
			<point x="36.25" y="564.375"/>
			<point x="148.75" y="690"/>
			<point x="349.25" y="690" type="curve" smooth="yes"/>
			<point x="549.75" y="690"/>
			<point x="662.25" y="564.375"/>
			<point x="662.25" y="340" type="curve" smooth="yes"/>
			<point x="662.25" y="115.625"/>
			<point x="549.75" y="-10"/>
		</contour>
		<contour>
			<point x="486" y="860" type="line"/>
			<point x="486" y="790" type="line"/>
			<point x="216" y="790" type="line"/>
			<point x="216" y="860" type="line"/>
		</contour>
	</outline>
</glyph>
<glyph name="Obreve" format="2">
	<unicode hex="014E"/>
	<advance width="699"/>
	<outline>
		<contour>
			<point x="349.25" y="547.5" type="curve" smooth="yes"/>
			<point x="255.875" y="547.5"/>
			<point x="196.5" y="466.125"/>
			<point x="196.5" y="340" type="curve" smooth="yes"/>
			<point x="196.5" y="213.875"/>
			<point x="255.875" y="132.5"/>
			<point x="349.25" y="132.5" type="curve" smooth="yes"/>
			<point x="442.625" y="132.5"/>
			<point x="502" y="213.875"/>
			<point x="502" y="340" type="curve" smooth="yes"/>
			<point x="502" y="466.125"/>
			<point x="442.625" y="547.5"/>
		</contour>
		<contour>
			<point x="349.25" y="-10" type="curve" smooth="yes"/>
			<point x="148.75" y="-10"/>
			<point x="36.25" y="115.625"/>
			<point x="36.25" y="340" type="curve" smooth="yes"/>
			<point x="36.25" y="564.375"/>
			<point x="148.75" y="690"/>
			<point x="349.25" y="690" type="curve" smooth="yes"/>
			<point x="549.75" y="690"/>
			<point x="662.25" y="564.375"/>
			<point x="662.25" y="340" type="curve" smooth="yes"/>
			<point x="662.25" y="115.625"/>
			<point x="549.75" y="-10"/>
		</contour>
		<contour>
			<point x="196" y="880" type="curve"/>
			<point x="276" y="880" type="line"/>
			<point x="276" y="820"/>
			<point name=".hr01" x="316" y="800"/>
			<point x="351" y="800" type="curve" smooth="yes"/>
			<point x="386" y="800"/>
			<point x="426" y="820"/>
			<point x="426" y="880" type="curve"/>
			<point x="506" y="880" type="line"/>
			<point x="506" y="780"/>
			<point x="431" y="740"/>
			<point x="351" y="740" type="curve" smooth="yes"/>
			<point x="271" y="740"/>
			<point x="196" y="780"/>
		</contour>
	</outline>
</glyph>
<glyph name="Ohungarumlaut" format="2">
	<unicode hex="0150"/>
	<advance width="699"/>
	<outline>
		<contour>
			<point x="349.25" y="547.5" type="curve" smooth="yes"/>
			<point x="255.875" y="547.5"/>
			<point x="196.5" y="466.125"/>
			<point x="196.5" y="340" type="curve" smooth="yes"/>
			<point x="196.5" y="213.875"/>
			<point x="255.875" y="132.5"/>
			<point x="349.25" y="132.5" type="curve" smooth="yes"/>
			<point x="442.625" y="132.5"/>
			<point x="502" y="213.875"/>
			<point x="502" y="340" type="curve" smooth="yes"/>
			<point x="502" y="466.125"/>
			<point x="442.625" y="547.5"/>
		</contour>
		<contour>
			<point x="349.25" y="-10" type="curve" smooth="yes"/>
			<point x="148.75" y="-10"/>
			<point x="36.25" y="115.625"/>
			<point x="36.25" y="340" type="curve" smooth="yes"/>
			<point x="36.25" y="564.375"/>
			<point x="148.75" y="690"/>
			<point x="349.25" y="690" type="curve" smooth="yes"/>
			<point x="549.75" y="690"/>
			<point x="662.25" y="564.375"/>
			<point x="662.25" y="340" type="curve" smooth="yes"/>
			<point x="662.25" y="115.625"/>
			<point x="549.75" y="-10"/>
		</contour>
		<contour>
			<point x="357.25" y="910" type="line"/>
			<point x="296.25" y="730" type="line"/>
			<point x="232.25" y="730" type="line"/>
			<point x="277.25" y="910" type="line"/>
		</contour>
		<contour>
			<point x="467.25" y="910" type="line"/>
			<point x="391.25" y="730" type="line"/>
			<point x="327.25" y="730" type="line"/>
			<point x="387.25" y="910" type="line"/>
		</contour>
	</outline>
</glyph>
<glyph name="uni0157" format="2">
	<unicode hex="0157"/>
	<advance width="370"/>
	<outline>
		<contour>
			<point x="45" y="-60" type="curve"/>
			<point x="125" y="-60" type="line"/>
			<point x="125" y="-140" type="line"/>
			<point x="79" y="-270" type="line"/>
			<point x="45" y="-270" type="line"/>
			<point x="67" y="-140" type="line"/>
			<point x="45" y="-140" type="line"/>
			<point x="45" y="-113"/>
			<point x="45" y="-87"/>
		</contour>
		<contour>
			<point x="125" y="0" type="line"/>
			<point x="45" y="0" type="line"/>
			<point x="45" y="460" type="line"/>
			<point x="125" y="460" type="line"/>
			<point x="125" y="370" type="line"/>
			<point x="148" y="421"/>
			<point x="212" y="470"/>
			<point x="272" y="470" type="curve" smooth="yes"/>
			<point x="295" y="470"/>
			<point x="317" y="466"/>
			<point x="335" y="460" type="curve"/>
			<point x="335" y="359" type="line"/>
			<point x="312" y="379"/>
			<point x="278" y="390"/>
			<point x="246" y="390" type="curve" smooth="yes"/>
			<point x="172" y="390"/>
			<point x="134" y="293"/>
			<point x="125" y="233" type="curve"/>
		</contour>
	</outline>
</glyph>
<glyph name="Scircumflex" format="2">
	<unicode hex="015C"/>
	<advance width="582"/>
	<outline>
		<contour>
			<point x="33.5" y="219.25" type="curve"/>
			<point x="202.5" y="219.25" type="line"/>
			<point x="202.5" y="170.375"/>
			<point x="233.625" y="132.5"/>
			<point x="291.625" y="132.5" type="curve" smooth="yes"/>
			<point x="351.5" y="132.5"/>
			<point x="380.5" y="158.25"/>
			<point x="380.5" y="191.875" type="curve" smooth="yes"/>
			<point x="380.5" y="225.25"/>
			<point x="362.875" y="249.375"/>
			<point x="332.375" y="263" type="curve"/>
			<point x="145.75" y="359.625" type="line" smooth="yes"/>
			<point x="89.125" y="388.5"/>
			<point name=".hr01" x="51.625" y="433"/>
			<point x="51.625" y="496.625" type="curve" smooth="yes"/>
			<point x="51.625" y="613.875"/>
			<point x="141.625" y="690"/>
			<point x="297.125" y="690" type="curve" smooth="yes"/>
			<point x="441.25" y="690"/>
			<point x="547.5" y="592.75"/>
			<point x="547.5" y="483.5" type="curve"/>
			<point x="378.5" y="483.5" type="line"/>
			<point x="378.5" y="517.875"/>
			<point x="350.875" y="547.5"/>
			<point x="287.375" y="547.5" type="curve" smooth="yes"/>
			<point x="242.375" y="547.5"/>
			<point x="220.625" y="533.625"/>
			<point x="220.625" y="497.5" type="curve" smooth="yes"/>
			<point x="220.625" y="476.625"/>
			<point x="232.375" y="461.875"/>
			<point x="265.875" y="446.25" type="curve"/>
			<point x="442.875" y="356.5" type="line" smooth="yes"/>
			<point x="512.625" y="321.875"/>
			<point x="549.5" y="271.625"/>
			<point x="549.5" y="188.875" type="curve" smooth="yes"/>
			<point x="549.5" y="67.75"/>
			<point x="457.25" y="-10"/>
			<point x="285.875" y="-10" type="curve" smooth="yes"/>
			<point x="137.125" y="-10"/>
			<point name=".hr02" x="33.5" y="88"/>
		</contour>
		<contour>
			<point x="290" y="845.75" type="line"/>
			<point x="208.5" y="750" type="line"/>
			<point x="123.75" y="750" type="line"/>
			<point x="226.25" y="927.5" type="line"/>
			<point x="353.75" y="927.5" type="line"/>
			<point x="456.25" y="750" type="line"/>
			<point x="371.5" y="750" type="line"/>
		</contour>
	</outline>
</glyph>
<glyph name="scircumflex" format="2">
	<unicode hex="015D"/>
	<advance width="452"/>
	<outline>
		<contour>
			<point x="35" y="136" type="curve"/>
			<point x="114" y="136" type="line"/>
			<point x="114" y="62"/>
			<point x="192" y="55"/>
			<point x="237" y="55" type="curve" smooth="yes"/>
			<point x="261" y="55"/>
			<point x="335" y="67"/>
			<point x="335" y="130" type="curve" smooth="yes"/>
			<point x="335" y="236"/>
			<point name=".hr01" x="55" y="185"/>
			<point x="55" y="340" type="curve" smooth="yes"/>
			<point x="55" y="407"/>
			<point x="105" y="470"/>
			<point x="215" y="470" type="curve" smooth="yes"/>
			<point x="307" y="470"/>
			<point x="397" y="414"/>
			<point x="397" y="336" type="curve"/>
			<point x="316" y="336" type="line"/>
			<point x="304" y="378"/>
			<point x="265" y="405"/>
			<point x="215" y="405" type="curve" smooth="yes"/>
			<point x="170" y="405"/>
			<point x="135" y="385"/>
			<point x="135" y="340" type="curve" smooth="yes"/>
			<point x="135" y="263"/>
			<point x="417" y="288"/>
			<point x="417" y="130" type="curve" smooth="yes"/>
			<point x="417" y="10"/>
			<point x="314" y="-10"/>
			<point x="237" y="-10" type="curve" smooth="yes"/>
			<point x="133" y="-10"/>
			<point name=".hr02" x="35" y="52"/>
		</contour>
		<contour>
			<point x="210" y="615.75" type="line"/>
			<point x="128.5" y="520" type="line"/>
			<point x="43.75" y="520" type="line"/>
			<point x="146.25" y="697.5" type="line"/>
			<point x="273.75" y="697.5" type="line"/>
			<point x="376.25" y="520" type="line"/>
			<point x="291.5" y="520" type="line"/>
		</contour>
	</outline>
</glyph>
<glyph name="Scaron" format="2">
	<unicode hex="0160"/>
	<advance width="582"/>
	<outline>
		<contour>
			<point x="33.5" y="219.25" type="curve"/>
			<point x="202.5" y="219.25" type="line"/>
			<point x="202.5" y="170.375"/>
			<point x="233.625" y="132.5"/>
			<point x="291.625" y="132.5" type="curve" smooth="yes"/>
			<point x="351.5" y="132.5"/>
			<point x="380.5" y="158.25"/>
			<point x="380.5" y="191.875" type="curve" smooth="yes"/>
			<point x="380.5" y="225.25"/>
			<point x="362.875" y="249.375"/>
			<point x="332.375" y="263" type="curve"/>
			<point x="145.75" y="359.625" type="line" smooth="yes"/>
			<point x="89.125" y="388.5"/>
			<point name=".hr01" x="51.625" y="433"/>
			<point x="51.625" y="496.625" type="curve" smooth="yes"/>
			<point x="51.625" y="613.875"/>
			<point x="141.625" y="690"/>
			<point x="297.125" y="690" type="curve" smooth="yes"/>
			<point x="441.25" y="690"/>
			<point x="547.5" y="592.75"/>
			<point x="547.5" y="483.5" type="curve"/>
			<point x="378.5" y="483.5" type="line"/>
			<point x="378.5" y="517.875"/>
			<point x="350.875" y="547.5"/>
			<point x="287.375" y="547.5" type="curve" smooth="yes"/>
			<point x="242.375" y="547.5"/>
			<point x="220.625" y="533.625"/>
			<point x="220.625" y="497.5" type="curve" smooth="yes"/>
			<point x="220.625" y="476.625"/>
			<point x="232.375" y="461.875"/>
			<point x="265.875" y="446.25" type="curve"/>
			<point x="442.875" y="356.5" type="line" smooth="yes"/>
			<point x="512.625" y="321.875"/>
			<point x="549.5" y="271.625"/>
			<point x="549.5" y="188.875" type="curve" smooth="yes"/>
			<point x="549.5" y="67.75"/>
			<point x="457.25" y="-10"/>
			<point x="285.875" y="-10" type="curve" smooth="yes"/>
			<point x="137.125" y="-10"/>
			<point name=".hr02" x="33.5" y="88"/>
		</contour>
		<contour>
			<point x="330" y="750" type="line"/>
			<point x="250" y="750" type="line"/>
			<point x="150" y="910" type="line"/>
			<point x="214" y="910" type="line"/>
			<point x="290" y="825" type="line"/>
			<point x="366" y="910" type="line"/>
			<point x="430" y="910" type="line"/>
		</contour>
	</outline>
</glyph>
<glyph name="uni0162" format="2">
	<unicode hex="0162"/>
	<advance width="480"/>
	<outline>
		<contour>
			<point x="320.125" y="537.5" type="line"/>
			<point x="320.125" y="0" type="line"/>
			<point x="159.875" y="0" type="line"/>
			<point x="159.875" y="537.5" type="line"/>
			<point x="10" y="537.5" type="line"/>
			<point x="10" y="680" type="line"/>
			<point x="470" y="680" type="line"/>
			<point x="470" y="537.5" type="line"/>
		</contour>
		<contour>
			<point x="222" y="-140" type="line"/>
			<point name=".hr01" x="200" y="-140" type="line"/>
			<point x="200" y="-60" type="line"/>
			<point x="280" y="-60" type="line"/>
			<point x="280" y="-140" type="line"/>
			<point x="234" y="-270" type="line"/>
			<point x="200" y="-270" type="line"/>
		</contour>
	</outline>
</glyph>
<glyph name="Tcaron" format="2">
	<unicode hex="0164"/>
	<advance width="480"/>
	<outline>
		<contour>
			<point x="320.125" y="537.5" type="line"/>
			<point x="320.125" y="0" type="line"/>
			<point x="159.875" y="0" type="line"/>
			<point x="159.875" y="537.5" type="line"/>
			<point x="10" y="537.5" type="line"/>
			<point x="10" y="680" type="line"/>
			<point x="470" y="680" type="line"/>
			<point x="470" y="537.5" type="line"/>
		</contour>
		<contour>
			<point x="280" y="740" type="line"/>
			<point x="200" y="740" type="line"/>
			<point x="100" y="900" type="line"/>
			<point x="164" y="900" type="line"/>
			<point x="240" y="815" type="line"/>
			<point x="316" y="900" type="line"/>
			<point x="380" y="900" type="line"/>
		</contour>
	</outline>
</glyph>
<glyph name="Utilde" format="2">
	<unicode hex="0168"/>
	<advance width="630"/>
	<outline>
		<contour>
			<point x="50" y="265" type="curve" smooth="yes"/>
			<point x="50" y="680" type="line"/>
			<point x="210" y="680" type="line"/>
			<point x="210" y="302.5" type="line" smooth="yes"/>
			<point x="210" y="194.625"/>
			<point x="237.5" y="141.25"/>
			<point x="315" y="141.25" type="curve" smooth="yes"/>
			<point x="392.5" y="141.25"/>
			<point x="420" y="194.625"/>
			<point x="420" y="302.5" type="curve" smooth="yes"/>
			<point x="420" y="680" type="line"/>
			<point x="580" y="680" type="line"/>
			<point x="580" y="265" type="line" smooth="yes"/>
			<point x="580" y="84"/>
			<point x="482.5" y="-10"/>
			<point x="315" y="-10" type="curve" smooth="yes"/>
			<point x="147.5" y="-10"/>
			<point x="50" y="84"/>
		</contour>
		<contour>
			<point x="212" y="760" type="curve"/>
			<point x="162" y="760" type="line"/>
			<point x="176" y="847"/>
			<point x="212" y="880"/>
			<point name=".hr01" x="252" y="880" type="curve" smooth="yes"/>
			<point x="277" y="880"/>
			<point x="299" y="870"/>
			<point x="321" y="859" type="curve"/>
			<point x="337" y="850"/>
			<point x="358" y="840"/>
			<point name=".hr02" x="378" y="840" type="curve" smooth="yes"/>
			<point x="398" y="840"/>
			<point x="413" y="852"/>
			<point x="418" y="880" type="curve"/>
			<point name=".hr03" x="468" y="880" type="line"/>
			<point x="454" y="793"/>
			<point x="418" y="760"/>
			<point name=".hr04" x="378" y="760" type="curve" smooth="yes"/>
			<point x="353" y="760"/>
			<point x="332" y="769"/>
			<point x="311" y="780" type="curve" smooth="yes"/>
			<point x="294" y="789"/>
			<point x="272" y="800"/>
			<point name=".hr05" x="252" y="800" type="curve" smooth="yes"/>
			<point x="232" y="800"/>
			<point x="217" y="788"/>
		</contour>
	</outline>
</glyph>
<glyph name="Umacron" format="2">
	<unicode hex="016A"/>
	<advance width="560"/>
	<outline>
		<contour>
			<point x="415" y="750" type="line"/>
			<point x="145" y="750" type="line"/>
			<point x="145" y="820" type="line"/>
			<point x="415" y="820" type="line"/>
		</contour>
		<contour>
			<point name=".hr01" x="15" y="265" type="curve" smooth="yes"/>
			<point x="15" y="680" type="line"/>
			<point x="175" y="680" type="line"/>
			<point x="175" y="302.5" type="line" smooth="yes"/>
			<point x="175" y="194.625"/>
			<point x="202.5" y="141.25"/>
			<point x="280" y="141.25" type="curve" smooth="yes"/>
			<point x="357.5" y="141.25"/>
			<point x="385" y="194.625"/>
			<point x="385" y="302.5" type="curve" smooth="yes"/>
			<point x="385" y="680" type="line"/>
			<point x="545" y="680" type="line"/>
			<point x="545" y="265" type="line" smooth="yes"/>
			<point x="545" y="84"/>
			<point x="447.5" y="-10"/>
			<point x="280" y="-10" type="curve" smooth="yes"/>
			<point x="112.5" y="-10"/>
			<point x="15" y="84"/>
		</contour>
	</outline>
</glyph>
<glyph name="Ubreve" format="2">
	<unicode hex="016C"/>
	<advance width="560"/>
	<outline>
		<contour>
			<point x="125" y="890" type="curve"/>
			<point x="205" y="890" type="line"/>
			<point x="205" y="830"/>
			<point x="245" y="810"/>
			<point x="280" y="810" type="curve" smooth="yes"/>
			<point x="315" y="810"/>
			<point x="355" y="830"/>
			<point x="355" y="890" type="curve"/>
			<point x="435" y="890" type="line"/>
			<point x="435" y="790"/>
			<point x="360" y="750"/>
			<point x="280" y="750" type="curve" smooth="yes"/>
			<point x="200" y="750"/>
			<point x="125" y="790"/>
		</contour>
		<contour>
			<point x="15" y="265" type="curve" smooth="yes"/>
			<point name=".hr01" x="15" y="680" type="line"/>
			<point x="175" y="680" type="line"/>
			<point x="175" y="302.5" type="line" smooth="yes"/>
			<point x="175" y="194.625"/>
			<point x="202.5" y="141.25"/>
			<point x="280" y="141.25" type="curve" smooth="yes"/>
			<point x="357.5" y="141.25"/>
			<point x="385" y="194.625"/>
			<point x="385" y="302.5" type="curve" smooth="yes"/>
			<point x="385" y="680" type="line"/>
			<point x="545" y="680" type="line"/>
			<point x="545" y="265" type="line" smooth="yes"/>
			<point x="545" y="84"/>
			<point x="447.5" y="-10"/>
			<point x="280" y="-10" type="curve" smooth="yes"/>
			<point x="112.5" y="-10"/>
			<point x="15" y="84"/>
		</contour>
	</outline>
</glyph>
<glyph name="Uring" format="2">
	<unicode hex="016E"/>
	<advance width="560"/>
	<outline>
		<contour>
			<point x="240" y="819" type="curve" smooth="yes"/>
			<point x="240" y="802"/>
			<point x="254" y="788"/>
			<point x="271" y="788" type="curve" smooth="yes"/>
			<point x="288" y="788"/>
			<point x="302" y="802"/>
			<point x="302" y="819" type="curve" smooth="yes"/>
			<point x="302" y="836"/>
			<point x="288" y="850"/>
			<point x="271" y="850" type="curve" smooth="yes"/>
			<point x="254" y="850"/>
			<point x="240" y="836"/>
		</contour>
		<contour>
			<point x="15" y="265" type="curve" smooth="yes"/>
			<point x="15" y="680" type="line"/>
			<point x="175" y="680" type="line"/>
			<point x="175" y="302.5" type="line" smooth="yes"/>
			<point x="175" y="194.625"/>
			<point x="202.5" y="141.25"/>
			<point x="280" y="141.25" type="curve" smooth="yes"/>
			<point x="357.5" y="141.25"/>
			<point x="385" y="194.625"/>
			<point x="385" y="302.5" type="curve" smooth="yes"/>
			<point x="385" y="680" type="line"/>
			<point x="545" y="680" type="line"/>
			<point x="545" y="265" type="line" smooth="yes"/>
			<point x="545" y="84"/>
			<point x="447.5" y="-10"/>
			<point x="280" y="-10" type="curve" smooth="yes"/>
			<point x="112.5" y="-10"/>
			<point x="15" y="84"/>
		</contour>
		<contour>
			<point x="193" y="819" type="curve" smooth="yes"/>
			<point x="193" y="862"/>
			<point x="228" y="897"/>
			<point x="271" y="897" type="curve" smooth="yes"/>
			<point x="314" y="897"/>
			<point x="349" y="862"/>
			<point x="349" y="819" type="curve" smooth="yes"/>
			<point x="349" y="776"/>
			<point x="314" y="741"/>
			<point x="271" y="741" type="curve" smooth="yes"/>
			<point x="228" y="741"/>
			<point x="193" y="776"/>
		</contour>
	</outline>
</glyph>
<glyph name="Uhungarumlaut" format="2">
	<unicode hex="0170"/>
	<advance width="630"/>
	<outline>
		<contour>
			<point x="50" y="265" type="curve" smooth="yes"/>
			<point x="50" y="680" type="line"/>
			<point x="210" y="680" type="line"/>
			<point x="210" y="302.5" type="line" smooth="yes"/>
			<point x="210" y="194.625"/>
			<point x="237.5" y="141.25"/>
			<point x="315" y="141.25" type="curve" smooth="yes"/>
			<point x="392.5" y="141.25"/>
			<point x="420" y="194.625"/>
			<point x="420" y="302.5" type="curve" smooth="yes"/>
			<point x="420" y="680" type="line"/>
			<point x="580" y="680" type="line"/>
			<point x="580" y="265" type="line" smooth="yes"/>
			<point x="580" y="84"/>
			<point x="482.5" y="-10"/>
			<point x="315" y="-10" type="curve" smooth="yes"/>
			<point x="147.5" y="-10"/>
			<point x="50" y="84"/>
		</contour>
		<contour>
			<point x="357" y="730" type="line"/>
			<point x="293" y="730" type="line"/>
			<point x="353" y="910" type="line"/>
			<point x="433" y="910" type="line"/>
		</contour>
		<contour>
			<point x="262" y="730" type="line"/>
			<point x="198" y="730" type="line"/>
			<point x="243" y="910" type="line"/>
			<point x="323" y="910" type="line"/>
		</contour>
	</outline>
</glyph>
<glyph name="uni01C6" format="2">
	<unicode hex="01C6"/>
	<advance width="941"/>
	<outline>
		<contour>
			<point x="115" y="230" type="curve" smooth="yes"/>
			<point x="115" y="123"/>
			<point x="156" y="55"/>
			<point x="245" y="55" type="curve" smooth="yes"/>
			<point x="324" y="55"/>
			<point x="365" y="123"/>
			<point x="365" y="230" type="curve" smooth="yes"/>
			<point x="365" y="321"/>
			<point x="330" y="405"/>
			<point x="245" y="405" type="curve" smooth="yes"/>
			<point x="135" y="405"/>
			<point x="115" y="305"/>
		</contour>
		<contour>
			<point x="35" y="230" type="curve"/>
			<point x="36" y="231" type="line"/>
			<point x="36" y="345"/>
			<point x="92" y="471"/>
			<point x="226" y="471" type="curve" smooth="yes"/>
			<point x="286" y="471"/>
			<point x="338" y="437"/>
			<point x="366" y="381" type="curve"/>
			<point x="366" y="700" type="line"/>
			<point x="446" y="700" type="line"/>
			<point x="446" y="0" type="line"/>
			<point name=".hr01" x="366" y="0" type="line"/>
			<point x="366" y="72" type="line"/>
			<point x="343" y="21"/>
			<point x="283" y="-10"/>
			<point name=".hr02" x="225" y="-10" type="curve" smooth="yes"/>
			<point x="96" y="-10"/>
			<point x="35" y="100"/>
		</contour>
		<contour>
			<point x="901" y="65" type="line"/>
			<point x="901" y="0" type="line"/>
			<point name=".hr03" x="531" y="0" type="line"/>
			<point x="531" y="65" type="line"/>
			<point x="801" y="395" type="line"/>
			<point x="531" y="395" type="line"/>
			<point x="531" y="460" type="line"/>
			<point x="901" y="460" type="line"/>
			<point x="901" y="395" type="line"/>
			<point x="641" y="65" type="line"/>
		</contour>
		<contour>
			<point x="761" y="530" type="line"/>
			<point x="681" y="530" type="line"/>
			<point x="561" y="710" type="line"/>
			<point x="625" y="710" type="line"/>
			<point x="721" y="583" type="line"/>
			<point x="817" y="710" type="line"/>
			<point x="881" y="710" type="line"/>
		</contour>
	</outline>
</glyph>
<glyph name="uni01CA" format="2">
	<unicode hex="01CA"/>
	<advance width="886"/>
	<outline>
		<contour>
			<point x="122.75" y="352.5" type="curve" smooth="yes"/>
			<point x="122.75" y="0" type="line"/>
			<point x="-37.5" y="0" type="line"/>
			<point x="-37.5" y="680" type="line"/>
			<point x="140.5" y="680" type="line"/>
			<point x="394.625" y="260.125" type="line"/>
			<point x="391.75" y="285.875"/>
			<point x="391.75" y="309.625"/>
			<point x="391.75" y="327.5" type="curve" smooth="yes"/>
			<point x="391.75" y="680" type="line"/>
			<point x="552" y="680" type="line"/>
			<point x="552" y="0" type="line"/>
			<point x="374" y="0" type="line"/>
			<point x="119.875" y="419.875" type="line"/>
			<point x="122.75" y="394.125"/>
			<point x="122.75" y="370.375"/>
		</contour>
		<contour>
			<point x="717.75" y="0" type="curve" smooth="yes"/>
			<point x="650" y="0" type="line"/>
			<point x="650" y="142.5" type="line"/>
			<point x="676" y="142.5" type="line" smooth="yes"/>
			<point x="716" y="142.5"/>
			<point x="748" y="164.75"/>
			<point x="748" y="228.75" type="curve" smooth="yes"/>
			<point x="748" y="680" type="line"/>
			<point x="908.25" y="680" type="line"/>
			<point x="908.25" y="234" type="line" smooth="yes"/>
			<point x="908.25" y="103.75"/>
			<point x="875" y="0"/>
		</contour>
	</outline>
</glyph>
<glyph name="uni01CB" format="2">
	<unicode hex="01CB"/>
	<advance width="830"/>
	<outline>
		<contour>
			<point x="532" y="-100" type="curve"/>
			<point x="597" y="-100" type="line"/>
			<point x="600" y="-132"/>
			<point x="621" y="-140"/>
			<point x="636" y="-140" type="curve" smooth="yes"/>
			<point x="660" y="-140"/>
			<point x="680" y="-136"/>
			<point x="680" y="-80" type="curve" smooth="yes"/>
			<point x="680" y="460" type="line"/>
			<point x="760" y="460" type="line"/>
			<point x="760" y="-60" type="line" smooth="yes"/>
			<point x="760" y="-181"/>
			<point x="704" y="-200"/>
			<point x="640" y="-200" type="curve" smooth="yes"/>
			<point x="584" y="-200"/>
			<point x="536" y="-162"/>
		</contour>
		<contour>
			<point x="122.75" y="352.5" type="curve" smooth="yes"/>
			<point x="122.75" y="0" type="line"/>
			<point x="-37.5" y="0" type="line"/>
			<point x="-37.5" y="680" type="line"/>
			<point x="140.5" y="680" type="line"/>
			<point x="394.625" y="260.125" type="line"/>
			<point x="391.75" y="285.875"/>
			<point name=".hr01" x="391.75" y="309.625"/>
			<point x="391.75" y="327.5" type="curve" smooth="yes"/>
			<point x="391.75" y="680" type="line"/>
			<point x="552" y="680" type="line"/>
			<point x="552" y="0" type="line"/>
			<point x="374" y="0" type="line"/>
			<point x="119.875" y="419.875" type="line"/>
			<point x="122.75" y="394.125"/>
			<point x="122.75" y="370.375"/>
		</contour>
		<contour>
			<point x="760" y="640" type="line"/>
			<point x="760" y="560" type="line"/>
			<point name=".hr02" x="680" y="560" type="line"/>
			<point x="680" y="640" type="line"/>
		</contour>
	</outline>
</glyph>
<glyph name="uni01CC" format="2">
	<unicode hex="01CC"/>
	<advance width="708"/>
	<outline>
		<contour>
			<point x="638" y="560" type="line"/>
			<point x="558" y="560" type="line"/>
			<point x="558" y="640" type="line"/>
			<point x="638" y="640" type="line"/>
		</contour>
		<contour>
			<point x="410" y="-100" type="curve"/>
			<point x="475" y="-100" type="line"/>
			<point x="478" y="-132"/>
			<point x="499" y="-140"/>
			<point x="514" y="-140" type="curve" smooth="yes"/>
			<point x="538" y="-140"/>
			<point x="558" y="-136"/>
			<point x="558" y="-80" type="curve" smooth="yes"/>
			<point x="558" y="460" type="line"/>
			<point x="638" y="460" type="line"/>
			<point x="638" y="-60" type="line" smooth="yes"/>
			<point x="638" y="-181"/>
			<point x="582" y="-200"/>
			<point x="518" y="-200" type="curve" smooth="yes"/>
			<point x="462" y="-200"/>
			<point x="414" y="-162"/>
		</contour>
		<contour>
			<point x="205" y="0" type="line"/>
			<point x="45" y="0" type="line"/>
			<point x="45" y="460" type="line"/>
			<point x="187" y="460" type="line"/>
			<point x="205" y="357.5" type="line"/>
		</contour>
	</outline>
</glyph>
<glyph name="uni01CF" format="2">
	<unicode hex="01CF"/>
	<advance width="273"/>
	<outline>
		<contour>
			<point x="216.5" y="680" type="line"/>
			<point x="216.5" y="0" type="line"/>
			<point x="56.25" y="0" type="line"/>
			<point x="56.25" y="680" type="line"/>
		</contour>
		<contour>
			<point x="176.375" y="740" type="line"/>
			<point x="96.375" y="740" type="line"/>
			<point x="-3.625" y="900" type="line"/>
			<point x="60.375" y="900" type="line"/>
			<point x="136.375" y="815" type="line"/>
			<point x="212.375" y="900" type="line"/>
			<point x="276.375" y="900" type="line"/>
		</contour>
	</outline>
</glyph>
<glyph name="uni01D1" format="2">
	<unicode hex="01D1"/>
	<advance width="699"/>
	<outline>
		<contour>
			<point x="349.25" y="547.5" type="curve" smooth="yes"/>
			<point x="255.875" y="547.5"/>
			<point x="196.5" y="466.125"/>
			<point x="196.5" y="340" type="curve" smooth="yes"/>
			<point x="196.5" y="213.875"/>
			<point x="255.875" y="132.5"/>
			<point x="349.25" y="132.5" type="curve" smooth="yes"/>
			<point x="442.625" y="132.5"/>
			<point x="502" y="213.875"/>
			<point x="502" y="340" type="curve" smooth="yes"/>
			<point x="502" y="466.125"/>
			<point x="442.625" y="547.5"/>
		</contour>
		<contour>
			<point x="349.25" y="-10" type="curve" smooth="yes"/>
			<point x="148.75" y="-10"/>
			<point x="36.25" y="115.625"/>
			<point x="36.25" y="340" type="curve" smooth="yes"/>
			<point x="36.25" y="564.375"/>
			<point x="148.75" y="690"/>
			<point x="349.25" y="690" type="curve" smooth="yes"/>
			<point x="549.75" y="690"/>
			<point x="662.25" y="564.375"/>
			<point x="662.25" y="340" type="curve" smooth="yes"/>
			<point x="662.25" y="115.625"/>
			<point x="549.75" y="-10"/>
		</contour>
		<contour>
			<point x="391" y="740" type="line"/>
			<point x="311" y="740" type="line"/>
			<point x="211" y="900" type="line"/>
			<point x="275" y="900" type="line"/>
			<point x="351" y="815" type="line"/>
			<point x="427" y="900" type="line"/>
			<point x="491" y="900" type="line"/>
		</contour>
	</outline>
</glyph>
<glyph name="uni01D3" format="2">
	<unicode hex="01D3"/>
	<advance width="560"/>
	<outline>
		<contour>
			<point x="15" y="265" type="curve" smooth="yes"/>
			<point x="15" y="680" type="line"/>
			<point x="175" y="680" type="line"/>
			<point x="175" y="302.5" type="line" smooth="yes"/>
			<point x="175" y="194.625"/>
			<point x="202.5" y="141.25"/>
			<point x="280" y="141.25" type="curve" smooth="yes"/>
			<point x="357.5" y="141.25"/>
			<point x="385" y="194.625"/>
			<point x="385" y="302.5" type="curve" smooth="yes"/>
			<point x="385" y="680" type="line"/>
			<point x="545" y="680" type="line"/>
			<point x="545" y="265" type="line" smooth="yes"/>
			<point x="545" y="84"/>
			<point x="447.5" y="-10"/>
			<point x="280" y="-10" type="curve" smooth="yes"/>
			<point x="112.5" y="-10"/>
			<point x="15" y="84"/>
		</contour>
		<contour>
			<point x="320" y="750" type="line"/>
			<point x="240" y="750" type="line"/>
			<point x="140" y="910" type="line"/>
			<point x="204" y="910" type="line"/>
			<point x="280" y="825" type="line"/>
			<point x="356" y="910" type="line"/>
			<point x="420" y="910" type="line"/>
		</contour>
	</outline>
</glyph>
<glyph name="uni01D4" format="2">
	<unicode hex="01D4"/>
	<advance width="478"/>
	<outline>
		<contour>
			<point x="354" y="154" type="curve"/>
			<point x="354" y="460" type="line"/>
			<point x="433" y="460" type="line"/>
			<point x="433" y="0" type="line"/>
			<point x="374" y="0" type="line"/>
			<point x="357" y="83" type="line"/>
			<point x="323" y="36"/>
			<point x="275" y="-10"/>
			<point x="200" y="-10" type="curve" smooth="yes"/>
			<point x="51" y="-10"/>
			<point x="45" y="98"/>
			<point x="45" y="165" type="curve" smooth="yes"/>
			<point x="45" y="460" type="line"/>
			<point x="125" y="460" type="line"/>
			<point x="125" y="165" type="line" smooth="yes"/>
			<point x="125" y="121"/>
			<point x="134" y="55"/>
			<point x="222" y="55" type="curve" smooth="yes"/>
			<point x="266" y="55"/>
			<point x="330" y="90"/>
		</contour>
		<contour>
			<point x="279" y="520" type="line"/>
			<point x="199" y="520" type="line"/>
			<point x="99" y="680" type="line"/>
			<point x="163" y="680" type="line"/>
			<point x="239" y="595" type="line"/>
			<point x="315" y="680" type="line"/>
			<point x="379" y="680" type="line"/>
		</contour>
	</outline>
</glyph>
<glyph name="uni01DE" format="2">
	<unicode hex="01DE"/>
	<advance width="629"/>
	<outline>
		<contour>
			<point x="369" y="291.875" type="line"/>
			<point x="314.375" y="467.125" type="line"/>
			<point x="259.75" y="291.875" type="line"/>
		</contour>
		<contour>
			<point x="458.5" y="0" type="line"/>
			<point x="417.875" y="131.875" type="line"/>
			<point x="210.875" y="131.875" type="line"/>
			<point x="170.25" y="0" type="line"/>
			<point x="10" y="0" type="line"/>
			<point x="219.375" y="680" type="line"/>
			<point x="407.625" y="680" type="line"/>
			<point x="618.75" y="0" type="line"/>
		</contour>
		<contour>
			<point x="296.25" y="860" type="line"/>
			<point x="366.25" y="851.25" type="line"/>
			<point x="356.875" y="903.75" type="line"/>
			<point x="514.375" y="897.5" type="line"/>
			<point x="511.875" y="740" type="line"/>
			<point x="354.375" y="746.25" type="line"/>
			<point x="344.375" y="790" type="line"/>
			<point x="274.375" y="783.75" type="line"/>
			<point x="271.875" y="740" type="line"/>
			<point x="114.375" y="746.25" type="line"/>
			<point x="105" y="903.75" type="line"/>
			<point x="262.5" y="912.5" type="line"/>
		</contour>
	</outline>
</glyph>
<glyph name="gcaron" format="2">
	<unicode hex="01E7"/>
	<advance width="492"/>
	<outline>
		<contour>
			<point x="115" y="230" type="curve" smooth="yes"/>
			<point x="115" y="159"/>
			<point x="141" y="65"/>
			<point x="246" y="65" type="curve" smooth="yes"/>
			<point x="331" y="65"/>
			<point x="367" y="143"/>
			<point x="367" y="210" type="curve" smooth="yes"/>
			<point x="367" y="245" type="line" smooth="yes"/>
			<point x="367" y="347"/>
			<point x="311" y="405"/>
			<point x="246" y="405" type="curve" smooth="yes"/>
			<point x="156" y="405"/>
			<point x="115" y="337"/>
		</contour>
		<contour>
			<point x="35" y="230" type="curve" smooth="yes"/>
			<point x="35" y="355"/>
			<point x="96" y="470"/>
			<point x="226" y="470" type="curve" smooth="yes"/>
			<point x="284" y="470"/>
			<point x="344" y="439"/>
			<point x="367" y="388" type="curve"/>
			<point x="387" y="459" type="line"/>
			<point x="447" y="459" type="line"/>
			<point x="447" y="27" type="line" smooth="yes"/>
			<point x="447" y="-146"/>
			<point x="362" y="-200"/>
			<point x="244" y="-200" type="curve" smooth="yes"/>
			<point x="114" y="-200"/>
			<point x="62" y="-106"/>
			<point x="52" y="-54" type="curve"/>
			<point x="135" y="-54" type="line"/>
			<point x="153" y="-113"/>
			<point x="206" y="-134"/>
			<point x="244" y="-134" type="curve" smooth="yes"/>
			<point x="316" y="-134"/>
			<point x="367" y="-91"/>
			<point x="367" y="27" type="curve" smooth="yes"/>
			<point x="367" y="89" type="line"/>
			<point x="339" y="33"/>
			<point x="286" y="-1"/>
			<point x="227" y="-1" type="curve" smooth="yes"/>
			<point x="56" y="-1"/>
			<point x="35" y="144"/>
		</contour>
		<contour>
			<point x="281" y="520" type="line"/>
			<point x="201" y="520" type="line"/>
			<point x="101" y="680" type="line"/>
			<point x="165" y="680" type="line"/>
			<point x="241" y="595" type="line"/>
			<point x="317" y="680" type="line"/>
			<point x="381" y="680" type="line"/>
		</contour>
	</outline>
</glyph>
<glyph name="uni01E8" format="2">
	<unicode hex="01E8"/>
	<advance width="683"/>
	<outline>
		<contour>
			<point x="216.5" y="243.125" type="line"/>
			<point x="216.5" y="0" type="line"/>
			<point x="56.25" y="0" type="line"/>
			<point x="56.25" y="680" type="line"/>
			<point x="216.5" y="680" type="line"/>
			<point x="216.5" y="374.625" type="line"/>
			<point x="281.875" y="391.625" type="line"/>
			<point x="455" y="680" type="line"/>
			<point x="633.25" y="680" type="line"/>
			<point x="433.25" y="350" type="line"/>
			<point x="673.25" y="0" type="line"/>
			<point x="477.5" y="0" type="line"/>
			<point x="298.25" y="268.375" type="line"/>
		</contour>
		<contour>
			<point x="381.625" y="760" type="line"/>
			<point x="301.625" y="760" type="line"/>
			<point x="201.625" y="920" type="line"/>
			<point x="265.625" y="920" type="line"/>
			<point x="341.625" y="835" type="line"/>
			<point x="417.625" y="920" type="line"/>
			<point x="481.625" y="920" type="line"/>
		</contour>
	</outline>
</glyph>
<glyph name="uni01E9" format="2">
	<unicode hex="01E9"/>
	<advance width="422"/>
	<outline>
		<contour>
			<point x="45" y="760" type="line"/>
			<point x="-75" y="940" type="line"/>
			<point x="-11" y="940" type="line"/>
			<point x="85" y="813" type="line"/>
			<point x="181" y="940" type="line"/>
			<point x="245" y="940" type="line"/>
			<point x="125" y="760" type="line"/>
		</contour>
		<contour>
			<point x="125" y="0" type="line"/>
			<point x="45" y="0" type="line"/>
			<point x="45" y="233"/>
			<point x="45" y="467"/>
			<point x="45" y="700" type="curve"/>
			<point x="125" y="700" type="line"/>
			<point x="125" y="290" type="line"/>
			<point x="157" y="300" type="line"/>
			<point x="282" y="460" type="line"/>
			<point x="382" y="460" type="line"/>
			<point x="229" y="266" type="line"/>
			<point x="402" y="0" type="line"/>
			<point x="302" y="0" type="line"/>
			<point x="157" y="220" type="line"/>
			<point x="125" y="210" type="line"/>
		</contour>
	</outline>
</glyph>
<glyph name="uni01F2" format="2">
	<unicode hex="01F2"/>
	<advance width="1089"/>
	<outline>
		<contour>
			<point x="216.5" y="537.5" type="line"/>
			<point x="216.5" y="142.5" type="line"/>
			<point x="305.5" y="142.5" type="line" smooth="yes"/>
			<point x="385" y="142.5"/>
			<point x="442.375" y="223.5"/>
			<point x="442.375" y="340" type="curve" smooth="yes"/>
			<point x="442.375" y="488"/>
			<point x="387" y="537.5"/>
			<point x="305.5" y="537.5" type="curve" smooth="yes"/>
		</contour>
		<contour>
			<point x="56.25" y="680" type="line"/>
			<point x="305.5" y="680" type="line" smooth="yes"/>
			<point x="495.5" y="680"/>
			<point x="602.5" y="560.25"/>
			<point x="602.5" y="340" type="curve" smooth="yes"/>
			<point x="602.5" y="117.125"/>
			<point x="496.375" y="0"/>
			<point x="305.5" y="0" type="curve" smooth="yes"/>
			<point x="56.25" y="0" type="line"/>
		</contour>
		<contour>
			<point name=".hr01" x="1048.75" y="65" type="line"/>
			<point x="1048.75" y="0" type="line"/>
			<point x="678.75" y="0" type="line"/>
			<point x="678.75" y="65" type="line"/>
			<point x="948.75" y="395" type="line"/>
			<point x="678.75" y="395" type="line"/>
			<point x="678.75" y="460" type="line"/>
			<point x="1048.75" y="460" type="line"/>
			<point x="1048.75" y="395" type="line"/>
			<point x="788.75" y="65" type="line"/>
		</contour>
	</outline>
</glyph>
<glyph name="uni0202" format="2">
	<unicode hex="0202"/>
	<advance width="570"/>
	<outline>
		<contour>
			<point x="336.5" y="291.875" type="line"/>
			<point x="281.875" y="467.125" type="line"/>
			<point x="227.25" y="291.875" type="line"/>
		</contour>
		<contour>
			<point x="426" y="0" type="line"/>
			<point x="385.375" y="131.875" type="line"/>
			<point x="178.375" y="131.875" type="line"/>
			<point x="137.75" y="0" type="line"/>
			<point x="-22.5" y="0" type="line"/>
			<point x="186.875" y="680" type="line"/>
			<point x="375.125" y="680" type="line"/>
			<point x="586.25" y="0" type="line"/>
		</contour>
		<contour>
			<point x="205" y="720" type="curve"/>
			<point x="125" y="720" type="line"/>
			<point x="125" y="820"/>
			<point x="200" y="860"/>
			<point x="280" y="860" type="curve" smooth="yes"/>
			<point x="360" y="860"/>
			<point x="435" y="820"/>
			<point x="435" y="720" type="curve"/>
			<point x="355" y="720" type="line"/>
			<point x="355" y="780"/>
			<point x="315" y="800"/>
			<point x="280" y="800" type="curve" smooth="yes"/>
			<point x="245" y="800"/>
			<point x="205" y="780"/>
		</contour>
	</outline>
</glyph>
<glyph name="uni0204" format="2">
	<unicode hex="0204"/>
	<advance width="510"/>
	<outline>
		<contour>
			<point x="420" y="278.75" type="line"/>
			<point x="216.5" y="278.75" type="line"/>
			<point x="216.5" y="133.75" type="line"/>
			<point x="460" y="133.75" type="line"/>
			<point x="460" y="0" type="line"/>
			<point x="56.25" y="0" type="line"/>
			<point x="56.25" y="680" type="line"/>
			<point x="460" y="680" type="line"/>
			<point x="460" y="546.25" type="line"/>
			<point x="216.5" y="546.25" type="line"/>
			<point x="216.5" y="412.5" type="line"/>
			<point x="420" y="412.5" type="line"/>
		</contour>
		<contour>
			<point x="278" y="730" type="line"/>
			<point x="214" y="730" type="line"/>
			<point x="138" y="910" type="line"/>
			<point x="218" y="910" type="line"/>
		</contour>
		<contour>
			<point x="373" y="730" type="line"/>
			<point x="309" y="730" type="line"/>
			<point x="248" y="910" type="line"/>
			<point x="328" y="910" type="line"/>
		</contour>
	</outline>
</glyph>
<glyph name="uni0208" format="2">
	<unicode hex="0208"/>
	<advance width="273"/>
	<outline>
		<contour>
			<point x="216.5" y="0" type="line"/>
			<point x="56.25" y="0" type="line"/>
			<point x="56.25" y="680" type="line"/>
			<point x="216.5" y="680" type="line"/>
		</contour>
		<contour>
			<point x="190.375" y="730" type="line"/>
			<point x="129.375" y="910" type="line"/>
			<point x="209.375" y="910" type="line"/>
			<point x="254.375" y="730" type="line"/>
		</contour>
		<contour>
			<point x="95.375" y="730" type="line"/>
			<point x="19.375" y="910" type="line"/>
			<point x="99.375" y="910" type="line"/>
			<point x="159.375" y="730" type="line"/>
		</contour>
	</outline>
</glyph>
<glyph name="uni020A" format="2">
	<unicode hex="020A"/>
	<advance width="273"/>
	<outline>
		<contour>
			<point x="216.5" y="0" type="line"/>
			<point x="56.25" y="0" type="line"/>
			<point x="56.25" y="680" type="line"/>
			<point x="216.5" y="680" type="line"/>
		</contour>
		<contour>
			<point name=".hr01" x="61.375" y="740" type="curve"/>
			<point x="-18.625" y="740" type="line"/>
			<point x="-18.625" y="840"/>
			<point name=".hr02" x="56.375" y="880"/>
			<point x="136.375" y="880" type="curve" smooth="yes"/>
			<point x="216.375" y="880"/>
			<point name=".hr03" x="291.375" y="840"/>
			<point x="291.375" y="740" type="curve"/>
			<point x="211.375" y="740" type="line"/>
			<point x="211.375" y="800"/>
			<point x="171.375" y="820"/>
			<point x="136.375" y="820" type="curve" smooth="yes"/>
			<point x="101.375" y="820"/>
			<point x="61.375" y="800"/>
		</contour>
	</outline>
</glyph>
<glyph name="uni020B" format="2">
	<unicode hex="020B"/>
	<advance width="280"/>
	<outline>
		<contour>
			<point x="-15" y="529" type="curve"/>
			<point x="-15" y="618"/>
			<point x="54" y="669"/>
			<point x="140" y="669" type="curve" smooth="yes"/>
			<point x="229" y="669"/>
			<point x="295" y="621"/>
			<point x="295" y="529" type="curve"/>
			<point x="220" y="529" type="line"/>
			<point x="220" y="582"/>
			<point x="188" y="605"/>
			<point x="140" y="605" type="curve" smooth="yes"/>
			<point x="107" y="605"/>
			<point x="60" y="587"/>
			<point x="60" y="530" type="curve"/>
			<point x="35" y="530"/>
			<point x="10" y="529"/>
		</contour>
		<contour>
			<point x="180" y="-1" type="line"/>
			<point x="100" y="-1" type="line"/>
			<point x="100" y="459" type="line"/>
			<point x="180" y="459" type="line"/>
		</contour>
	</outline>
</glyph>
<glyph name="uni020C" format="2">
	<unicode hex="020C"/>
	<advance width="699"/>
	<outline>
		<contour>
			<point x="349.25" y="547.5" type="curve" smooth="yes"/>
			<point x="255.875" y="547.5"/>
			<point x="196.5" y="466.125"/>
			<point x="196.5" y="340" type="curve" smooth="yes"/>
			<point x="196.5" y="213.875"/>
			<point x="255.875" y="132.5"/>
			<point x="349.25" y="132.5" type="curve" smooth="yes"/>
			<point x="442.625" y="132.5"/>
			<point x="502" y="213.875"/>
			<point x="502" y="340" type="curve" smooth="yes"/>
			<point x="502" y="466.125"/>
			<point x="442.625" y="547.5"/>
		</contour>
		<contour>
			<point x="349.25" y="-10" type="curve" smooth="yes"/>
			<point x="148.75" y="-10"/>
			<point x="36.25" y="115.625"/>
			<point x="36.25" y="340" type="curve" smooth="yes"/>
			<point x="36.25" y="564.375"/>
			<point x="148.75" y="690"/>
			<point x="349.25" y="690" type="curve" smooth="yes"/>
			<point x="549.75" y="690"/>
			<point x="662.25" y="564.375"/>
			<point x="662.25" y="340" type="curve" smooth="yes"/>
			<point x="662.25" y="115.625"/>
			<point x="549.75" y="-10"/>
		</contour>
		<contour>
			<point x="372.25" y="730" type="line"/>
			<point x="308.25" y="730" type="line"/>
			<point x="232.25" y="910" type="line"/>
			<point x="312.25" y="910" type="line"/>
		</contour>
		<contour>
			<point x="467.25" y="730" type="line"/>
			<point x="403.25" y="730" type="line"/>
			<point x="342.25" y="910" type="line"/>
			<point x="422.25" y="910" type="line"/>
		</contour>
	</outline>
</glyph>
<glyph name="uni020D" format="2">
	<unicode hex="020D"/>
	<advance width="480"/>
	<outline>
		<contour>
			<point x="255" y="530" type="line"/>
			<point x="194" y="710" type="line"/>
			<point x="274" y="710" type="line"/>
			<point x="319" y="530" type="line"/>
		</contour>
		<contour>
			<point x="160" y="530" type="line"/>
			<point x="84" y="710" type="line"/>
			<point x="164" y="710" type="line"/>
			<point x="224" y="530" type="line"/>
		</contour>
		<contour>
			<point x="34" y="230" type="curve" smooth="yes"/>
			<point x="34" y="368"/>
			<point x="98" y="470"/>
			<point x="239" y="470" type="curve" smooth="yes"/>
			<point x="379" y="470"/>
			<point x="444" y="370"/>
			<point x="444" y="230" type="curve" smooth="yes"/>
			<point x="444" y="96"/>
			<point x="373" y="-10"/>
			<point x="239" y="-10" type="curve" smooth="yes"/>
			<point x="87" y="-10"/>
			<point x="34" y="102"/>
		</contour>
		<contour>
			<point x="114" y="230" type="curve" smooth="yes"/>
			<point x="114" y="109"/>
			<point x="169" y="55"/>
			<point x="239" y="55" type="curve" smooth="yes"/>
			<point x="312" y="55"/>
			<point x="364" y="105"/>
			<point x="364" y="230" type="curve" smooth="yes"/>
			<point x="364" y="357"/>
			<point x="310" y="405"/>
			<point x="239" y="405" type="curve" smooth="yes"/>
			<point x="168" y="405"/>
			<point x="114" y="357"/>
		</contour>
	</outline>
</glyph>
<glyph name="uni020E" format="2">
	<unicode hex="020E"/>
	<advance width="699"/>
	<outline>
		<contour>
			<point x="349.25" y="547.5" type="curve" smooth="yes"/>
			<point x="255.875" y="547.5"/>
			<point x="196.5" y="466.125"/>
			<point x="196.5" y="340" type="curve" smooth="yes"/>
			<point x="196.5" y="213.875"/>
			<point x="255.875" y="132.5"/>
			<point x="349.25" y="132.5" type="curve" smooth="yes"/>
			<point x="442.625" y="132.5"/>
			<point x="502" y="213.875"/>
			<point x="502" y="340" type="curve" smooth="yes"/>
			<point x="502" y="466.125"/>
			<point x="442.625" y="547.5"/>
		</contour>
		<contour>
			<point x="349.25" y="-10" type="curve" smooth="yes"/>
			<point x="148.75" y="-10"/>
			<point x="36.25" y="115.625"/>
			<point x="36.25" y="340" type="curve" smooth="yes"/>
			<point x="36.25" y="564.375"/>
			<point x="148.75" y="690"/>
			<point x="349.25" y="690" type="curve" smooth="yes"/>
			<point x="549.75" y="690"/>
			<point x="662.25" y="564.375"/>
			<point x="662.25" y="340" type="curve" smooth="yes"/>
			<point x="662.25" y="115.625"/>
			<point x="549.75" y="-10"/>
		</contour>
		<contour>
			<point x="276" y="740" type="curve"/>
			<point x="196" y="740" type="line"/>
			<point name=".hr01" x="196" y="840"/>
			<point x="271" y="880"/>
			<point x="351" y="880" type="curve" smooth="yes"/>
			<point x="431" y="880"/>
			<point x="506" y="840"/>
			<point x="506" y="740" type="curve"/>
			<point x="426" y="740" type="line"/>
			<point x="426" y="800"/>
			<point x="386" y="820"/>
			<point x="351" y="820" type="curve" smooth="yes"/>
			<point x="316" y="820"/>
			<point x="276" y="800"/>
		</contour>
	</outline>
</glyph>
<glyph name="uni0213" format="2">
	<unicode hex="0213"/>
	<advance width="370"/>
	<outline>
		<contour>
			<point x="35" y="529" type="curve"/>
			<point x="35" y="618"/>
			<point x="104" y="669"/>
			<point x="190" y="669" type="curve" smooth="yes"/>
			<point x="279" y="669"/>
			<point x="345" y="621"/>
			<point x="345" y="529" type="curve"/>
			<point x="270" y="529" type="line"/>
			<point x="270" y="586"/>
			<point x="233" y="605"/>
			<point x="190" y="605" type="curve" smooth="yes"/>
			<point x="156" y="605"/>
			<point x="110" y="588"/>
			<point x="110" y="530" type="curve"/>
			<point x="102" y="530"/>
			<point x="93" y="530"/>
			<point x="85" y="530" type="curve" smooth="yes"/>
			<point x="68" y="530"/>
			<point x="52" y="529"/>
		</contour>
		<contour>
			<point x="125" y="-1" type="line"/>
			<point name=".hr01" x="45" y="-1" type="line"/>
			<point x="45" y="459" type="line"/>
			<point x="125" y="459" type="line"/>
			<point x="125" y="369" type="line"/>
			<point x="148" y="420"/>
			<point x="212" y="469"/>
			<point x="272" y="469" type="curve" smooth="yes"/>
			<point x="295" y="469"/>
			<point x="317" y="465"/>
			<point x="335" y="459" type="curve"/>
			<point x="335" y="358" type="line"/>
			<point x="312" y="378"/>
			<point x="278" y="389"/>
			<point x="246" y="389" type="curve" smooth="yes"/>
			<point x="172" y="389"/>
			<point x="134" y="292"/>
			<point x="125" y="232" type="curve"/>
		</contour>
	</outline>
</glyph>
<glyph name="uni0214" format="2">
	<unicode hex="0214"/>
	<advance width="630"/>
	<outline>
		<contour>
			<point x="50" y="265" type="curve" smooth="yes"/>
			<point x="50" y="680" type="line"/>
			<point x="210" y="680" type="line"/>
			<point x="210" y="302.5" type="line" smooth="yes"/>
			<point x="210" y="194.625"/>
			<point x="237.5" y="141.25"/>
			<point x="315" y="141.25" type="curve" smooth="yes"/>
			<point x="392.5" y="141.25"/>
			<point x="420" y="194.625"/>
			<point x="420" y="302.5" type="curve" smooth="yes"/>
			<point x="420" y="680" type="line"/>
			<point x="580" y="680" type="line"/>
			<point x="580" y="265" type="line" smooth="yes"/>
			<point x="580" y="84"/>
			<point x="482.5" y="-10"/>
			<point x="315" y="-10" type="curve" smooth="yes"/>
			<point x="147.5" y="-10"/>
			<point x="50" y="84"/>
		</contour>
		<contour>
			<point x="369" y="730" type="line"/>
			<point x="308" y="910" type="line"/>
			<point x="388" y="910" type="line"/>
			<point x="433" y="730" type="line"/>
		</contour>
		<contour>
			<point x="274" y="730" type="line"/>
			<point x="198" y="910" type="line"/>
			<point x="278" y="910" type="line"/>
			<point x="338" y="730" type="line"/>
		</contour>
	</outline>
</glyph>
<glyph name="uni0216" format="2">
	<unicode hex="0216"/>
	<advance width="560"/>
	<outline>
		<contour>
			<point x="200" y="720" type="curve"/>
			<point x="120" y="720" type="line"/>
			<point x="120" y="820"/>
			<point x="195" y="860"/>
			<point x="275" y="860" type="curve" smooth="yes"/>
			<point x="355" y="860"/>
			<point x="430" y="820"/>
			<point x="430" y="720" type="curve"/>
			<point x="350" y="720" type="line"/>
			<point x="350" y="780"/>
			<point x="310" y="800"/>
			<point x="275" y="800" type="curve" smooth="yes"/>
			<point x="240" y="800"/>
			<point x="200" y="780"/>
		</contour>
		<contour>
			<point x="15" y="265" type="curve" smooth="yes"/>
			<point name=".hr01" x="15" y="680" type="line"/>
			<point x="175" y="680" type="line"/>
			<point x="175" y="302.5" type="line" smooth="yes"/>
			<point x="175" y="194.625"/>
			<point x="202.5" y="141.25"/>
			<point x="280" y="141.25" type="curve" smooth="yes"/>
			<point x="357.5" y="141.25"/>
			<point x="385" y="194.625"/>
			<point x="385" y="302.5" type="curve" smooth="yes"/>
			<point x="385" y="680" type="line"/>
			<point x="545" y="680" type="line"/>
			<point x="545" y="265" type="line" smooth="yes"/>
			<point x="545" y="84"/>
			<point x="447.5" y="-10"/>
			<point x="280" y="-10" type="curve" smooth="yes"/>
			<point x="112.5" y="-10"/>
			<point x="15" y="84"/>
		</contour>
	</outline>
</glyph>
<glyph name="uni0218" format="2">
	<unicode hex="0218"/>
	<advance width="582"/>
	<outline>
		<contour>
			<point x="264" y="-151" type="line"/>
			<point x="264" y="-71" type="line"/>
			<point x="344" y="-71" type="line"/>
			<point x="344" y="-151" type="line"/>
			<point x="298" y="-281" type="line"/>
			<point x="264" y="-281" type="line"/>
			<point x="286" y="-151" type="line"/>
		</contour>
		<contour>
			<point x="33.5" y="219.25" type="curve"/>
			<point x="202.5" y="219.25" type="line"/>
			<point x="202.5" y="170.375"/>
			<point x="233.625" y="132.5"/>
			<point x="291.625" y="132.5" type="curve" smooth="yes"/>
			<point x="351.5" y="132.5"/>
			<point x="380.5" y="158.25"/>
			<point x="380.5" y="191.875" type="curve" smooth="yes"/>
			<point x="380.5" y="225.25"/>
			<point x="362.875" y="249.375"/>
			<point x="332.375" y="263" type="curve"/>
			<point x="145.75" y="359.625" type="line" smooth="yes"/>
			<point x="89.125" y="388.5"/>
			<point name=".hr01" x="51.625" y="433"/>
			<point x="51.625" y="496.625" type="curve" smooth="yes"/>
			<point x="51.625" y="613.875"/>
			<point x="141.625" y="690"/>
			<point x="297.125" y="690" type="curve" smooth="yes"/>
			<point x="441.25" y="690"/>
			<point x="547.5" y="592.75"/>
			<point x="547.5" y="483.5" type="curve"/>
			<point x="378.5" y="483.5" type="line"/>
			<point x="378.5" y="517.875"/>
			<point x="350.875" y="547.5"/>
			<point x="287.375" y="547.5" type="curve" smooth="yes"/>
			<point x="242.375" y="547.5"/>
			<point x="220.625" y="533.625"/>
			<point x="220.625" y="497.5" type="curve" smooth="yes"/>
			<point x="220.625" y="476.625"/>
			<point x="232.375" y="461.875"/>
			<point x="265.875" y="446.25" type="curve"/>
			<point x="442.875" y="356.5" type="line" smooth="yes"/>
			<point x="512.625" y="321.875"/>
			<point x="549.5" y="271.625"/>
			<point x="549.5" y="188.875" type="curve" smooth="yes"/>
			<point x="549.5" y="67.75"/>
			<point x="457.25" y="-10"/>
			<point x="285.875" y="-10" type="curve" smooth="yes"/>
			<point x="137.125" y="-10"/>
			<point name=".hr02" x="33.5" y="88"/>
		</contour>
	</outline>
</glyph>
<glyph name="uni0226" format="2">
	<unicode hex="0226"/>
	<advance width="570"/>
	<outline>
		<contour>
			<point x="336.5" y="291.875" type="line"/>
			<point x="281.875" y="467.125" type="line"/>
			<point x="227.25" y="291.875" type="line"/>
		</contour>
		<contour>
			<point x="426" y="0" type="line"/>
			<point x="385.375" y="131.875" type="line"/>
			<point x="178.375" y="131.875" type="line"/>
			<point x="137.75" y="0" type="line"/>
			<point x="-22.5" y="0" type="line"/>
			<point x="186.875" y="680" type="line"/>
			<point x="375.125" y="680" type="line"/>
			<point x="586.25" y="0" type="line"/>
		</contour>
		<contour>
			<point x="398.75" y="882.5" type="line"/>
			<point x="398.75" y="750" type="line"/>
			<point x="238.75" y="750" type="line"/>
			<point x="238.75" y="882.5" type="line"/>
		</contour>
	</outline>
</glyph>
<glyph name="uni0229" format="2">
	<unicode hex="0229"/>
	<advance width="471"/>
	<outline>
		<contour>
			<point x="118" y="290" type="curve"/>
			<point x="357" y="290" type="line"/>
			<point x="344" y="358"/>
			<point x="309" y="390"/>
			<point x="239" y="390" type="curve" smooth="yes"/>
			<point x="180" y="390"/>
			<point x="128" y="353"/>
		</contour>
		<contour>
			<point x="33" y="240" type="curve" smooth="yes"/>
			<point x="33" y="348"/>
			<point x="94" y="470"/>
			<point x="239" y="470" type="curve" smooth="yes"/>
			<point x="378" y="470"/>
			<point x="434" y="350"/>
			<point x="434" y="210" type="curve"/>
			<point x="118" y="210" type="line"/>
			<point x="125" y="141"/>
			<point x="156" y="70"/>
			<point x="240" y="70" type="curve" smooth="yes"/>
			<point x="284" y="70"/>
			<point x="331" y="88"/>
			<point x="354" y="114" type="curve"/>
			<point x="415" y="98" type="line"/>
			<point x="401" y="62"/>
			<point x="352" y="3"/>
			<point x="268" y="-8" type="curve"/>
			<point x="248" y="-49" type="line"/>
			<point x="271" y="-57"/>
			<point x="315" y="-73"/>
			<point x="315" y="-126" type="curve" smooth="yes"/>
			<point x="315" y="-180"/>
			<point x="270" y="-212"/>
			<point x="215" y="-212" type="curve" smooth="yes"/>
			<point x="182" y="-212"/>
			<point x="153" y="-202"/>
			<point x="145" y="-196" type="curve"/>
			<point x="145" y="-167" type="line"/>
			<point x="156" y="-170"/>
			<point x="175" y="-173"/>
			<point x="193" y="-173" type="curve" smooth="yes"/>
			<point x="199" y="-173" type="line" smooth="yes"/>
			<point x="242" y="-173"/>
			<point x="258" y="-150"/>
			<point x="258" y="-121" type="curve" smooth="yes"/>
			<point x="258" y="-85"/>
			<point x="207" y="-73"/>
			<point x="179" y="-70" type="curve"/>
			<point x="208" y="-8" type="line"/>
			<point x="76" y="8"/>
			<point x="33" y="130"/>
		</contour>
	</outline>
</glyph>
<glyph name="uni022C" format="2">
	<unicode hex="022C"/>
	<advance width="660"/>
	<outline>
		<contour>
			<point x="140" y="350" type="curve" smooth="yes"/>
			<point x="140" y="200"/>
			<point x="187" y="70"/>
			<point x="328" y="70" type="curve" smooth="yes"/>
			<point x="477" y="70"/>
			<point x="520" y="236"/>
			<point x="520" y="350" type="curve" smooth="yes"/>
			<point x="520" y="503"/>
			<point x="477" y="630"/>
			<point x="328" y="630" type="curve" smooth="yes"/>
			<point x="189" y="630"/>
			<point x="140" y="502"/>
		</contour>
		<contour>
			<point x="50" y="350" type="curve" smooth="yes"/>
			<point x="50" y="560"/>
			<point x="146" y="710"/>
			<point x="328" y="710" type="curve" smooth="yes"/>
			<point x="519" y="710"/>
			<point x="610" y="555"/>
			<point x="610" y="350" type="curve" smooth="yes"/>
			<point x="610" y="141"/>
			<point x="521" y="-10"/>
			<point x="334" y="-10" type="curve" smooth="yes"/>
			<point x="141" y="-10"/>
			<point x="50" y="138"/>
		</contour>
		<contour>
			<point x="203" y="770" type="curve"/>
			<point x="153" y="770" type="line"/>
			<point x="175" y="857"/>
			<point x="214" y="890"/>
			<point x="253" y="890" type="curve" smooth="yes"/>
			<point name=".hr01" x="309" y="890"/>
			<point x="365" y="850"/>
			<point x="413" y="850" type="curve" smooth="yes"/>
			<point name=".hr02" x="431" y="850"/>
			<point x="447" y="858"/>
			<point x="453" y="890" type="curve"/>
			<point x="503" y="890" type="line"/>
			<point name=".hr03" x="496" y="841"/>
			<point x="472" y="770"/>
			<point x="413" y="770" type="curve" smooth="yes"/>
			<point name=".hr04" x="359" y="770"/>
			<point x="306" y="810"/>
			<point x="253" y="810" type="curve" smooth="yes"/>
			<point name=".hr05" x="235" y="810"/>
			<point x="209" y="797"/>
		</contour>
		<contour>
			<point x="513" y="1030" type="line"/>
			<point x="513" y="950" type="line"/>
			<point name=".hr06" x="243" y="950" type="line"/>
			<point x="243" y="1030" type="line"/>
		</contour>
	</outline>
</glyph>
<glyph name="uni0230" format="2">
	<unicode hex="0230"/>
	<advance width="660"/>
	<outline>
		<contour>
			<point x="465" y="900" type="line"/>
			<point x="195" y="900" type="line"/>
			<point x="195" y="970" type="line"/>
			<point x="465" y="970" type="line"/>
		</contour>
		<contour>
			<point x="50" y="350" type="curve" smooth="yes"/>
			<point x="50" y="560"/>
			<point x="146" y="710"/>
			<point x="328" y="710" type="curve" smooth="yes"/>
			<point x="519" y="710"/>
			<point x="610" y="555"/>
			<point x="610" y="350" type="curve" smooth="yes"/>
			<point x="610" y="141"/>
			<point x="521" y="-10"/>
			<point x="334" y="-10" type="curve" smooth="yes"/>
			<point x="141" y="-10"/>
			<point x="50" y="138"/>
		</contour>
		<contour>
			<point x="140" y="350" type="curve" smooth="yes"/>
			<point x="140" y="200"/>
			<point x="187" y="70"/>
			<point x="328" y="70" type="curve" smooth="yes"/>
			<point x="477" y="70"/>
			<point x="520" y="236"/>
			<point x="520" y="350" type="curve" smooth="yes"/>
			<point x="520" y="503"/>
			<point x="477" y="630"/>
			<point x="328" y="630" type="curve" smooth="yes"/>
			<point x="189" y="630"/>
			<point x="140" y="502"/>
		</contour>
		<contour>
			<point x="370" y="760" type="line"/>
			<point x="290" y="760" type="line"/>
			<point name=".hr01" x="290" y="840" type="line"/>
			<point x="370" y="840" type="line"/>
		</contour>
	</outline>
</glyph>
<glyph name="uni0259" format="2">
	<unicode hex="0259"/>
	<advance width="471"/>
	<outline>
		<contour>
			<point x="352" y="170" type="curve"/>
			<point x="113" y="170" type="line"/>
			<point x="126" y="102"/>
			<point x="161" y="70"/>
			<point x="231" y="70" type="curve" smooth="yes"/>
			<point x="290" y="70"/>
			<point x="342" y="107"/>
		</contour>
		<contour>
			<point x="36" y="250" type="curve"/>
			<point x="352" y="250" type="line"/>
			<point x="344" y="322"/>
			<point x="313" y="390"/>
			<point x="230" y="390" type="curve" smooth="yes"/>
			<point x="186" y="390"/>
			<point x="139" y="372"/>
			<point x="116" y="346" type="curve"/>
			<point x="55" y="362" type="line"/>
			<point x="72" y="404"/>
			<point x="130" y="470"/>
			<point x="231" y="470" type="curve" smooth="yes"/>
			<point x="387" y="470"/>
			<point x="437" y="338"/>
			<point x="437" y="220" type="curve" smooth="yes"/>
			<point x="437" y="112"/>
			<point x="376" y="-10"/>
			<point x="231" y="-10" type="curve" smooth="yes"/>
			<point x="93" y="-10"/>
			<point x="36" y="112"/>
		</contour>
	</outline>
</glyph>
<glyph name="circumflex" format="2">
	<unicode hex="02C6"/>
	<advance width="340"/>
	<outline>
		<contour>
			<point x="170" y="618.25" type="line"/>
			<point x="88.5" y="520" type="line"/>
			<point x="3.75" y="520" type="line"/>
			<point x="106.25" y="700" type="line"/>
			<point x="233.75" y="700" type="line"/>
			<point x="336.25" y="520" type="line"/>
			<point x="251.5" y="520" type="line"/>
		</contour>
	</outline>
</glyph>
<glyph name="ogonek" format="2">
	<unicode hex="02DB"/>
	<advance width="295"/>
	<outline>
		<contour>
			<point x="47.5" y="-126.375" type="curve" smooth="yes"/>
			<point x="47.5" y="-73.25"/>
			<point x="82.25" y="-28.875"/>
			<point x="117.875" y="0" type="curve"/>
			<point x="225.375" y="0" type="line"/>
			<point x="183.375" y="-34.5"/>
			<point x="173.375" y="-59.75"/>
			<point x="173.375" y="-81.875" type="curve" smooth="yes"/>
			<point x="173.375" y="-101.125"/>
			<point x="186.75" y="-111.25"/>
			<point x="203.625" y="-111.25" type="curve" smooth="yes"/>
			<point x="212.75" y="-111.25"/>
			<point x="223.5" y="-105"/>
			<point x="232.625" y="-97.625" type="curve"/>
			<point x="247.875" y="-182.875" type="line"/>
			<point x="227.875" y="-197.125"/>
			<point x="188.375" y="-210"/>
			<point x="145.375" y="-210" type="curve" smooth="yes"/>
			<point x="84.625" y="-210"/>
			<point x="47.5" y="-180.625"/>
		</contour>
	</outline>
</glyph>
<glyph name="gravecomb" format="2">
	<unicode hex="0300"/>
	<outline>
		<contour>
			<point x="-322.75" y="520" type="line"/>
			<point x="-418.5" y="715" type="line"/>
			<point x="-227.5" y="715" type="line"/>
			<point x="-177.5" y="520" type="line"/>
		</contour>
	</outline>
	<anchor name="top" x="-248.5" y="520"/>
</glyph>
<glyph name="acutecomb" format="2">
	<unicode hex="0301"/>
	<outline>
		<contour>
			<point x="-134.5" y="520" type="line"/>
			<point x="-279.75" y="520" type="line"/>
			<point x="-229.75" y="717.5" type="line"/>
			<point x="-38.75" y="717.5" type="line"/>
		</contour>
	</outline>
	<anchor name="top" x="-210.625" y="520"/>
</glyph>
<glyph name="uni0307" format="2">
	<unicode hex="0307"/>
	<outline>
		<contour>
			<point x="-53.75" y="520" type="line"/>
			<point x="-213.75" y="520" type="line"/>
			<point x="-213.75" y="652.5" type="line"/>
			<point x="-53.75" y="652.5" type="line"/>
		</contour>
	</outline>
</glyph>
<glyph name="uni0308" format="2">
	<unicode hex="0308"/>
	<outline>
		<contour>
			<point x="-285.625" y="520" type="line"/>
			<point x="-436.875" y="520" type="line"/>
			<point x="-436.875" y="678.75" type="line"/>
			<point x="-285.625" y="678.75" type="line"/>
		</contour>
		<contour>
			<point x="-57.375" y="520" type="line"/>
			<point x="-208.625" y="520" type="line"/>
			<point x="-208.625" y="678.75" type="line"/>
			<point x="-57.375" y="678.75" type="line"/>
		</contour>
	</outline>
	<anchor name="top" x="-247.25" y="520"/>
</glyph>
<glyph name="uni030A" format="2">
	<unicode hex="030A"/>
	<outline>
		<contour>
			<point x="-77" y="619" type="curve" smooth="yes"/>
			<point x="-77" y="662"/>
			<point x="-42" y="697"/>
			<point x="1" y="697" type="curve" smooth="yes"/>
			<point x="44" y="697"/>
			<point x="79" y="662"/>
			<point x="79" y="619" type="curve" smooth="yes"/>
			<point x="79" y="576"/>
			<point x="44" y="541"/>
			<point x="1" y="541" type="curve" smooth="yes"/>
			<point x="-42" y="541"/>
			<point x="-77" y="576"/>
		</contour>
		<contour>
			<point x="-30" y="619" type="curve" smooth="yes"/>
			<point x="-30" y="602"/>
			<point x="-16" y="588"/>
			<point name=".hr01" x="1" y="588" type="curve" smooth="yes"/>
			<point x="18" y="588"/>
			<point x="32" y="602"/>
			<point x="32" y="619" type="curve" smooth="yes"/>
			<point x="32" y="636"/>
			<point x="18" y="650"/>
			<point x="1" y="650" type="curve" smooth="yes"/>
			<point x="-16" y="650"/>
			<point x="-30" y="636"/>
		</contour>
	</outline>
</glyph>
<glyph name="uni0311" format="2">
	<unicode hex="0311"/>
	<outline>
		<contour>
			<point x="-280" y="520" type="curve"/>
			<point x="-360" y="520" type="line"/>
			<point x="-360" y="620"/>
			<point x="-285" y="660"/>
			<point x="-205" y="660" type="curve" smooth="yes"/>
			<point x="-125" y="660"/>
			<point x="-50" y="620"/>
			<point x="-50" y="520" type="curve"/>
			<point x="-130" y="520" type="line"/>
			<point x="-130" y="580"/>
			<point x="-170" y="600"/>
			<point x="-205" y="600" type="curve" smooth="yes"/>
			<point x="-240" y="600"/>
			<point x="-280" y="580"/>
		</contour>
	</outline>
</glyph>
<glyph name="uni0400" format="2">
	<unicode hex="0400"/>
	<advance width="510"/>
	<outline>
		<contour>
			<point x="420" y="278.75" type="line"/>
			<point x="216.5" y="278.75" type="line"/>
			<point x="216.5" y="133.75" type="line"/>
			<point x="460" y="133.75" type="line"/>
			<point x="460" y="0" type="line"/>
			<point x="56.25" y="0" type="line"/>
			<point x="56.25" y="680" type="line"/>
			<point x="460" y="680" type="line"/>
			<point x="460" y="546.25" type="line"/>
			<point x="216.5" y="546.25" type="line"/>
			<point x="216.5" y="412.5" type="line"/>
			<point x="420" y="412.5" type="line"/>
		</contour>
		<contour>
			<point x="287" y="740" type="line"/>
			<point x="223" y="740" type="line"/>
			<point x="157" y="900" type="line"/>
			<point x="237" y="900" type="line"/>
		</contour>
	</outline>
</glyph>
<glyph name="uni0402" format="2">
	<unicode hex="0402"/>
	<advance width="1302"/>
	<outline>
		<contour>
			<point x="979.125" y="-90" type="curve"/>
			<point x="1058.12" y="-90" type="line"/>
			<point x="1074.12" y="-114"/>
			<point x="1089.12" y="-120"/>
			<point x="1112.12" y="-120" type="curve" smooth="yes"/>
			<point x="1137.12" y="-120"/>
			<point x="1152.12" y="-103"/>
			<point x="1152.12" y="-55" type="curve" smooth="yes"/>
			<point x="1152.12" y="460" type="line"/>
			<point x="1232.12" y="460" type="line"/>
			<point x="1232.12" y="-31" type="line" smooth="yes"/>
			<point x="1232.12" y="-139"/>
			<point x="1175.12" y="-200"/>
			<point x="1110.12" y="-200" type="curve" smooth="yes"/>
			<point x="1046.12" y="-200"/>
			<point x="995.125" y="-149"/>
		</contour>
		<contour>
			<point x="320.125" y="537.5" type="line"/>
			<point x="320.125" y="0" type="line"/>
			<point x="159.875" y="0" type="line"/>
			<point x="159.875" y="537.5" type="line"/>
			<point x="10" y="537.5" type="line"/>
			<point x="10" y="680" type="line"/>
			<point x="470" y="680" type="line"/>
			<point x="470" y="537.5" type="line"/>
		</contour>
		<contour>
			<point x="860.25" y="470" type="curve" smooth="yes"/>
			<point x="1001.38" y="470"/>
			<point x="1014" y="367.625"/>
			<point x="1014" y="297.5" type="curve" smooth="yes"/>
			<point x="1014" y="0" type="line"/>
			<point x="854" y="0" type="line"/>
			<point x="854" y="262.5" type="line" smooth="yes"/>
			<point x="854" y="311.375"/>
			<point x="839.375" y="376.125"/>
			<point x="787.375" y="376.125" type="curve" smooth="yes"/>
			<point x="728.125" y="376.125"/>
			<point x="695" y="318.25"/>
			<point x="695" y="221.25" type="curve" smooth="yes"/>
			<point x="695" y="0" type="line"/>
			<point x="535" y="0" type="line"/>
			<point x="535" y="700" type="line"/>
			<point name=".hr01" x="695" y="700" type="line"/>
			<point x="695" y="367.25" type="line"/>
			<point x="730.375" y="419.125"/>
			<point x="781.625" y="470"/>
		</contour>
	</outline>
</glyph>
<glyph name="uni0404" format="2">
	<unicode hex="0404"/>
	<advance width="590"/>
	<outline>
		<contour>
			<point x="45" y="344" type="curve" smooth="yes"/>
			<point x="45" y="505"/>
			<point x="108" y="700"/>
			<point x="305" y="700" type="curve" smooth="yes"/>
			<point x="447" y="700"/>
			<point x="515" y="616"/>
			<point x="545" y="515" type="curve"/>
			<point x="455" y="515" type="line"/>
			<point x="435" y="563"/>
			<point x="394" y="620"/>
			<point x="305" y="620" type="curve" smooth="yes"/>
			<point x="182" y="620"/>
			<point x="135" y="472"/>
			<point x="135" y="383" type="curve"/>
			<point x="315" y="383" type="line"/>
			<point x="315" y="303" type="line"/>
			<point x="135" y="303" type="line"/>
			<point x="135" y="194"/>
			<point x="174" y="80"/>
			<point x="305" y="80" type="curve" smooth="yes"/>
			<point x="375" y="80"/>
			<point x="425" y="108"/>
			<point x="455" y="180" type="curve"/>
			<point x="545" y="180" type="line"/>
			<point x="516" y="64"/>
			<point x="425" y="0"/>
			<point x="305" y="0" type="curve" smooth="yes"/>
			<point x="104" y="0"/>
			<point x="45" y="168"/>
		</contour>
	</outline>
</glyph>
<glyph name="uni040A" format="2">
	<unicode hex="040A"/>
	<advance width="950"/>
	<outline>
		<contour>
			<point x="635" y="322" type="curve" smooth="yes"/>
			<point x="510" y="322" type="line"/>
			<point x="510" y="80" type="line"/>
			<point x="635" y="80" type="line" smooth="yes"/>
			<point x="784" y="80"/>
			<point x="810" y="131"/>
			<point x="810" y="205" type="curve" smooth="yes"/>
			<point x="810" y="273"/>
			<point x="780" y="322"/>
		</contour>
		<contour>
			<point x="140" y="317" type="line"/>
			<point name=".hr01" x="140" y="0" type="line"/>
			<point x="50" y="0" type="line"/>
			<point x="50" y="700" type="line"/>
			<point x="140" y="700" type="line"/>
			<point x="140" y="397" type="line"/>
			<point x="420" y="397" type="line"/>
			<point x="420" y="700" type="line"/>
			<point x="510" y="700" type="line"/>
			<point x="510" y="402" type="line"/>
			<point name=".hr02" x="635" y="402" type="line" smooth="yes"/>
			<point x="830" y="402"/>
			<point x="900" y="355"/>
			<point x="900" y="205" type="curve" smooth="yes"/>
			<point x="900" y="37"/>
			<point x="831" y="0"/>
			<point x="563" y="0" type="curve" smooth="yes"/>
			<point x="420" y="0" type="line"/>
			<point x="420" y="317" type="line"/>
		</contour>
	</outline>
</glyph>
<glyph name="uni040C" format="2">
	<unicode hex="040C"/>
	<advance width="683"/>
	<outline>
		<contour>
			<point x="216.5" y="243.125" type="line"/>
			<point x="216.5" y="0" type="line"/>
			<point x="56.25" y="0" type="line"/>
			<point x="56.25" y="680" type="line"/>
			<point x="216.5" y="680" type="line"/>
			<point x="216.5" y="374.625" type="line"/>
			<point x="281.875" y="391.625" type="line"/>
			<point x="455" y="680" type="line"/>
			<point x="633.25" y="680" type="line"/>
			<point x="433.25" y="350" type="line"/>
			<point x="673.25" y="0" type="line"/>
			<point x="477.5" y="0" type="line"/>
			<point x="298.25" y="268.375" type="line"/>
		</contour>
		<contour>
			<point x="462.5" y="936.25" type="line"/>
			<point x="380" y="730" type="line"/>
			<point x="220.75" y="730" type="line"/>
			<point x="288.25" y="936.25" type="line"/>
		</contour>
	</outline>
</glyph>
<glyph name="uni0411" format="2">
	<unicode hex="0411"/>
	<advance width="580"/>
	<outline>
		<contour>
			<point x="174" y="0" type="line"/>
			<point x="174" y="142.5" type="line"/>
			<point x="299" y="142.5" type="line" smooth="yes"/>
			<point x="354.25" y="142.5"/>
			<point x="377" y="180.5"/>
			<point x="377" y="222.5" type="curve" smooth="yes"/>
			<point x="377" y="259.875"/>
			<point x="351.25" y="294.5"/>
			<point x="299" y="294.5" type="curve" smooth="yes"/>
			<point x="174" y="294.5" type="line"/>
			<point x="174" y="437" type="line"/>
			<point x="324" y="437" type="line" smooth="yes"/>
			<point x="485" y="437"/>
			<point x="539" y="338.5"/>
			<point x="539" y="222.5" type="curve" smooth="yes"/>
			<point x="539" y="109.5"/>
			<point x="472" y="0"/>
			<point x="324" y="0" type="curve" smooth="yes"/>
		</contour>
		<contour>
			<point x="50" y="0" type="line"/>
			<point x="50" y="680" type="line"/>
			<point x="210.25" y="680" type="line"/>
			<point x="210.25" y="0" type="line"/>
		</contour>
		<contour>
			<point x="173.75" y="537.5" type="line"/>
			<point x="173.75" y="680" type="line"/>
			<point x="462.5" y="680" type="line"/>
			<point x="462.5" y="537.5" type="line"/>
		</contour>
	</outline>
</glyph>
<glyph name="uni0413" format="2">
	<unicode hex="0413"/>
	<advance width="490"/>
	<outline>
		<contour>
			<point x="460" y="546.25" type="line"/>
			<point x="216.5" y="546.25" type="line"/>
			<point x="216.5" y="0" type="line"/>
			<point x="56.25" y="0" type="line"/>
			<point x="56.25" y="680" type="line"/>
			<point x="460" y="680" type="line"/>
		</contour>
	</outline>
</glyph>
<glyph name="uni0418" format="2">
	<unicode hex="0418"/>
	<advance width="630"/>
	<outline>
		<contour>
			<point x="170" y="0" type="line"/>
			<point x="50" y="0" type="line"/>
			<point x="50" y="700" type="line"/>
			<point x="140" y="700" type="line"/>
			<point x="140" y="210" type="line" smooth="yes"/>
			<point x="140" y="148"/>
			<point x="138" y="127"/>
			<point x="135" y="120" type="curve"/>
			<point x="460" y="700" type="line"/>
			<point x="580" y="700" type="line"/>
			<point x="580" y="0" type="line"/>
			<point x="490" y="0" type="line"/>
			<point x="490" y="490" type="line"/>
			<point x="491" y="514"/>
			<point x="490" y="520"/>
			<point x="495" y="580" type="curve"/>
		</contour>
	</outline>
</glyph>
<glyph name="uni042B" format="2">
	<unicode hex="042B"/>
	<advance width="827"/>
	<outline>
		<component base="uni042C"/>
		<contour>
			<point x="768.25" y="682.5" type="line"/>
			<point x="768.25" y="0" type="line"/>
			<point x="608" y="0" type="line"/>
			<point x="608" y="682.5" type="line"/>
		</contour>
	</outline>
</glyph>
<glyph name="uni0440" format="2">
	<unicode hex="0440"/>
	<advance width="493"/>
	<outline>
		<contour>
			<point x="126.875" y="231.75" type="curve" smooth="yes"/>
			<point x="126.875" y="226" type="line" smooth="yes"/>
			<point x="126.875" y="123"/>
			<point x="177.875" y="55"/>
			<point x="246.875" y="55" type="curve" smooth="yes"/>
			<point x="339.875" y="55"/>
			<point x="377.875" y="123"/>
			<point x="377.875" y="231" type="curve" smooth="yes"/>
			<point x="377.875" y="306"/>
			<point name=".hr01" x="358.875" y="405"/>
			<point x="246.875" y="405" type="curve" smooth="yes"/>
			<point x="163.875" y="405"/>
			<point x="126.875" y="315.75"/>
		</contour>
		<contour>
			<point x="54.375" y="-117.625" type="line"/>
			<point x="56.5" y="449.375" type="line"/>
			<point x="69.0585" y="457"/>
			<point x="109.454" y="461.25"/>
			<point x="127.5" y="461.25" type="curve"/>
			<point x="146.335" y="448.57"/>
			<point x="165.194" y="389.196"/>
			<point x="168.25" y="362.25" type="curve"/>
			<point x="196.25" y="395.375"/>
			<point x="221.5" y="410"/>
			<point name=".hr02" x="271.375" y="410" type="curve" smooth="yes"/>
			<point x="372.875" y="410"/>
			<point x="419.375" y="308.5"/>
			<point x="416.5" y="210.25" type="curve"/>
			<point x="416.5" y="99.4872"/>
			<point x="360.5" y="-27.6991"/>
			<point x="250.25" y="-33.75" type="curve"/>
			<point x="184.27" y="-33.75"/>
			<point x="145.771" y="-6.625"/>
			<point x="116.875" y="39.75" type="curve"/>
			<point x="116.875" y="-117.625" type="line"/>
		</contour>
	</outline>
</glyph>
<glyph name="uni0441" format="2">
	<unicode hex="0441"/>
	<advance width="510"/>
	<outline>
		<contour>
			<point x="50" y="230" type="curve" smooth="yes"/>
			<point x="50" y="348"/>
			<point x="95" y="470"/>
			<point x="259" y="470" type="curve" smooth="yes"/>
			<point x="378" y="470"/>
			<point x="437" y="405"/>
			<point x="459" y="320" type="curve"/>
			<point x="370" y="320" type="line"/>
			<point x="367" y="335"/>
			<point x="338" y="402"/>
			<point x="259" y="402" type="curve" smooth="yes"/>
			<point x="168" y="402"/>
			<point x="134" y="335"/>
			<point x="134" y="230" type="curve" smooth="yes"/>
			<point x="134" y="147"/>
			<point x="160" y="58"/>
			<point x="259" y="58" type="curve" smooth="yes"/>
			<point x="336" y="58"/>
			<point x="365" y="118"/>
			<point x="372" y="150" type="curve"/>
			<point x="460" y="150" type="line"/>
			<point x="440" y="79"/>
			<point x="387" y="-10"/>
			<point x="259" y="-10" type="curve" smooth="yes"/>
			<point x="94" y="-10"/>
			<point x="50" y="122"/>
		</contour>
	</outline>
</glyph>
<glyph name="uni0446" format="2">
	<unicode hex="0446"/>
	<advance width="527"/>
	<outline>
		<contour>
			<point x="427" y="0" type="line"/>
			<point x="70" y="0" type="line"/>
			<point x="70" y="460" type="line"/>
			<point x="150" y="460" type="line"/>
			<point x="150" y="68" type="line"/>
			<point x="347" y="68" type="line"/>
			<point x="347" y="460" type="line"/>
			<point x="427" y="458" type="line"/>
			<point x="427" y="68" type="line"/>
			<point x="497" y="68" type="line"/>
			<point x="497" y="-140" type="line"/>
			<point x="437" y="-140" type="line"/>
		</contour>
	</outline>
</glyph>
<glyph name="uni0447" format="2">
	<unicode hex="0447"/>
	<advance width="497"/>
	<outline>
		<contour>
			<point x="70" y="316" type="curve" smooth="yes"/>
			<point x="70" y="460" type="line"/>
			<point x="150" y="460" type="line"/>
			<point x="150" y="349" type="line" smooth="yes"/>
			<point x="150" y="270"/>
			<point x="151" y="220"/>
			<point x="225" y="220" type="curve" smooth="yes"/>
			<point x="263" y="220"/>
			<point x="331" y="235"/>
			<point x="347" y="243" type="curve"/>
			<point x="347" y="460" type="line"/>
			<point x="427" y="460" type="line"/>
			<point x="427" y="0" type="line"/>
			<point x="347" y="0" type="line"/>
			<point x="347" y="165" type="line"/>
			<point x="313" y="152"/>
			<point x="263" y="140"/>
			<point x="223" y="140" type="curve" smooth="yes"/>
			<point x="92" y="140"/>
			<point x="70" y="231"/>
		</contour>
	</outline>
</glyph>
<glyph name="uni044C" format="2">
	<unicode hex="044C"/>
	<advance width="478"/>
	<outline>
		<contour>
			<point x="254" y="225" type="curve" smooth="yes"/>
			<point x="151" y="225" type="line"/>
			<point x="151" y="65" type="line"/>
			<point x="254" y="65" type="line" smooth="yes"/>
			<point x="324" y="65"/>
			<point x="348" y="95"/>
			<point x="348" y="140" type="curve" smooth="yes"/>
			<point x="348" y="191"/>
			<point x="324" y="225"/>
		</contour>
		<contour>
			<point x="254" y="0" type="curve" smooth="yes"/>
			<point x="70" y="0" type="line"/>
			<point x="70" y="460" type="line"/>
			<point x="150" y="460" type="line"/>
			<point x="150" y="290" type="line"/>
			<point x="254" y="290" type="line" smooth="yes"/>
			<point x="394" y="290"/>
			<point x="428" y="215"/>
			<point x="428" y="140" type="curve" smooth="yes"/>
			<point x="428" y="65"/>
			<point x="394" y="0"/>
		</contour>
	</outline>
</glyph>
<glyph name="uni045C" format="2">
	<unicode hex="045C"/>
	<advance width="420"/>
	<outline>
		<contour>
			<point x="249" y="520" type="line"/>
			<point x="185" y="520" type="line"/>
			<point x="235" y="700" type="line"/>
			<point x="315" y="700" type="line"/>
		</contour>
		<contour>
			<point x="125" y="0" type="line"/>
			<point x="45" y="0" type="line"/>
			<point x="45" y="700" type="line"/>
			<point x="125" y="700" type="line"/>
			<point x="125" y="270" type="line"/>
			<point x="157" y="270" type="line"/>
			<point x="300" y="460" type="line"/>
			<point x="380" y="460" type="line"/>
			<point x="229" y="256" type="line"/>
			<point x="304" y="218"/>
			<point x="338" y="138"/>
			<point x="373" y="59" type="curve" smooth="yes"/>
			<point x="382" y="39"/>
			<point x="390" y="19"/>
			<point x="400" y="0" type="curve"/>
			<point x="320" y="0" type="line"/>
			<point x="279" y="78"/>
			<point x="255" y="166"/>
			<point x="167" y="210" type="curve"/>
			<point x="125" y="210" type="line"/>
		</contour>
	</outline>
</glyph>
<glyph name="uni04C1" format="2">
	<unicode hex="04C1"/>
	<advance width="930"/>
	<outline>
		<contour>
			<point x="310" y="910" type="curve"/>
			<point x="385" y="910" type="line"/>
			<point x="384" y="851"/>
			<point x="432" y="834"/>
			<point x="465" y="834" type="curve" smooth="yes"/>
			<point x="510" y="834"/>
			<point x="545" y="854"/>
			<point x="545" y="910" type="curve"/>
			<point x="620" y="910" type="line"/>
			<point x="620" y="808"/>
			<point x="541" y="770"/>
			<point x="465" y="770" type="curve" smooth="yes"/>
			<point x="395" y="770"/>
			<point x="310" y="808"/>
		</contour>
		<contour>
			<point x="140" y="-1" type="line"/>
			<point x="30" y="-1" type="line"/>
			<point x="270" y="349" type="line"/>
			<point x="70" y="699" type="line"/>
			<point x="180" y="699" type="line"/>
			<point x="350" y="396" type="line"/>
			<point x="420" y="376" type="line"/>
			<point x="420" y="699" type="line"/>
			<point x="510" y="699" type="line"/>
			<point x="510" y="376" type="line"/>
			<point x="580" y="396" type="line"/>
			<point x="750" y="699" type="line"/>
			<point x="860" y="699" type="line"/>
			<point x="660" y="349" type="line"/>
			<point x="900" y="-1" type="line"/>
			<point x="790" y="-1" type="line"/>
			<point x="580" y="316" type="line"/>
			<point x="510" y="296" type="line"/>
			<point x="510" y="-1" type="line"/>
			<point x="420" y="-1" type="line"/>
			<point x="420" y="296" type="line"/>
			<point x="350" y="316" type="line"/>
		</contour>
	</outline>
</glyph>
<glyph name="uni04D0" format="2">
	<unicode hex="04D0"/>
	<advance width="570"/>
	<outline>
		<contour>
			<point x="336.5" y="291.875" type="line"/>
			<point x="281.875" y="467.125" type="line"/>
			<point x="227.25" y="291.875" type="line"/>
		</contour>
		<contour>
			<point x="426" y="0" type="line"/>
			<point x="385.375" y="131.875" type="line"/>
			<point x="178.375" y="131.875" type="line"/>
			<point x="137.75" y="0" type="line"/>
			<point x="-22.5" y="0" type="line"/>
			<point x="186.875" y="680" type="line"/>
			<point x="375.125" y="680" type="line"/>
			<point x="586.25" y="0" type="line"/>
		</contour>
		<contour>
			<point x="130" y="890" type="curve"/>
			<point x="210" y="890" type="line"/>
			<point x="210" y="830"/>
			<point x="250" y="810"/>
			<point x="285" y="810" type="curve" smooth="yes"/>
			<point x="320" y="810"/>
			<point x="360" y="830"/>
			<point x="360" y="890" type="curve"/>
			<point x="440" y="890" type="line"/>
			<point x="440" y="790"/>
			<point x="365" y="750"/>
			<point x="285" y="750" type="curve" smooth="yes"/>
			<point x="205" y="750"/>
			<point x="130" y="790"/>
		</contour>
	</outline>
</glyph>
<glyph name="uni04D2" format="2">
	<unicode hex="04D2"/>
	<advance width="570"/>
	<outline>
		<contour>
			<point x="336.5" y="291.875" type="line"/>
			<point x="281.875" y="467.125" type="line"/>
			<point x="227.25" y="291.875" type="line"/>
		</contour>
		<contour>
			<point x="426" y="0" type="line"/>
			<point x="385.375" y="131.875" type="line"/>
			<point x="178.375" y="131.875" type="line"/>
			<point x="137.75" y="0" type="line"/>
			<point x="-22.5" y="0" type="line"/>
			<point x="186.875" y="680" type="line"/>
			<point x="375.125" y="680" type="line"/>
			<point x="586.25" y="0" type="line"/>
		</contour>
		<contour>
			<point x="246" y="840" type="line"/>
			<point x="246" y="760" type="line"/>
			<point x="166" y="760" type="line"/>
			<point x="166" y="840" type="line"/>
		</contour>
		<contour>
			<point x="404" y="840" type="line"/>
			<point x="404" y="760" type="line"/>
			<point x="324" y="760" type="line"/>
			<point x="324" y="840" type="line"/>
		</contour>
	</outline>
</glyph>
<glyph name="uni04D7" format="2">
	<unicode hex="04D7"/>
	<advance width="518"/>
	<outline>
		<contour>
			<point x="139" y="278" type="curve"/>
			<point x="379" y="278" type="line"/>
			<point x="379" y="278"/>
			<point x="371" y="402"/>
			<point x="259" y="402" type="curve" smooth="yes"/>
			<point x="147" y="402"/>
			<point x="139" y="278"/>
		</contour>
		<contour>
			<point x="50" y="240" type="curve" smooth="yes"/>
			<point x="50" y="360"/>
			<point x="119" y="470"/>
			<point x="259" y="470" type="curve" smooth="yes"/>
			<point x="399" y="470"/>
			<point x="468" y="360"/>
			<point x="468" y="240" type="curve" smooth="yes"/>
			<point x="468" y="210" type="line"/>
			<point x="134" y="210" type="line"/>
			<point x="134" y="140"/>
			<point x="179" y="58"/>
			<point x="259" y="58" type="curve" smooth="yes"/>
			<point x="329" y="58"/>
			<point x="365" y="98"/>
			<point x="375" y="142" type="curve"/>
			<point x="458" y="142" type="line"/>
			<point x="443" y="73"/>
			<point x="409" y="-10"/>
			<point x="259" y="-10" type="curve" smooth="yes"/>
			<point x="109" y="-10"/>
			<point x="50" y="120"/>
		</contour>
		<contour>
			<point x="105" y="660" type="curve"/>
			<point x="185" y="660" type="line"/>
			<point name=".hr01" x="185" y="600"/>
			<point x="225" y="580"/>
			<point x="260" y="580" type="curve" smooth="yes"/>
			<point x="295" y="580"/>
			<point x="335" y="600"/>
			<point x="335" y="660" type="curve"/>
			<point x="415" y="660" type="line"/>
			<point x="415" y="560"/>
			<point x="340" y="520"/>
			<point x="260" y="520" type="curve" smooth="yes"/>
			<point x="180" y="520"/>
			<point x="105" y="560"/>
		</contour>
	</outline>
</glyph>
<glyph name="uni04E3" format="2">
	<unicode hex="04E3"/>
	<advance width="528"/>
	<outline>
		<contour>
			<point x="399" y="570" type="line"/>
			<point x="129" y="570" type="line"/>
			<point x="129" y="640" type="line"/>
			<point x="399" y="640" type="line"/>
		</contour>
		<contour>
			<point name=".hr01" x="150" y="0" type="line"/>
			<point x="70" y="0" type="line"/>
			<point x="70" y="460" type="line"/>
			<point x="150" y="460" type="line"/>
			<point x="150" y="180" type="line"/>
			<point x="145" y="115" type="line"/>
			<point x="378" y="460" type="line"/>
			<point x="458" y="460" type="line"/>
			<point x="458" y="0" type="line"/>
			<point x="378" y="0" type="line"/>
			<point x="378" y="280" type="line"/>
			<point x="383" y="345" type="line"/>
		</contour>
	</outline>
</glyph>
<glyph name="uni04EC" format="2">
	<unicode hex="04EC"/>
	<advance width="590"/>
	<outline>
		<contour>
			<point x="246" y="770" type="line"/>
			<point x="166" y="770" type="line"/>
			<point x="166" y="850" type="line"/>
			<point x="246" y="850" type="line"/>
		</contour>
		<contour>
			<point x="403" y="770" type="line"/>
			<point x="323" y="770" type="line"/>
			<point x="323" y="850" type="line"/>
			<point x="403" y="850" type="line"/>
		</contour>
		<contour>
			<point x="44" y="185" type="curve"/>
			<point x="134" y="185" type="line"/>
			<point x="154" y="138"/>
			<point x="194" y="80"/>
			<point x="284" y="80" type="curve" smooth="yes"/>
			<point x="407" y="80"/>
			<point x="454" y="228"/>
			<point x="454" y="317" type="curve"/>
			<point x="274" y="317" type="line"/>
			<point x="274" y="344"/>
			<point x="274" y="370"/>
			<point x="274" y="397" type="curve"/>
			<point x="454" y="397" type="line"/>
			<point x="454" y="506"/>
			<point x="415" y="620"/>
			<point x="284" y="620" type="curve" smooth="yes"/>
			<point x="214" y="620"/>
			<point x="164" y="592"/>
			<point x="134" y="520" type="curve"/>
			<point x="44" y="520" type="line"/>
			<point x="73" y="636"/>
			<point x="164" y="700"/>
			<point x="284" y="700" type="curve" smooth="yes"/>
			<point x="485" y="700"/>
			<point x="544" y="532"/>
			<point x="544" y="356" type="curve" smooth="yes"/>
			<point x="544" y="195"/>
			<point x="481" y="0"/>
			<point x="284" y="0" type="curve" smooth="yes"/>
			<point x="142" y="0"/>
			<point x="74" y="84"/>
		</contour>
	</outline>
</glyph>
<glyph name="emdash" format="2">
	<unicode hex="2014"/>
	<advance width="550"/>
	<outline>
		<contour>
			<point x="500" y="210" type="line"/>
			<point x="50" y="210" type="line"/>
			<point x="50" y="275" type="line"/>
			<point x="500" y="275" type="line"/>
		</contour>
	</outline>
</glyph>
<glyph name="quotedblleft" format="2">
	<unicode hex="201C"/>
	<advance width="290"/>
	<outline>
		<contour>
			<point x="246" y="490" type="line"/>
			<point x="166" y="490" type="line"/>
			<point x="166" y="570" type="line"/>
			<point name=".hr01" x="212" y="700" type="line"/>
			<point x="246" y="700" type="line"/>
			<point name=".hr02" x="224" y="570" type="line"/>
			<point x="246" y="570" type="line"/>
		</contour>
		<contour>
			<point x="130" y="490" type="line"/>
			<point x="50" y="490" type="line"/>
			<point x="50" y="570" type="line"/>
			<point name=".hr03" x="96" y="700" type="line"/>
			<point x="130" y="700" type="line"/>
			<point name=".hr04" x="108" y="570" type="line"/>
			<point x="130" y="570" type="line"/>
		</contour>
	</outline>
</glyph>
<glyph name="fl" format="2">
	<unicode hex="FB02"/>
	<advance width="501"/>
	<outline>
		<contour>
			<point x="146" y="381" type="line"/>
			<point x="81" y="381" type="line"/>
			<point x="81" y="461" type="line"/>
			<point x="146" y="461" type="line"/>
			<point x="146" y="501" type="line" smooth="yes"/>
			<point x="146" y="643"/>
			<point x="157" y="693"/>
			<point x="308" y="700" type="curve"/>
			<point x="431" y="700" type="line"/>
			<point x="431" y="0" type="line"/>
			<point x="351" y="0" type="line"/>
			<point x="351" y="635" type="line"/>
			<point x="352" y="636" type="line"/>
			<point x="308" y="636" type="line"/>
			<point x="239" y="635"/>
			<point x="226" y="607"/>
			<point x="226" y="501" type="curve" smooth="yes"/>
			<point x="226" y="461" type="line"/>
			<point x="300" y="461" type="line"/>
			<point x="300" y="381" type="line"/>
			<point x="226" y="381" type="line"/>
			<point x="226" y="1" type="line"/>
			<point x="146" y="1" type="line"/>
		</contour>
	</outline>
</glyph>
<glyph name="five.inferior" format="2">
	<advance width="366"/>
	<outline>
		<contour>
			<point x="35" y="-358" type="curve"/>
			<point x="95" y="-358" type="line"/>
			<point x="105" y="-388"/>
			<point x="130" y="-407"/>
			<point x="181" y="-407" type="curve" smooth="yes"/>
			<point x="244" y="-407"/>
			<point x="273" y="-347"/>
			<point x="273" y="-293" type="curve" smooth="yes"/>
			<point x="273" y="-214"/>
			<point x="233" y="-186"/>
			<point x="202" y="-186" type="curve"/>
			<point x="156" y="-188"/>
			<point x="111" y="-208"/>
			<point x="104" y="-262" type="curve"/>
			<point x="37" y="-264" type="line"/>
			<point x="37" y="7" type="line"/>
			<point x="290" y="7" type="line"/>
			<point x="290" y="-46" type="line"/>
			<point x="102" y="-46" type="line"/>
			<point x="102" y="-197" type="line"/>
			<point x="103" y="-197"/>
			<point x="103" y="-197"/>
			<point x="104" y="-197" type="curve"/>
			<point x="122" y="-158"/>
			<point x="159" y="-130"/>
			<point x="207" y="-130" type="curve" smooth="yes"/>
			<point x="288" y="-130"/>
			<point x="340" y="-197"/>
			<point x="340" y="-297" type="curve" smooth="yes"/>
			<point x="340" y="-392"/>
			<point x="274" y="-467"/>
			<point x="184" y="-467" type="curve" smooth="yes"/>
			<point x="98" y="-467"/>
			<point x="53" y="-424"/>
		</contour>
	</outline>
</glyph>
<glyph name="five.subscript" format="2">
	<advance width="366"/>
	<outline>
		<contour>
			<point x="35" y="-220" type="curve"/>
			<point x="95" y="-220" type="line"/>
			<point x="105" y="-250"/>
			<point x="130" y="-269"/>
			<point x="181" y="-269" type="curve" smooth="yes"/>
			<point x="244" y="-269"/>
			<point x="273" y="-209"/>
			<point x="273" y="-155" type="curve" smooth="yes"/>
			<point x="273" y="-76"/>
			<point x="233" y="-48"/>
			<point x="202" y="-48" type="curve" smooth="yes"/>
			<point x="160" y="-48"/>
			<point x="112" y="-68"/>
			<point x="104" y="-124" type="curve"/>
			<point x="37" y="-126" type="line"/>
			<point x="37" y="145" type="line"/>
			<point x="290" y="145" type="line"/>
			<point x="290" y="92" type="line"/>
			<point x="102" y="92" type="line"/>
			<point x="102" y="-59" type="line"/>
			<point x="103" y="-59"/>
			<point x="103" y="-59"/>
			<point x="104" y="-59" type="curve"/>
			<point x="122" y="-20"/>
			<point x="159" y="8"/>
			<point x="207" y="8" type="curve" smooth="yes"/>
			<point x="288" y="8"/>
			<point x="340" y="-59"/>
			<point x="340" y="-159" type="curve" smooth="yes"/>
			<point x="340" y="-254"/>
			<point x="274" y="-329"/>
			<point x="184" y="-329" type="curve" smooth="yes"/>
			<point x="98" y="-329"/>
			<point x="53" y="-286"/>
		</contour>
	</outline>
</glyph>
<glyph name="four.subscript" format="2">
	<advance width="355"/>
	<outline>
		<contour>
			<point x="93" y="-147" type="curve"/>
			<point x="246" y="-147" type="line"/>
			<point x="246" y="87" type="line"/>
			<point x="221" y="87"/>
			<point x="117" y="-109"/>
		</contour>
		<contour>
			<point x="246" y="-208" type="line"/>
			<point x="33" y="-208" type="line"/>
			<point x="33" y="-155" type="line"/>
			<point x="212" y="145" type="line"/>
			<point x="314" y="145" type="line"/>
			<point x="314" y="-147" type="line"/>
			<point x="354" y="-147" type="line"/>
			<point x="354" y="-208" type="line"/>
			<point x="314" y="-208" type="line"/>
			<point x="314" y="-322" type="line"/>
			<point x="246" y="-322" type="line"/>
		</contour>
	</outline>
</glyph>
<glyph name="h.sc" format="2">
	<advance width="409"/>
	<outline>
		<contour>
			<point x="113" y="0" type="line"/>
			<point x="33" y="0" type="line"/>
			<point x="33" y="460" type="line"/>
			<point x="113" y="460" type="line"/>
			<point x="113" y="265" type="line"/>
			<point x="297" y="265" type="line"/>
			<point x="297" y="460" type="line"/>
			<point x="377" y="460" type="line"/>
			<point x="377" y="0" type="line"/>
			<point x="297" y="0" type="line"/>
			<point x="297" y="200" type="line"/>
			<point x="113" y="200" type="line"/>
		</contour>
	</outline>
</glyph>
<glyph name="l.sc" format="2">
	<advance width="355"/>
	<outline>
		<contour>
			<point x="323" y="0" type="line"/>
			<point x="33" y="0" type="line"/>
			<point x="33" y="460" type="line"/>
			<point x="113" y="460" type="line"/>
			<point x="113" y="65" type="line"/>
			<point x="323" y="65" type="line"/>
		</contour>
	</outline>
</glyph>
<glyph name="q.sc" format="2">
	<advance width="475"/>
	<outline>
		<contour>
			<point x="113" y="230" type="curve" smooth="yes"/>
			<point x="113" y="141"/>
			<point x="144" y="55"/>
			<point x="237" y="55" type="curve" smooth="yes"/>
			<point x="249" y="55"/>
			<point x="260" y="56"/>
			<point x="270" y="59" type="curve"/>
			<point x="265" y="64"/>
			<point x="259" y="69"/>
			<point x="254" y="74" type="curve"/>
			<point x="296" y="112" type="line"/>
			<point x="320" y="90" type="line"/>
			<point x="352" y="125"/>
			<point x="363" y="188"/>
			<point x="363" y="230" type="curve" smooth="yes"/>
			<point x="363" y="321"/>
			<point x="335" y="405"/>
			<point x="237" y="405" type="curve" smooth="yes"/>
			<point x="146" y="405"/>
			<point x="113" y="320"/>
		</contour>
		<contour>
			<point x="33" y="230" type="curve" smooth="yes"/>
			<point x="33" y="368"/>
			<point x="103" y="470"/>
			<point x="236" y="470" type="curve" smooth="yes"/>
			<point x="375" y="470"/>
			<point x="443" y="370"/>
			<point x="443" y="240" type="curve" smooth="yes"/>
			<point x="443" y="164"/>
			<point x="417" y="100"/>
			<point x="363" y="59" type="curve"/>
			<point x="430" y="-8" type="line"/>
			<point x="373" y="-50" type="line"/>
			<point x="314" y="12" type="line"/>
			<point x="291" y="-1"/>
			<point x="265" y="-10"/>
			<point x="235" y="-10" type="curve" smooth="yes"/>
			<point x="98" y="-10"/>
			<point x="33" y="90"/>
		</contour>
	</outline>
</glyph>
<glyph name="seven.subscript" format="2">
	<advance width="381"/>
	<outline>
		<contour>
			<point x="288" y="85" type="curve"/>
			<point x="33" y="85" type="line"/>
			<point x="33" y="145" type="line"/>
			<point x="348" y="145" type="line"/>
			<point x="348" y="92" type="line"/>
			<point x="300" y="31" type="line"/>
			<point x="238" y="-54"/>
			<point x="188" y="-155"/>
			<point x="188" y="-322" type="curve"/>
			<point x="120" y="-322" type="line"/>
			<point x="120" y="-116"/>
			<point x="202" y="-13"/>
		</contour>
	</outline>
</glyph>
<glyph name="t.sc" format="2">
	<advance width="388"/>
	<outline>
		<contour>
			<point x="158" y="395" type="line"/>
			<point x="33" y="395" type="line"/>
			<point x="33" y="460" type="line"/>
			<point x="356" y="460" type="line"/>
			<point x="356" y="395" type="line"/>
			<point x="238" y="395" type="line"/>
			<point x="238" y="0" type="line"/>
			<point x="158" y="0" type="line"/>
		</contour>
	</outline>
</glyph>
<glyph name="three.inferior" format="2">
	<advance width="375"/>
	<outline>
		<contour>
			<point x="92" y="-95" type="curve"/>
			<point x="27" y="-95" type="line"/>
			<point x="27" y="-18"/>
			<point x="96" y="14"/>
			<point x="165" y="14" type="curve" smooth="yes"/>
			<point x="255" y="14"/>
			<point x="311" y="-26"/>
			<point x="311" y="-105" type="curve" smooth="yes"/>
			<point x="311" y="-146"/>
			<point x="286" y="-184"/>
			<point x="241" y="-204" type="curve"/>
			<point x="300" y="-213"/>
			<point name=".hr01" x="349" y="-244"/>
			<point x="349" y="-327" type="curve" smooth="yes"/>
			<point x="349" y="-425"/>
			<point x="274" y="-467"/>
			<point x="180" y="-467" type="curve" smooth="yes"/>
			<point x="106" y="-467"/>
			<point x="27" y="-435"/>
			<point x="27" y="-351" type="curve"/>
			<point x="92" y="-351" type="line"/>
			<point x="92" y="-393"/>
			<point x="146" y="-407"/>
			<point x="180" y="-407" type="curve" smooth="yes"/>
			<point x="228" y="-407"/>
			<point x="281" y="-387"/>
			<point x="281" y="-326" type="curve" smooth="yes"/>
			<point x="281" y="-255"/>
			<point x="230" y="-240"/>
			<point x="169" y="-240" type="curve" smooth="yes"/>
			<point x="136" y="-240" type="line"/>
			<point x="136" y="-179" type="line"/>
			<point x="169" y="-179" type="line" smooth="yes"/>
			<point x="226" y="-179"/>
			<point name=".hr02" x="243" y="-165"/>
			<point x="243" y="-107" type="curve" smooth="yes"/>
			<point x="243" y="-69"/>
			<point x="212" y="-46"/>
			<point x="166" y="-46" type="curve" smooth="yes"/>
			<point x="128" y="-46"/>
			<point x="92" y="-63"/>
		</contour>
	</outline>
</glyph>
<glyph name="two.superior" format="2">
	<advance width="368"/>
	<outline>
		<contour>
			<point x="24" y="732" type="curve"/>
			<point x="24" y="823"/>
			<point x="87" y="888"/>
			<point x="181" y="888" type="curve" smooth="yes"/>
			<point x="308" y="888"/>
			<point x="344" y="835"/>
			<point x="344" y="756" type="curve" smooth="yes"/>
			<point x="344" y="651"/>
			<point x="186" y="551"/>
			<point x="122" y="482" type="curve"/>
			<point x="359" y="482" type="line"/>
			<point x="359" y="414" type="line"/>
			<point x="41" y="414" type="line"/>
			<point x="41" y="473" type="line"/>
			<point x="144" y="600"/>
			<point x="276" y="660"/>
			<point x="276" y="741" type="curve" smooth="yes"/>
			<point x="276" y="793"/>
			<point x="265" y="828"/>
			<point x="181" y="828" type="curve" smooth="yes"/>
			<point x="122" y="828"/>
			<point x="94" y="784"/>
			<point x="91" y="733" type="curve"/>
			<point x="69" y="733"/>
			<point x="46" y="732"/>
		</contour>
	</outline>
</glyph>
<glyph name="uni0434.sc" format="2">
	<advance width="543"/>
	<outline>
		<contour>
			<point x="163" y="65" type="curve"/>
			<point x="364" y="65" type="line"/>
			<point x="364" y="395" type="line"/>
			<point x="226" y="395" type="line"/>
			<point x="226" y="290" type="line" smooth="yes"/>
			<point x="226" y="234"/>
			<point x="197" y="94"/>
		</contour>
		<contour>
			<point x="100" y="-133" type="line"/>
			<point x="20" y="-133" type="line"/>
			<point x="20" y="65" type="line"/>
			<point x="91" y="65" type="line"/>
			<point x="121" y="96"/>
			<point x="146" y="250"/>
			<point x="146" y="304" type="curve" smooth="yes"/>
			<point x="146" y="460" type="line"/>
			<point x="444" y="460" type="line"/>
			<point x="444" y="65" type="line"/>
			<point x="524" y="65" type="line"/>
			<point name=".hr01" x="524" y="-133" type="line"/>
			<point x="444" y="-133" type="line"/>
			<point x="444" y="0" type="line"/>
			<point x="100" y="0" type="line"/>
		</contour>
	</outline>
</glyph>
<glyph name="uni043B.sc" format="2">
	<advance width="441"/>
	<outline>
		<contour>
			<point x="33" y="-7" type="curve"/>
			<point x="33" y="73" type="line"/>
			<point x="111" y="73"/>
			<point x="111" y="202"/>
			<point x="111" y="255" type="curve" smooth="yes"/>
			<point x="111" y="460" type="line"/>
			<point x="409" y="460" type="line"/>
			<point x="409" y="0" type="line"/>
			<point x="329" y="0" type="line"/>
			<point x="329" y="395" type="line"/>
			<point x="191" y="395" type="line"/>
			<point x="191" y="233" type="line" smooth="yes"/>
			<point x="191" y="43"/>
			<point x="111" y="-7"/>
		</contour>
	</outline>
</glyph>
<glyph name="uni043F.loclBGR" format="2">
	<advance width="579"/>
	<outline>
		<contour>
			<point x="370.625" y="470" type="curve" smooth="yes"/>
			<point x="511.75" y="470"/>
			<point x="524.375" y="367.625"/>
			<point x="524.375" y="297.5" type="curve" smooth="yes"/>
			<point x="524.375" y="0" type="line"/>
			<point x="364.375" y="0" type="line"/>
			<point x="364.375" y="262.5" type="line" smooth="yes"/>
			<point x="364.375" y="311.375"/>
			<point x="349.75" y="376.125"/>
			<point x="297.75" y="376.125" type="curve" smooth="yes"/>
			<point x="256.875" y="376.125"/>
			<point x="225.5" y="347.125"/>
			<point x="215" y="301.75" type="curve"/>
			<point x="215" y="0" type="line"/>
			<point x="55" y="0" type="line"/>
			<point x="55" y="460" type="line"/>
			<point x="197" y="460" type="line"/>
			<point x="211.375" y="375.75" type="line"/>
			<point x="246.75" y="425.25"/>
			<point x="296.375" y="470"/>
		</contour>
	</outline>
</glyph>
<glyph name="uni0440.sc" format="2">
	<advance width="422"/>
	<outline>
		<contour>
			<point x="218" y="395" type="curve" smooth="yes"/>
			<point x="113" y="395" type="line"/>
			<point x="113" y="245" type="line"/>
			<point x="218" y="245" type="line" smooth="yes"/>
			<point x="288" y="245"/>
			<point x="310" y="285"/>
			<point x="310" y="325" type="curve" smooth="yes"/>
			<point x="310" y="365"/>
			<point x="289" y="395"/>
		</contour>
		<contour>
			<point x="113" y="180" type="line"/>
			<point x="113" y="0" type="line"/>
			<point x="33" y="0" type="line"/>
			<point x="33" y="460" type="line"/>
			<point x="218" y="460" type="line" smooth="yes"/>
			<point x="322" y="460"/>
			<point x="390" y="430"/>
			<point x="390" y="325" type="curve" smooth="yes"/>
			<point x="390" y="259"/>
			<point x="343" y="180"/>
			<point x="218" y="180" type="curve" smooth="yes"/>
		</contour>
	</outline>
</glyph>
<glyph name="uni0444.sc" format="2">
	<advance width="607"/>
	<outline>
		<contour>
			<point x="113" y="230" type="curve" smooth="yes"/>
			<point x="113" y="183"/>
			<point x="141" y="113"/>
			<point x="239" y="113" type="curve" smooth="yes"/>
			<point x="248" y="113"/>
			<point x="256" y="114"/>
			<point x="264" y="115" type="curve"/>
			<point x="264" y="344" type="line"/>
			<point x="256" y="345"/>
			<point x="248" y="346"/>
			<point x="239" y="346" type="curve" smooth="yes"/>
			<point x="141" y="346"/>
			<point x="113" y="294"/>
		</contour>
		<contour>
			<point x="344" y="344" type="curve"/>
			<point x="344" y="115" type="line"/>
			<point x="352" y="114"/>
			<point x="360" y="113"/>
			<point x="369" y="113" type="curve" smooth="yes"/>
			<point x="467" y="113"/>
			<point x="495" y="183"/>
			<point x="495" y="230" type="curve" smooth="yes"/>
			<point x="495" y="294"/>
			<point x="467" y="346"/>
			<point x="369" y="346" type="curve" smooth="yes"/>
			<point x="360" y="346"/>
			<point x="352" y="345"/>
		</contour>
		<contour>
			<point x="33" y="230" type="curve" smooth="yes"/>
			<point x="33" y="338"/>
			<point x="99" y="411"/>
			<point x="236" y="411" type="curve" smooth="yes"/>
			<point x="245" y="411"/>
			<point x="255" y="410"/>
			<point x="264" y="409" type="curve"/>
			<point x="264" y="460" type="line"/>
			<point x="344" y="460" type="line"/>
			<point x="344" y="409" type="line"/>
			<point x="353" y="410"/>
			<point x="362" y="411"/>
			<point x="371" y="411" type="curve" smooth="yes"/>
			<point x="508" y="411"/>
			<point x="575" y="338"/>
			<point x="575" y="230" type="curve" smooth="yes"/>
			<point x="575" y="121"/>
			<point x="511" y="48"/>
			<point x="376" y="48" type="curve" smooth="yes"/>
			<point name=".hr01" x="365" y="48"/>
			<point x="354" y="49"/>
			<point x="344" y="50" type="curve"/>
			<point x="344" y="0" type="line"/>
			<point x="264" y="0" type="line"/>
			<point name=".hr02" x="264" y="50" type="line"/>
			<point x="254" y="49"/>
			<point x="243" y="48"/>
			<point x="232" y="48" type="curve" smooth="yes"/>
			<point name=".hr03" x="97" y="48"/>
			<point x="33" y="121"/>
		</contour>
	</outline>
</glyph>
